<svg xmlns="http://www.w3.org/2000/svg" xmlns:xlink="http://www.w3.org/1999/xlink" viewBox="0 0 300 300"><defs><style>.cls-1{fill:url(#Оранжевый_желтый);}.cls-2{fill:url(#Безымянный_градиент_3);}.cls-3{fill:url(#linear-gradient);}.cls-4,.cls-5{fill:#486d4e;}.cls-4{stroke:#d14a43;}.cls-10,.cls-15,.cls-16,.cls-4,.cls-58,.cls-7,.cls-8,.cls-9{stroke-miterlimit:10;}.cls-6{fill:url(#linear-gradient-2);}.cls-10,.cls-15,.cls-7,.cls-8,.cls-9{fill:none;}.cls-15,.cls-7,.cls-8,.cls-9{stroke:#38291d;}.cls-7{stroke-width:2px;}.cls-8{stroke-width:4px;}.cls-9{stroke-width:3px;}.cls-10{stroke:#58412c;stroke-width:5px;}.cls-11{fill:url(#linear-gradient-3);}.cls-12{fill:url(#linear-gradient-4);}.cls-13{fill:url(#linear-gradient-5);}.cls-14{fill:url(#linear-gradient-6);}.cls-16{fill:#7f4544;stroke:#05070a;}.cls-17{fill:url(#linear-gradient-7);}.cls-18{fill:url(#linear-gradient-8);}.cls-19{fill:url(#linear-gradient-9);}.cls-20{fill:url(#linear-gradient-10);}.cls-21{fill:url(#linear-gradient-11);}.cls-22{fill:url(#linear-gradient-12);}.cls-23{fill:url(#linear-gradient-13);}.cls-24{fill:url(#linear-gradient-14);}.cls-25{fill:url(#linear-gradient-15);}.cls-26{fill:url(#linear-gradient-16);}.cls-27{fill:url(#linear-gradient-17);}.cls-28{fill:url(#linear-gradient-18);}.cls-29{fill:url(#linear-gradient-19);}.cls-30{fill:url(#linear-gradient-20);}.cls-31{fill:url(#linear-gradient-21);}.cls-32{fill:url(#linear-gradient-22);}.cls-33{fill:url(#linear-gradient-23);}.cls-34{fill:url(#linear-gradient-24);}.cls-35{fill:url(#linear-gradient-25);}.cls-36{fill:url(#linear-gradient-26);}.cls-37{fill:url(#linear-gradient-27);}.cls-38{fill:url(#linear-gradient-28);}.cls-39{fill:url(#linear-gradient-29);}.cls-40{fill:url(#linear-gradient-30);}.cls-41{fill:url(#linear-gradient-31);}.cls-42{fill:url(#linear-gradient-32);}.cls-43{fill:url(#linear-gradient-33);}.cls-44{fill:url(#linear-gradient-34);}.cls-45{fill:url(#linear-gradient-35);}.cls-46{fill:url(#linear-gradient-36);}.cls-47{fill:url(#linear-gradient-37);}.cls-48{fill:url(#linear-gradient-38);}.cls-49{fill:url(#linear-gradient-39);}.cls-50{fill:url(#linear-gradient-40);}.cls-51{fill:url(#linear-gradient-41);}.cls-52{fill:url(#linear-gradient-42);}.cls-53{fill:url(#linear-gradient-43);}.cls-54{fill:url(#linear-gradient-44);}.cls-55{fill:url(#linear-gradient-45);}.cls-56{fill:url(#linear-gradient-46);}.cls-57{fill:#05070a;}.cls-58{fill:#fff;stroke:#201600;opacity:0.6;}</style><linearGradient id="Оранжевый_желтый" x1="-18.5" y1="140.73" x2="326.4" y2="140.73" gradientUnits="userSpaceOnUse"><stop offset="0" stop-color="#fff258"/><stop offset="0.05" stop-color="#fae252"/><stop offset="0.12" stop-color="#f4cf4b"/><stop offset="0.2" stop-color="#f0c446"/><stop offset="0.28" stop-color="#efc045"/><stop offset="0.67" stop-color="#db8952"/><stop offset="0.89" stop-color="#d36d50"/><stop offset="1" stop-color="#ce584f"/></linearGradient><linearGradient id="Безымянный_градиент_3" x1="269.06" y1="44" x2="269.06" y2="44" gradientUnits="userSpaceOnUse"><stop offset="0" stop-color="#fff258"/><stop offset="0.05" stop-color="#fae252"/><stop offset="0.12" stop-color="#f4cf4b"/><stop offset="0.2" stop-color="#f0c446"/><stop offset="0.28" stop-color="#efc045"/><stop offset="0.67" stop-color="#db8952"/><stop offset="0.89" stop-color="#d36d50"/></linearGradient><linearGradient id="linear-gradient" x1="136.32" y1="139.21" x2="137.7" y2="123.48" gradientTransform="translate(-11.7 12.56) rotate(-5.05)" gradientUnits="userSpaceOnUse"><stop offset="0" stop-color="#514c31"/><stop offset="0.26" stop-color="#4b482f"/><stop offset="0.62" stop-color="#3a3b28"/><stop offset="1" stop-color="#20271e"/></linearGradient><linearGradient id="linear-gradient-2" x1="187.14" y1="147.93" x2="212.38" y2="147.93" gradientTransform="matrix(1, -0.09, 0.09, 1, -11.78, 12.33)" gradientUnits="userSpaceOnUse"><stop offset="0" stop-color="#fff" stop-opacity="0.4"/><stop offset="0.17" stop-color="#f2f2f0" stop-opacity="0.38"/><stop offset="0.39" stop-color="#cecbc6" stop-opacity="0.31"/><stop offset="0.64" stop-color="#918c82" stop-opacity="0.2"/><stop offset="0.91" stop-color="#3e3522" stop-opacity="0.05"/><stop offset="1" stop-color="#201600" stop-opacity="0"/></linearGradient><linearGradient id="linear-gradient-3" x1="115.56" y1="143.11" x2="100.38" y2="57.01" xlink:href="#linear-gradient-2"/><linearGradient id="linear-gradient-4" x1="55.5" y1="77.66" x2="53.42" y2="65.82" gradientTransform="translate(-11.7 12.56) rotate(-5.05)" gradientUnits="userSpaceOnUse"><stop offset="0" stop-color="#ece84d" stop-opacity="0.4"/><stop offset="0.09" stop-color="#efea4f" stop-opacity="0.43"/><stop offset="0.45" stop-color="#f8ef56" stop-opacity="0.52"/><stop offset="0.76" stop-color="#fdf25a" stop-opacity="0.58"/><stop offset="1" stop-color="#fff35c" stop-opacity="0.6"/></linearGradient><linearGradient id="linear-gradient-5" x1="85.74" y1="126.8" x2="75.65" y2="69.56" xlink:href="#linear-gradient-4"/><linearGradient id="linear-gradient-6" x1="110.54" y1="88.38" x2="94.21" y2="108.73" gradientTransform="translate(-11.7 12.56) rotate(-5.05)" gradientUnits="userSpaceOnUse"><stop offset="0" stop-color="#466a4c"/><stop offset="0.2" stop-color="#446548"/><stop offset="0.43" stop-color="#3e583c"/><stop offset="0.67" stop-color="#344228"/><stop offset="0.91" stop-color="#26230c"/><stop offset="1" stop-color="#201600"/></linearGradient><linearGradient id="linear-gradient-7" x1="95.62" y1="134.77" x2="95.14" y2="132.05" xlink:href="#linear-gradient-4"/><linearGradient id="linear-gradient-8" x1="103.12" y1="134.49" x2="102.56" y2="131.31" xlink:href="#linear-gradient-4"/><linearGradient id="linear-gradient-9" x1="105.28" y1="128.95" x2="104.85" y2="126.49" xlink:href="#linear-gradient-4"/><linearGradient id="linear-gradient-10" x1="113.7" y1="128.72" x2="113.35" y2="126.72" xlink:href="#linear-gradient-4"/><linearGradient id="linear-gradient-11" x1="113.82" y1="122.53" x2="113.23" y2="119.2" xlink:href="#linear-gradient-4"/><linearGradient id="linear-gradient-12" x1="97.07" y1="139.61" x2="96.46" y2="136.12" xlink:href="#linear-gradient-4"/><linearGradient id="linear-gradient-13" x1="123.63" y1="126.07" x2="122.79" y2="121.33" xlink:href="#linear-gradient-4"/><linearGradient id="linear-gradient-14" x1="121.14" y1="119.18" x2="120.79" y2="117.19" xlink:href="#linear-gradient-4"/><linearGradient id="linear-gradient-15" x1="131.41" y1="122.63" x2="130.84" y2="119.45" xlink:href="#linear-gradient-4"/><linearGradient id="linear-gradient-16" x1="134.66" y1="128.59" x2="133.91" y2="124.35" xlink:href="#linear-gradient-4"/><linearGradient id="linear-gradient-17" x1="140.78" y1="122.1" x2="140.4" y2="119.98" xlink:href="#linear-gradient-4"/><linearGradient id="linear-gradient-18" x1="144.63" y1="127.12" x2="144.07" y2="123.94" xlink:href="#linear-gradient-4"/><linearGradient id="linear-gradient-19" x1="153.38" y1="128.04" x2="152.94" y2="125.55" xlink:href="#linear-gradient-4"/><linearGradient id="linear-gradient-20" x1="193.77" y1="143.04" x2="193.41" y2="140.97" xlink:href="#linear-gradient-4"/><linearGradient id="linear-gradient-21" x1="198.3" y1="144.75" x2="197.82" y2="142.03" xlink:href="#linear-gradient-4"/><linearGradient id="linear-gradient-22" x1="200.27" y1="147.76" x2="200.03" y2="146.36" xlink:href="#linear-gradient-4"/><linearGradient id="linear-gradient-23" x1="123.79" y1="96.14" x2="123.79" y2="106.94" xlink:href="#linear-gradient-4"/><linearGradient id="linear-gradient-24" x1="131.99" y1="79.67" x2="131.99" y2="96.34" xlink:href="#linear-gradient-4"/><linearGradient id="linear-gradient-25" x1="146.67" y1="104.84" x2="146.67" y2="111.3" xlink:href="#linear-gradient-4"/><linearGradient id="linear-gradient-26" x1="166.31" y1="109.43" x2="166.31" y2="117.17" xlink:href="#linear-gradient-4"/><linearGradient id="linear-gradient-27" x1="183.89" y1="119.96" x2="183.89" y2="128.35" xlink:href="#linear-gradient-4"/><linearGradient id="linear-gradient-28" x1="177.37" y1="118.47" x2="177.37" y2="124.32" xlink:href="#linear-gradient-4"/><linearGradient id="linear-gradient-29" x1="189.02" y1="122.11" x2="189.02" y2="128.05" xlink:href="#linear-gradient-4"/><linearGradient id="linear-gradient-30" x1="193.81" y1="124.32" x2="193.81" y2="127.71" xlink:href="#linear-gradient-4"/><linearGradient id="linear-gradient-31" x1="208.73" y1="123.91" x2="208.73" y2="132.95" xlink:href="#linear-gradient-4"/><linearGradient id="linear-gradient-32" x1="215.62" y1="122.55" x2="215.62" y2="134.51" xlink:href="#linear-gradient-4"/><linearGradient id="linear-gradient-33" x1="102.93" y1="82.75" x2="102.93" y2="86.02" xlink:href="#linear-gradient-4"/><linearGradient id="linear-gradient-34" x1="126.72" y1="66.84" x2="126.72" y2="72.98" xlink:href="#linear-gradient-4"/><linearGradient id="linear-gradient-35" x1="160.58" y1="82.75" x2="160.58" y2="101.12" xlink:href="#linear-gradient-4"/><linearGradient id="linear-gradient-36" x1="148.02" y1="81.25" x2="148.02" y2="94.91" xlink:href="#linear-gradient-4"/><linearGradient id="linear-gradient-37" x1="191.31" y1="90.55" x2="191.31" y2="118.54" xlink:href="#linear-gradient-4"/><linearGradient id="linear-gradient-38" x1="189.06" y1="112.06" x2="189.06" y2="117.19" xlink:href="#linear-gradient-4"/><linearGradient id="linear-gradient-39" x1="172.03" y1="79.54" x2="172.03" y2="98.33" xlink:href="#linear-gradient-4"/><linearGradient id="linear-gradient-40" x1="182.74" y1="94.35" x2="182.74" y2="107.03" xlink:href="#linear-gradient-4"/><linearGradient id="linear-gradient-41" x1="156.37" y1="63.72" x2="156.37" y2="71.1" xlink:href="#linear-gradient-4"/><linearGradient id="linear-gradient-42" x1="175.67" y1="65.81" x2="175.67" y2="67.44" xlink:href="#linear-gradient-4"/><linearGradient id="linear-gradient-43" x1="139.15" y1="66.05" x2="139.15" y2="74.82" xlink:href="#linear-gradient-4"/><linearGradient id="linear-gradient-44" x1="213.48" y1="86.48" x2="213.48" y2="115.57" xlink:href="#linear-gradient-4"/><linearGradient id="linear-gradient-45" x1="198.48" y1="79.25" x2="198.48" y2="84.38" xlink:href="#linear-gradient-4"/><linearGradient id="linear-gradient-46" x1="205.45" y1="102.88" x2="205.45" y2="118.96" xlink:href="#linear-gradient-4"/></defs><g id="Слой_6" data-name="Слой 6"><rect class="cls-1" x="-18.5" y="-33.8" width="344.91" height="349.06"/><rect class="cls-2" x="269.06" y="37.68" height="12.64"/></g><g id="Слой_1" data-name="Слой 1"><g id="Слой_3" data-name="Слой 3"><path class="cls-3" d="M93.23,123.48s-8.42,6-5.66,7.51,39.54,7.4,47.26,7.49,16.22,1.83,25-.34,25.48-6.17,25.83-7.44-8.94-1.27-13.1-2.84-9.63,0-11.62.13-17.68,2.31-21,2.93-12,.56-16,.86-10.12,1-11.21.94S93.23,123.48,93.23,123.48Z"/><path class="cls-4" d="M103.05,103.65s13.87,11.36,22,10.64A55.48,55.48,0,0,1,147.9,117c7.63,2.48,27.44,14.87,33.79,11.69s41.42,14.28,40.65-3.27-7.37-43.7-19-51.58a116.22,116.22,0,0,0-38.16-17.06,64.14,64.14,0,0,0-39.46,3.48C112.94,65.57,90.55,77,84.23,84.88S103.05,103.65,103.05,103.65Z"/><path class="cls-5" d="M186.84,134.13s14.59,14.27,18,16.73l8.14-8.21L205,137.8l-5.34-4.2Z"/><path class="cls-6" d="M186.84,134.13s14.59,14.27,18,16.73l8.14-8.21L205,137.8l-5.34-4.2Z"/><path class="cls-7" d="M198.13,132.78s6.35,5.73,8.54,6a10.82,10.82,0,0,1,7,4.4c-.61.52-6.25.83-5.37-.1s3.47,2.62,3.47,2.62c-.74.48-6.57,1-5.31-.34,1-1,3,2.82,3,2.82-.77.5-6.29.15-5.45-.9.7-.87,3.78,4.33,3.78,4.33-.88.54-3-.89-6.43-2.9s-15.12-14.41-15.12-14.41"/><path class="cls-8" d="M199.54,70.51c-.23-.32-23.09-5.14-30.25-3.11-21.5,6.12-20.07,7.3-28.12,9.2-11.79,2.78-12.6-1.13-24.6,1.94"/><path class="cls-9" d="M193.05,115.36c.73,2.7.59-11-1.82-23.84A131.86,131.86,0,0,0,184.58,69"/><path class="cls-9" d="M163.88,102.69c.6,2.55-1.29-6.41-2.5-15.55-1-7.93-1.42-16.09-1.42-16.09"/><path class="cls-9" d="M140.08,99.24c.54,1.77-2.57-4.82-3.83-11a29.72,29.72,0,0,1-.15-9.79"/><path class="cls-9" d="M85.81,82.07c.71,8,28.24-2.82,31.31-4.27"/><path class="cls-9" d="M115.7,79.3C114.88,84.78,131.26,100,140,99.56c5.9-.29,15,5.85,25.11,3.68s21.2,15.41,31.33,14.06a76.56,76.56,0,0,0,23.06-7.12"/><path class="cls-7" d="M125.85,77c1.2-3.92-3.21-11-5.9-13.83"/><path class="cls-7" d="M145.73,74.55c-1.94-2.59.43-14.31-2.28-17.39"/><path class="cls-7" d="M162.3,69.82c-1.31-2.29,3.58-9.95,1.63-12.79"/><path class="cls-7" d="M117,83.43c-1.07,1.93-10.92,16.23-10.74,19.92"/><path class="cls-7" d="M127.75,94.42s-4,15.87-7.65,17.12"/><path class="cls-7" d="M142.86,100.11s-3.66,11.28-2.53,13.5"/><path class="cls-7" d="M156.77,103.76c-.37,2.87-.27,11.2-1.92,12.42"/><path class="cls-7" d="M173,105.32s-4.77,18.48-2.72,19.38"/><path class="cls-7" d="M184.12,112.47c.68,2.92,2.13,12.36-.19,14"/><path class="cls-7" d="M198.84,117.09s-.07,13.11-.49,11.92"/><path class="cls-7" d="M212,114.13s-3.34,14.18-.54,16.65"/><path class="cls-10" d="M102.94,114.64s-32.45,17-10.89,19.9,55.25,7,67.88,5,19.74-4,24.59-6.34,17.77-1.57,17.77-1.57"/><path class="cls-5" d="M85.57,92.65c-2.56-1,3.51,5.46-8.7-3.2-1.9-1.35-1.09-5-3.5-7.35-2-1.95-7.62-2.58-10.82-3.63-5.77-1.9-15.25-7.68-16.67-5.09-.53,1-4,5.37-2.52,6.21,2.17-.1,2.84,3.16,2.51,4.58s1.85,3.71,5.64,7.35c1.73,1.66,8.21,7.3,11.18,9.5s9.18,9.72,18.69,12.4c4.31,1.21,13.18,13.9,19.32,13.39.68-.06-18.47,17.71-15.07,17.88.37,0-.44,3,1.62,3.4,1,.21,4.83,2.28,5.61,1.29s.73-3.43,1.61-3.38c.32,0,1.89,4.73,2.13,3.81,1.18-4.64,7.1-11.73,9.81-13.42,4.58-2.87,7-3.86,7.88-3.81,9.38.51,24.74-1.6,32-3.49,8.72-2.27,18.73-.7,20-1.74,1.46-1.19-8-6.4-19.19-9.18-11.88-3-28.09-3-27.31-3.36"/><path class="cls-11" d="M85.57,92.65c-2.56-1,3.51,5.46-8.7-3.2-1.9-1.35-1.09-5-3.5-7.35-2-1.95-7.62-2.58-10.82-3.63-5.77-1.9-15.25-7.68-16.67-5.09-.53,1-4,5.37-2.52,6.21,2.17-.1,2.84,3.16,2.51,4.58s1.85,3.71,5.64,7.35c1.73,1.66,8.21,7.3,11.18,9.5s9.18,9.72,18.69,12.4c4.31,1.21,13.18,13.9,19.32,13.39.68-.06-18.47,17.71-15.07,17.88.37,0-.44,3,1.62,3.4,1,.21,4.83,2.28,5.61,1.29s.73-3.43,1.61-3.38c.32,0,1.89,4.73,2.13,3.81,1.18-4.64,7.1-11.73,9.81-13.42,4.58-2.87,7-3.86,7.88-3.81,9.38.51,24.74-1.6,32-3.49,8.72-2.27,18.73-.7,20-1.74,1.46-1.19-8-6.4-19.19-9.18-11.88-3-28.09-3-27.31-3.36"/><path class="cls-12" d="M46.26,74c-.18-.91-.49,4.72,3.9,7.21,1.64.93,2.75-.39,5,.46,1.48.57-2.28,3.06-3.22,2.94-2.95-.39-7.13-4.51-8.88-5.38C41.78,78.56,47.41,72.27,46.26,74Z"/><path class="cls-13" d="M47.64,87.81c2.22,2.31,6.52,8.24,9,9.16,3.44,1.28,11.19,9.13,14.92,11.54s7,3.12,12.35,5.69c5,2.41,11.74,12,15.78,12.31s-.77.85,1,.3,6.45-5.64,7.25-6.17-1.86-8-9.94-8.58c-5.44-.4-14.09-3.61-21.94-8.13C69.31,100,61.88,91.15,59.67,89.49c-2-1.49-13.59-7.93-13.59-7.93A7.14,7.14,0,0,0,47.64,87.81Z"/><path class="cls-7" d="M85.57,92.65c-.74.09-1.09,3.14-7.51-1.92-1.91-1.51-1.51-6.94-4.76-9.06-3-2-7.07-2.16-10-3.46-3.17-1.42-8.23-3.25-12.63-4.68-2.61-.15-2.61-.15-4.79-.15-.53,1-4,5.37-2.52,6.21,2.14-.7,2.24,2,1.9,3.38s2.56,6.52,5.64,8.78c1.45,1.06,6.2,7.38,10.78,8.51,3.59.9,10.19,10.48,19.7,13.16,4.31,1.21,14.09,13.82,20.24,13.31"/><path class="cls-14" d="M85.05,93.77s.19,5.43,2,6.82,19.49,14,22,14.72a19.43,19.43,0,0,0,.72-4.29C109.89,107.66,85.05,93.77,85.05,93.77Z"/><path class="cls-7" d="M110.48,110a33.25,33.25,0,0,1-1.89,9.11c-1.76,5-5.35,6.23-9.36,9.37s-5.6,4.15-9.86,10.21c-2.14,3-3.8,3.9-3.74,6s0,5.28,0,5.28c1.16-.26,3.22-4.81,2.65-5-1.34-.41.53,5.85.53,5.85,1-.44,2.9-4.53,2.14-4.76-1-.31,1.26,5.08,1.26,5.08.63-.76,3.38-5.67,2.28-5.67-1.39,0,1.41,5.42,1.41,5.42,2.13-.82,1.93-4.35,1.63-5.14s5.45-5.06,8.89-9.38c0,0,3.19-3.2,11.9-4.17s26.08-.84,28.71-2.54,17.81-1.48,20-2.76"/><path class="cls-10" d="M104.22,103.55s13.87,11.35,22,10.63a55.51,55.51,0,0,1,22.86,2.7c7.62,2.47,27.44,14.87,33.78,11.69s41.43,14.28,40.66-3.27-7.38-43.7-19-51.58a116.33,116.33,0,0,0-38.16-17.07,64.25,64.25,0,0,0-39.47,3.49C114.11,65.46,91.72,76.88,85.4,84.77S104.22,103.55,104.22,103.55Z"/><path class="cls-15" d="M52,84.7c-1.69-.27-5.31-2.8-6.23-3.43"/><path class="cls-16" d="M53.94,79.32c.39-.57-.21-1.65-1.24-2.35a3.71,3.71,0,0,0-3.71.37c-.39.58.33,1.75,1.36,2.44A3.46,3.46,0,0,0,53.94,79.32Z"/><path class="cls-17" d="M96.43,136.94a1.39,1.39,0,1,0-1.26,1.5A1.39,1.39,0,0,0,96.43,136.94Z"/><path class="cls-18" d="M104,135.75a1.62,1.62,0,1,0-1.47,1.75A1.61,1.61,0,0,0,104,135.75Z"/><path class="cls-19" d="M105.44,130.43a1.25,1.25,0,1,0-1.14,1.35A1.26,1.26,0,0,0,105.44,130.43Z"/><path class="cls-20" d="M113.62,129.7a1,1,0,1,0-.91,1.1A1,1,0,0,0,113.62,129.7Z"/><path class="cls-21" d="M113.7,122.82a1.69,1.69,0,1,0-1.54,1.83A1.68,1.68,0,0,0,113.7,122.82Z"/><path class="cls-22" d="M98.58,141.22A1.77,1.77,0,1,0,97,143.14,1.77,1.77,0,0,0,98.58,141.22Z"/><path class="cls-23" d="M124.3,124.72a2.4,2.4,0,1,0-2.18,2.61A2.39,2.39,0,0,0,124.3,124.72Z"/><path class="cls-24" d="M120.2,119.55a1,1,0,1,0-2,.18,1,1,0,0,0,2-.18Z"/><path class="cls-25" d="M131.17,121.45a1.61,1.61,0,0,0-1.75-1.47h0a1.61,1.61,0,0,0-1.47,1.75h0a1.61,1.61,0,0,0,1.75,1.47h0a1.61,1.61,0,0,0,1.47-1.75Z"/><path class="cls-26" d="M135.33,126.53a2.14,2.14,0,0,0-2.33-2h0a2.14,2.14,0,0,0-1.95,2.33h0a2.15,2.15,0,0,0,2.33,2h0a2.15,2.15,0,0,0,2-2.34Z"/><path class="cls-27" d="M140.06,120.66a1.08,1.08,0,0,0-1.17-1h0a1.08,1.08,0,0,0-1,1.17h0a1.07,1.07,0,0,0,1.16,1h0a1.08,1.08,0,0,0,1-1.17Z"/><path class="cls-28" d="M144.74,124.76a1.61,1.61,0,0,0-1.75-1.47h0a1.61,1.61,0,0,0-1.47,1.75h0a1.61,1.61,0,0,0,1.75,1.47h0a1.61,1.61,0,0,0,1.47-1.75Z"/><path class="cls-29" d="M153.28,125.27a1.26,1.26,0,0,0-1.37-1.14h0a1.26,1.26,0,0,0-1.15,1.37h0a1.26,1.26,0,0,0,1.37,1.14h0a1.26,1.26,0,0,0,1.15-1.37Z"/><path class="cls-30" d="M194.67,136.89a1,1,0,0,0-1.14-.95h0a1,1,0,0,0-.95,1.13h0a1.06,1.06,0,0,0,1.14,1h0a1,1,0,0,0,.95-1.14Z"/><path class="cls-31" d="M199.58,137.84a1.38,1.38,0,0,0-1.5-1.25h0a1.38,1.38,0,0,0-1.26,1.5h0a1.38,1.38,0,0,0,1.5,1.25h0a1.38,1.38,0,0,0,1.26-1.5Z"/><path class="cls-32" d="M201.31,141.37a.7.7,0,0,0-.76-.64h0a.71.71,0,0,0-.65.77h0a.7.7,0,0,0,.77.64h0a.7.7,0,0,0,.64-.77Z"/><path class="cls-33" d="M119.79,100.3c-.49,1-.37,4.2-1.24,5.2s-.42,2.7.26,2.87,4.09-4,4.11-5.3.1-4.21,0-5.59S119.79,100.3,119.79,100.3Z"/><path class="cls-34" d="M121.55,81.28c.08.8-3.75-1.91-1.62,1.22s2.38,4.61,3.76,5.88,4.71,4.1,6.5,4.4,6,4.43,5.53,3.27-4.1-7.68-6-8.67S121.55,81.28,121.55,81.28Z"/><path class="cls-35" d="M143.47,110.36c-.45,1.44-.79-4-.13-4.85s1.47-2.12,1.32-1.17a31.16,31.16,0,0,0,.42,4.26C145.09,109.17,143.65,109.76,143.47,110.36Z"/><path class="cls-36" d="M158.81,115.12c-.12-1.36,0-1.33.53-3.19s.3-3.12,2.24-3.52,2-1.68,4.36-1.66,3.24,1.21,3.27,1.56-1.18-.24-2.76.25-2.24-1-3.27.76-2.92,1.21-2.92,2.53S158.81,115.12,158.81,115.12Z"/><path class="cls-37" d="M183,115.79s.15,7.45-.25,8.15-1.13.27-1-.83S183,115.79,183,115.79Z"/><path class="cls-38" d="M176.1,115.61c.4-2-1.3.93-1.24,1.72s.53,3.37,1.06,3.45S176.1,115.61,176.1,115.61Z"/><path class="cls-39" d="M187.27,117.57c0,.6-.68,2.72-.39,3.46s.91,2.46.91,2.46a4.24,4.24,0,0,0,.64-2C188.54,120.15,187.27,117.57,187.27,117.57Z"/><path class="cls-40" d="M191.67,119.39c-.1,1-1.28.79-.49,1.84s2.9,1.36,2.9,1.36-1.27-.15-1.6-1.11S191.67,119.39,191.67,119.39Z"/><path class="cls-41" d="M208.91,117.47s-3.63,3.54-3.14,5.1,2.5,3.65,2.14,4-.26-.78-.2-2.25a10,10,0,0,0-.23-2.6C207.33,120.57,208.91,117.47,208.91,117.47Z"/><path class="cls-42" d="M214.3,115.63c.06.73-1.67,3.39-1.12,4.35s1.82,5.63,1.3,6.52,1.56,1,1.56,1l-1.63-5.66Z"/><path class="cls-43" d="M89.33,88.06s-1,1.36.14,1.61,3,.2,7.2-.64,9-2.18,10.36-3.23-.53-.76-2.76.25-5,.9-6.16,1S89.33,88.06,89.33,88.06Z"/><path class="cls-44" d="M120.83,68s1.73,3.66.93,5.16-.21,1-1,.09-1.66-2.93-1.35-4A1.86,1.86,0,0,1,120.83,68Z"/><path class="cls-45" d="M155.78,80.84c.22,1.1-1.5,11.83-.52,13.69s2.37,3.24,2.8,4.24.86-.8.36-2.54-1.41-1.54-1.6-3.6S155.78,80.84,155.78,80.84Z"/><path class="cls-46" d="M140.15,80.71c.38,1.78,3.19,3.42,4,4.43s1.85,5.11,1.51,5.24.12,1.33,1,2.38-1.69,1.92-2.68.23.18-3.75-.66-4.95S140.15,80.71,140.15,80.71Z"/><path class="cls-47" d="M185.51,88.12s2.64,17.13,3.6,20.12a40.14,40.14,0,0,1,1.18,5.41c.11.08,1.19.28,1.11-1.83s-2-11.08-2.43-13.12-2.25-9.29-2.7-10.64a3.57,3.57,0,0,0-1.72-1.94Z"/><path class="cls-48" d="M186.7,110.47a6.44,6.44,0,0,1-1-2.57c.08-.82,1.5.14,1.71,1.55s.44,3.33.27,3.12S186.7,110.47,186.7,110.47Z"/><path class="cls-49" d="M167,76.75c-.13-1.45-1.77,10.16-.88,12.4s2.27,6,2.52,6.18-.08-2.24-.45-5.1-.8-2.92-.32-5.11,1.45-5.4.29-6.89Z"/><path class="cls-50" d="M176.48,90.66a29.46,29.46,0,0,0,.75,3.58c.55,2.05,1.11,3.5.92,4-.29.68,2.36,4.17,1.77,4.79s1.38-1.52,1.67-3-2.7-.8-2.55-4.52S176.48,90.66,176.48,90.66Z"/><path class="cls-51" d="M148.37,69.8c.53-1.36,2-2,.86-3.82s-.68-2.83-.68-2.83,3.28-2,3.09-.27a12.88,12.88,0,0,1-.65,3,7.63,7.63,0,0,1-.78,2.58A3.05,3.05,0,0,1,148.37,69.8Z"/><path class="cls-52" d="M169.18,62.65c1.57.27,3.18,1.59,1.73,1.45a26.21,26.21,0,0,1-4.09-1Z"/><path class="cls-53" d="M130.88,66.27c.89.91,2,2.78,1.91,3.3s-1.36,2.75-.49,3.53a25.19,25.19,0,0,0,2.61,1.55c.33.32.67-.83-.11-1.3s-2,.94-1.17-1.29,1.71-1,.79-3S130.88,66.27,130.88,66.27Z"/><path class="cls-54" d="M216.56,108.41s-.8-7.68-3.23-11.63S209.71,85.29,208,84.06s-2.79-3.46-4.13-3.69-.3,2.57.36,4,2.63,1.5,3.23,1.68,1.6,3.31,1.63,4.48,3.07,9,3.49,10S216.56,108.41,216.56,108.41Z"/><path class="cls-55" d="M191.62,79.31s-1.15-2.39-.32-3.62,2.79-2.31,3.76-1.42-1.73,1.2-2,1.76S191.62,79.31,191.62,79.31Z"/><path class="cls-56" d="M200.74,97.08a71.21,71.21,0,0,0,1,11.1,11.47,11.47,0,0,0,2.23,4.33c.39.45,1,.75.84-.74s-1.3-4.49-1.52-5.7.07-3.13-.52-4.62S200.74,97.08,200.74,97.08Z"/><path class="cls-57" d="M52.1,78.31a.64.64,0,0,0-.69-.58h0a.62.62,0,0,0-.57.69h0a.62.62,0,0,0,.68.57h0a.63.63,0,0,0,.58-.68Z"/></g></g><g id="Слой_2" data-name="Слой 2"><line class="cls-58" x1="90.4" y1="175.69" x2="137.16" y2="242.19"/><line class="cls-58" x1="104.75" y1="175.69" x2="159.3" y2="254.19"/><line class="cls-58" x1="127.91" y1="186.19" x2="158.31" y2="230.44"/><line class="cls-58" x1="137.8" y1="179.56" x2="177.3" y2="238.69"/><line class="cls-58" x1="152.5" y1="175.69" x2="197.83" y2="245.94"/><line class="cls-58" x1="164.99" y1="171.94" x2="203.51" y2="233.69"/><line class="cls-58" x1="180.2" y1="178.07" x2="209.73" y2="223.69"/><line class="cls-58" x1="192.95" y1="178.35" x2="216.14" y2="216.19"/><line class="cls-58" x1="213.25" y1="190.38" x2="227.04" y2="212.91"/><line class="cls-58" x1="228.26" y1="193.9" x2="236.98" y2="208.12"/><line class="cls-58" x1="233.98" y1="184.31" x2="242.7" y2="198.54"/><line class="cls-58" x1="238.34" y1="172.45" x2="247.05" y2="186.67"/></g></svg>