<svg xmlns="http://www.w3.org/2000/svg" xmlns:xlink="http://www.w3.org/1999/xlink" viewBox="0 0 300 300"><defs><style>.cls-1{isolation:isolate;}.cls-2{fill:#4a0099;}.cls-3{fill:url(#linear-gradient);}.cls-4{fill:url(#linear-gradient-2);}.cls-5{fill:url(#linear-gradient-3);}.cls-6{fill:url(#linear-gradient-4);}.cls-7,.cls-8{opacity:0.5;}.cls-7{fill:url(#linear-gradient-5);}.cls-8{fill:url(#linear-gradient-6);}.cls-9{fill:url(#linear-gradient-7);}.cls-10,.cls-11{fill:none;stroke:#fff;stroke-miterlimit:10;}.cls-11{mix-blend-mode:overlay;}</style><linearGradient id="linear-gradient" x1="77.44" y1="-94.33" x2="250.03" y2="379.86" gradientUnits="userSpaceOnUse"><stop offset="0" stop-color="#fff" stop-opacity="0"/><stop offset="0.25" stop-color="#007f2b" stop-opacity="0.3"/><stop offset="0.53" stop-color="#e8a754" stop-opacity="0.3"/><stop offset="0.75" stop-color="#f0ff15" stop-opacity="0.3"/><stop offset="1" stop-color="#fff" stop-opacity="0"/></linearGradient><linearGradient id="linear-gradient-2" x1="196.77" y1="115.56" x2="263.65" y2="97.64" gradientTransform="matrix(0.94, 0.34, -0.34, 0.94, -128.53, -75.67)" gradientUnits="userSpaceOnUse"><stop offset="0" stop-color="#fff" stop-opacity="0"/><stop offset="0.28" stop-color="#fff" stop-opacity="0.01"/><stop offset="0.45" stop-color="#fff" stop-opacity="0.04"/><stop offset="0.59" stop-color="#fff" stop-opacity="0.1"/><stop offset="0.72" stop-color="#fff" stop-opacity="0.18"/><stop offset="0.83" stop-color="#fff" stop-opacity="0.28"/><stop offset="0.94" stop-color="#fff" stop-opacity="0.41"/><stop offset="1" stop-color="#fff" stop-opacity="0.5"/></linearGradient><linearGradient id="linear-gradient-3" x1="219.93" y1="97.64" x2="286.82" y2="115.56" gradientTransform="matrix(0.94, 0.34, -0.34, 0.94, -128.53, -75.67)" gradientUnits="userSpaceOnUse"><stop offset="0" stop-color="#fff" stop-opacity="0.5"/><stop offset="0.06" stop-color="#fff" stop-opacity="0.41"/><stop offset="0.17" stop-color="#fff" stop-opacity="0.28"/><stop offset="0.28" stop-color="#fff" stop-opacity="0.18"/><stop offset="0.41" stop-color="#fff" stop-opacity="0.1"/><stop offset="0.55" stop-color="#fff" stop-opacity="0.04"/><stop offset="0.72" stop-color="#fff" stop-opacity="0.01"/><stop offset="1" stop-color="#fff" stop-opacity="0"/></linearGradient><linearGradient id="linear-gradient-4" x1="205.95" y1="98.71" x2="277.63" y2="98.71" gradientTransform="matrix(0.94, 0.34, -0.34, 0.94, -128.53, -75.67)" gradientUnits="userSpaceOnUse"><stop offset="0" stop-color="#fff" stop-opacity="0"/><stop offset="0.04" stop-color="#e1f3fd" stop-opacity="0.15"/><stop offset="0.11" stop-color="#b7e3f9" stop-opacity="0.38"/><stop offset="0.17" stop-color="#92d4f6" stop-opacity="0.57"/><stop offset="0.24" stop-color="#73c9f4" stop-opacity="0.72"/><stop offset="0.31" stop-color="#5cc0f2" stop-opacity="0.84"/><stop offset="0.37" stop-color="#4bb9f1" stop-opacity="0.93"/><stop offset="0.44" stop-color="#41b5f0" stop-opacity="0.98"/><stop offset="0.5" stop-color="#3eb4f0"/><stop offset="0.56" stop-color="#41b5f0" stop-opacity="0.98"/><stop offset="0.63" stop-color="#4bb9f1" stop-opacity="0.93"/><stop offset="0.69" stop-color="#5cc0f2" stop-opacity="0.84"/><stop offset="0.76" stop-color="#73c9f4" stop-opacity="0.72"/><stop offset="0.83" stop-color="#92d4f6" stop-opacity="0.57"/><stop offset="0.89" stop-color="#b7e3f9" stop-opacity="0.38"/><stop offset="0.96" stop-color="#e1f3fd" stop-opacity="0.15"/><stop offset="1" stop-color="#fff" stop-opacity="0"/></linearGradient><linearGradient id="linear-gradient-5" x1="198.33" y1="110.63" x2="267.41" y2="97.21" gradientTransform="matrix(0.94, 0.34, -0.34, 0.94, -128.53, -75.67)" gradientUnits="userSpaceOnUse"><stop offset="0" stop-color="#fff" stop-opacity="0"/><stop offset="0.12" stop-color="#fbfbfc" stop-opacity="0.03"/><stop offset="0.24" stop-color="#efeef5" stop-opacity="0.1"/><stop offset="0.37" stop-color="#dbd8e8" stop-opacity="0.23"/><stop offset="0.5" stop-color="#beb9d7" stop-opacity="0.42"/><stop offset="0.62" stop-color="#9a92c0" stop-opacity="0.65"/><stop offset="0.75" stop-color="#6e62a5" stop-opacity="0.94"/><stop offset="0.78" stop-color="#64589f"/><stop offset="0.78" stop-color="#6e62a5" stop-opacity="0.94"/><stop offset="0.82" stop-color="#9a92c0" stop-opacity="0.65"/><stop offset="0.86" stop-color="#beb9d7" stop-opacity="0.42"/><stop offset="0.89" stop-color="#dbd8e8" stop-opacity="0.23"/><stop offset="0.93" stop-color="#efeef5" stop-opacity="0.1"/><stop offset="0.97" stop-color="#fbfbfc" stop-opacity="0.03"/><stop offset="1" stop-color="#fff" stop-opacity="0"/></linearGradient><linearGradient id="linear-gradient-6" x1="216.18" y1="97.21" x2="285.25" y2="110.63" gradientTransform="matrix(0.94, 0.34, -0.34, 0.94, -128.53, -75.67)" gradientUnits="userSpaceOnUse"><stop offset="0" stop-color="#fff" stop-opacity="0"/><stop offset="0.03" stop-color="#fbfbfc" stop-opacity="0.03"/><stop offset="0.07" stop-color="#efeef5" stop-opacity="0.1"/><stop offset="0.11" stop-color="#dbd8e8" stop-opacity="0.23"/><stop offset="0.14" stop-color="#beb9d7" stop-opacity="0.42"/><stop offset="0.18" stop-color="#9a92c0" stop-opacity="0.65"/><stop offset="0.22" stop-color="#6e62a5" stop-opacity="0.94"/><stop offset="0.22" stop-color="#64589f"/><stop offset="0.25" stop-color="#6e62a5" stop-opacity="0.94"/><stop offset="0.38" stop-color="#9a92c0" stop-opacity="0.65"/><stop offset="0.5" stop-color="#beb9d7" stop-opacity="0.42"/><stop offset="0.63" stop-color="#dbd8e8" stop-opacity="0.23"/><stop offset="0.76" stop-color="#efeef5" stop-opacity="0.1"/><stop offset="0.88" stop-color="#fbfbfc" stop-opacity="0.03"/><stop offset="1" stop-color="#fff" stop-opacity="0"/></linearGradient><linearGradient id="linear-gradient-7" x1="205.95" y1="98.71" x2="277.63" y2="98.71" gradientTransform="matrix(0.94, 0.34, -0.34, 0.94, -128.53, -75.67)" gradientUnits="userSpaceOnUse"><stop offset="0" stop-color="#fff" stop-opacity="0"/><stop offset="0.09" stop-color="#fafbfd" stop-opacity="0.02"/><stop offset="0.17" stop-color="#eaeef6" stop-opacity="0.09"/><stop offset="0.26" stop-color="#d0d9eb" stop-opacity="0.2"/><stop offset="0.35" stop-color="#abbbdc" stop-opacity="0.36"/><stop offset="0.44" stop-color="#7d95c8" stop-opacity="0.56"/><stop offset="0.5" stop-color="#5b7aba" stop-opacity="0.7"/><stop offset="0.56" stop-color="#7d95c8" stop-opacity="0.56"/><stop offset="0.65" stop-color="#abbbdc" stop-opacity="0.36"/><stop offset="0.74" stop-color="#d0d9eb" stop-opacity="0.2"/><stop offset="0.83" stop-color="#eaeef6" stop-opacity="0.09"/><stop offset="0.91" stop-color="#fafbfd" stop-opacity="0.02"/><stop offset="1" stop-color="#fff" stop-opacity="0"/></linearGradient></defs><g class="cls-1"><g id="Слой_2" data-name="Слой 2"><g id="Слой_1" data-name="Слой 1"><rect class="cls-2" x="-62.93" y="-43.23" width="453.33" height="372"/><rect class="cls-3" x="-62.93" y="-43.23" width="453.33" height="372"/></g><path class="cls-4" d="M14,135.43S74.16,48.55,82.52,51.58c7.7,2.8-1.19,108.32-1.19,108.32s-7.59-20.54-11.82-22.08-13.87,12.75-21.87,9.84-5.26-20.37-10.85-22.4S14,135.43,14,135.43Z"/><path class="cls-5" d="M14,135.43S74.16,48.55,82.52,51.58c7.7,2.8-1.19,108.32-1.19,108.32s-7.59-20.54-11.82-22.08-13.87,12.75-21.87,9.84-5.26-20.37-10.85-22.4S14,135.43,14,135.43Z"/><path class="cls-6" d="M14,135.43S74.16,48.55,82.52,51.58c7.7,2.8-1.19,108.32-1.19,108.32s-7.59-20.54-11.82-22.08-13.87,12.75-21.87,9.84-5.26-20.37-10.85-22.4S14,135.43,14,135.43Z"/><path class="cls-7" d="M14,135.43S74.16,48.55,82.52,51.58c7.7,2.8-1.19,108.32-1.19,108.32s-7.59-20.54-11.82-22.08-13.87,12.75-21.87,9.84-5.26-20.37-10.85-22.4S14,135.43,14,135.43Z"/><path class="cls-8" d="M14,135.43S74.16,48.55,82.52,51.58c7.7,2.8-1.19,108.32-1.19,108.32s-7.59-20.54-11.82-22.08-13.87,12.75-21.87,9.84-5.26-20.37-10.85-22.4S14,135.43,14,135.43Z"/><path class="cls-9" d="M14,135.43S74.16,48.55,82.52,51.58c7.7,2.8-1.19,108.32-1.19,108.32s-7.59-20.54-11.82-22.08-13.87,12.75-21.87,9.84-5.26-20.37-10.85-22.4S14,135.43,14,135.43Z"/><path class="cls-10" d="M14,135.43S74.16,48.55,82.52,51.58c7.7,2.8-1.19,108.32-1.19,108.32s-7.59-20.54-11.82-22.08-13.87,12.75-21.87,9.84-5.26-20.37-10.85-22.4S14,135.43,14,135.43Z"/><line class="cls-10" x1="82.04" y1="52.91" x2="47.64" y2="147.66"/><polyline class="cls-10" points="37.09 125.37 82.03 52.91 69.81 137.93"/><path class="cls-11" d="M45.24,156.45s-6.69,20.93-4.37,42.08c1.65,15.07,6.88,26.15,14,37.5,17.26,27.34,58.88,37.71,86.48,24.83,21.46-10,72.68-49.22,91.54-67.15s42.09-46.49,30.13-80.53S206.24,63.57,172.2,95.06s-1.14,79.73,17.94,98.62c18.34,18.14,73.28,63.7,95.91,76.82"/></g></g></svg>