<svg xmlns="http://www.w3.org/2000/svg" viewBox="0 0 700 700"><defs><style>.a{fill:#c24e45;}.b{opacity:0.2;}.c{fill:#201600;}.d,.e{fill:none;stroke:#201600;stroke-miterlimit:10;}.d{stroke-width:0.2px;}.e{stroke-width:0.21px;}.f{fill:#e4c2db;}.g{fill:#c07fb2;}</style></defs><circle class="a" cx="350" cy="350" r="215.13"/><g class="b"><path class="c" d="M146.8,191.82c15.2,28.83,31.18,57.73,51.51,83.29,4.3,5.18,8.8,10.2,14.16,14.19A75.3,75.3,0,0,0,223,295.22c19.72,9.19,40.72,15.71,61.46,22.29,36.5,11.58,73.75,20.81,110.07,33,16.09,5.22,27.61,18.46,36.51,32.25,6,9.16,11.52,18.62,17.73,27.6,12.34,18.06,29.64,32.17,47,45.16,12.7,9,44.35,30.71,59.11,21.89-14.76,9-46.82-12.72-59.4-21.48-17.56-12.92-35-26.93-47.55-45-9.5-13.38-17.1-28.05-27.74-40.54-12.61-14.87-24-18-41.83-23.33-42-12.37-84.48-23.08-126-37.15a318.13,318.13,0,0,1-30.71-12c-5-2.39-10.11-5-14.31-8.74a101.33,101.33,0,0,1-11.54-12c-20.76-25.69-37-54.53-52.57-83.53l3.56-1.83Z"/><path class="c" d="M221.76,294.76c6.1,20.64,11.23,41.55,13.75,62.94.61,7.05,1.24,14.05,3.11,20.91,9.1,33.18,28.37,67,56.18,87.85,5.67,4.4,12.55,7,17.78,11.94,27.92,26.37,30.86,85.38,30.3,121.91.15-36.06-3.44-95.06-31.29-120.79-5.27-4.85-12.15-7.33-17.81-11.64C265.29,447,245.36,413,235.71,379.36c-2-6.92-2.74-14.15-3.43-21.29-.85-7-2.11-14-3.54-20.94-2.92-13.87-6.56-27.66-10.79-41.16l3.81-1.21Z"/><path class="c" d="M302.08,323.46c29-24.9,64.91-43.23,103.25-47.14a134.85,134.85,0,0,1,19.17-.43C469,277.75,512.78,286,557.07,289.33c12.54.57,25.64,1.62,37.69-2.56-12,4.35-25.16,3.47-37.72,3.06-44.31-2.77-88.23-10.42-132.62-11.71a133.1,133.1,0,0,0-18.84.68c-31.37,3.45-60.86,17.31-86.19,35.74a171.56,171.56,0,0,0-14.57,11.83l-2.74-2.91Z"/><path class="c" d="M427.69,377.24c-9.58,25.53-5.36,82.63,4.61,108.17,2,4.62,4.28,10.16,9.28,12.17-5.08-1.9-7.47-7.44-9.63-12-10.27-25.73-13.57-66.13-10.56-93.71a68.27,68.27,0,0,1,3.52-15.71l2.78,1.11Z"/></g><path class="c" d="M147.89,191.34c15.27,28.83,31.28,57.67,51.63,83.26a104.8,104.8,0,0,0,11.13,11.83c4,3.6,8.79,6.16,13.67,8.53,19.78,9.21,40.75,15.59,61.53,22.11,36.48,11.44,73.71,20.46,109.92,32.77,16.08,5.43,27.14,18.5,36,32.39,5.93,9.19,11.36,18.67,17.52,27.68,12.19,18.16,29.36,32.39,46.67,45.47,12.69,9.1,44.09,30.92,58.93,22-19.66,11.72-69.78-28.79-84.39-42.62-8-7.44-15.62-15.41-21.62-24.59-6.21-9-11.69-18.47-17.64-27.62s-12.55-18-21.36-24.44-19.57-9.29-29.91-12.6-21-6.15-31.47-9.13c-36.74-10.53-73.82-20.27-109.66-33.69-7.64-3-15.35-6.07-22.44-10.24a42,42,0,0,1-6.75-4.86c-12.22-11.12-21.47-25-30.57-38.61-11.9-18.37-22.77-37.37-32.94-56.74l1.78-.92Z"/><path class="c" d="M222.91,294.36c6.12,20.5,11.31,41.33,13.87,62.59.66,7.13,1.28,14.08,3.18,21,9.2,33.19,28.7,66.95,56.42,87.95C302,470.23,308.82,473,313.93,478,341.35,505.28,343,563.11,343,599.93c-.18-36.54-2.18-94.43-29.59-121.36-5.12-5-11.9-7.67-17.54-12a113.6,113.6,0,0,1-16-14.17c-22.91-24.63-42.46-61.38-44.67-95.27C232.5,336,227.2,315.28,221,295l1.9-.61Z"/><path class="c" d="M303,322.3c29-25.06,65.38-42.52,103.71-46.16a161.68,161.68,0,0,1,19.19-.43c31.89,1.44,63.53,5.93,95.16,9.84,20.76,2.14,57.14,8.15,75.85.52-18.67,7.76-55.18,2-75.91,0-31.66-3.7-63.28-8-95.14-9.21a159.22,159.22,0,0,0-19,.54c-31.69,3.09-61.84,16.13-87.62,34.52a161.05,161.05,0,0,0-14.83,11.85L303,322.3Z"/><path class="c" d="M428.62,377.63c-9.16,25.81-5.87,82,3.91,107.76,2,4.59,4.21,10.13,9.2,12.08-5-1.91-7.3-7.45-9.32-12-9.57-25.7-11.64-65.61-8.26-92.86a72.51,72.51,0,0,1,3.54-15.31l.93.36Z"/><path class="d" d="M340.2,546.47s-18.9,27.3-16.1,46.9"/><path class="c" d="M249.63,404.84c7,11.59,20.45,18.7,32.79,23.33-11.32-3.89-22.58-9.53-30.59-18.63a26,26,0,0,1-3.1-4.25l.9-.45Z"/><path class="c" d="M324,307.1c5.15,1.73,10.91,1.56,16.32,1.58s11.11-.56,16.64-1.14c-9.66,1.23-19.46,2.41-29.19,1.38a18.32,18.32,0,0,1-4.22-.93l.45-.89Z"/><path class="c" d="M441.89,276.71c5,.91,10.59-.13,15.61-.89,13.06-2.42,25.77-6.47,38.3-10.85l7.5-2.7-7.46,2.82c-15,5.39-30.24,10.77-46.12,12.65a27.17,27.17,0,0,1-8.15-.09l.32-.94Z"/><path class="c" d="M528.75,286.61c1.93.24,3.14,1.95,4.1,3.46s1.79,3.17,2.69,4.75a36.9,36.9,0,0,0,25.16,19.25,37,37,0,0,1-25.29-19.17c-.9-1.58-1.74-3.2-2.71-4.74s-2.12-3.12-4-3.35l0-.2Z"/><path class="c" d="M227.92,314.07c-1,21.65-9.87,45.23-29.82,56,14.67-8.1,23.34-23.77,26.79-39.74a82.2,82.2,0,0,0,2-16.26Z"/><path class="c" d="M424.72,447.77a134.47,134.47,0,0,1,12.43,7.69c3.76,2.88,8.29,5.7,10.12,10.27-1.9-4.53-6.46-7.25-10.27-10.06a134.85,134.85,0,0,0-12.51-7.46l.23-.44Z"/><path class="c" d="M185.76,256.32a5.2,5.2,0,0,1,4.49,0,5.13,5.13,0,0,1-4.49,0Z"/><path class="c" d="M254.35,306.61a14.88,14.88,0,0,1,4.18,6.52,14.73,14.73,0,0,1-4.18-6.52Z"/><path class="c" d="M237.52,370.07a7.42,7.42,0,0,1-2.79,4.66,7.4,7.4,0,0,1,2.79-4.66Z"/><path class="c" d="M299,468.24a5,5,0,0,1,4.4,0,4.94,4.94,0,0,1-4.4,0Z"/><path class="c" d="M397.93,351.09a8.27,8.27,0,0,1,5.74,0,8.22,8.22,0,0,1-5.74,0Z"/><path class="c" d="M411.12,276.43a11.6,11.6,0,0,1,6.08,3.1,11.53,11.53,0,0,1-6.08-3.1Z"/><polygon class="c" points="511.84 284.6 519.87 282.33 511.9 284.79 511.84 284.6 511.84 284.6"/><line class="e" x1="332.01" y1="560.69" x2="329.79" y2="561.43"/><path class="f" d="M199.09,369.53s3.74-5.77-1-5.74c-4.37,0-1,5.72-1,5.72Z"/><path class="f" d="M199.75,371.44s6.87.41,4.49-3.73c-2.18-3.79-5.48,1.93-5.48,1.93Z"/><path class="f" d="M197.68,372.12s1.72,6.66,4.93,3.12c2.94-3.24-3.52-4.62-3.52-4.62Z"/><path class="f" d="M198.61,372.12s-1.72,6.66-4.93,3.12c-2.94-3.24,3.52-4.62,3.52-4.62Z"/><path class="f" d="M196.46,371.44s-6.87.41-4.49-3.73c2.18-3.79,5.48,1.93,5.48,1.93Z"/><path class="g" d="M200.45,370.06a2.34,2.34,0,1,0-2.33,2.33A2.33,2.33,0,0,0,200.45,370.06Z"/><path class="f" d="M502.9,261.28s-5.11-4.61-5.84.12c-.66,4.31,5.49,1.91,5.49,1.91Z"/><path class="f" d="M504.89,260.93s1.49-6.71-3-5c-4.08,1.55,1,5.72,1,5.72Z"/><path class="f" d="M505.23,263.08s6.85-.64,3.86-4.37c-2.73-3.41-5.12,2.74-5.12,2.74Z"/><path class="f" d="M505.38,262.17s6.3,2.75,2.29,5.36c-3.66,2.38-4-4.21-4-4.21Z"/><path class="f" d="M504.36,264.18S503.68,271,500,268c-3.4-2.75,2.77-5.11,2.77-5.11Z"/><path class="g" d="M503.63,260a2.33,2.33,0,1,0,1.94,2.67A2.33,2.33,0,0,0,503.63,260Z"/><path class="f" d="M597.88,286.42s6.5-2.25,2.72-5.17c-3.46-2.66-4.33,3.88-4.33,3.88Z"/><path class="f" d="M597.22,288.33s5.16,4.55,5.83-.18c.62-4.32-5.5-1.86-5.5-1.86Z"/><path class="f" d="M595.17,287.59s-2.74,6.31,2,5.49c4.3-.74.07-5.81.07-5.81Z"/><path class="f" d="M595.9,288.16s-5.46,4.18-5.8-.58c-.32-4.36,5.62-1.47,5.62-1.47Z"/><path class="f" d="M594.63,286.3s-5.66-3.91-1.24-5.7c4.05-1.65,3.13,4.89,3.13,4.89Z"/><path class="g" d="M598.63,287.67a2.33,2.33,0,1,0-3.28.4A2.33,2.33,0,0,0,598.63,287.67Z"/><path class="f" d="M556,477.56s6.51-2.24,2.72-5.16c-3.46-2.67-4.33,3.88-4.33,3.88Z"/><path class="f" d="M555.32,479.47s5.15,4.56,5.83-.17c.62-4.33-5.51-1.86-5.51-1.86Z"/><path class="f" d="M553.27,478.73s-2.75,6.31,2,5.5c4.31-.74.07-5.81.07-5.81Z"/><path class="f" d="M554,479.3s-5.46,4.19-5.81-.58c-.31-4.36,5.62-1.47,5.62-1.47Z"/><path class="f" d="M552.72,477.45s-5.66-3.91-1.23-5.71c4-1.64,3.13,4.9,3.13,4.9Z"/><path class="g" d="M556.72,478.82a2.34,2.34,0,1,0-3.28.4A2.35,2.35,0,0,0,556.72,478.82Z"/><path class="f" d="M442.41,497s4.33-5.35-.42-5.83c-4.35-.44-1.63,5.58-1.63,5.58Z"/><path class="f" d="M442.86,499s6.78,1.15,4.86-3.23c-1.76-4-5.66,1.33-5.66,1.33Z"/><path class="f" d="M440.73,499.41s1,6.8,4.57,3.62c3.26-2.9-3-5-3-5Z"/><path class="f" d="M441.65,499.51s-2.43,6.43-5.24,2.57c-2.57-3.54,4-4.22,4-4.22Z"/><path class="f" d="M439.59,498.6s-6.88-.33-4.07-4.19c2.57-3.53,5.25,2.5,5.25,2.5Z"/><path class="g" d="M443.7,497.66a2.33,2.33,0,1,0-2.57,2.06A2.34,2.34,0,0,0,443.7,497.66Z"/><path class="f" d="M343.74,598.68s1.87-6.62-2.69-5.19c-4.16,1.32.71,5.77.71,5.77Z"/><path class="f" d="M344.93,600.31s6.68-1.63,3.19-4.89c-3.2-3-4.67,3.46-4.67,3.46Z"/><path class="f" d="M343.15,601.57s3.61,5.85,5.63,1.52c1.85-4-4.72-3.37-4.72-3.37Z"/><path class="f" d="M344,601.29s.32,6.87-3.79,4.43c-3.76-2.22,2-5.45,2-5.45Z"/><path class="f" d="M341.79,601.28s-6.45,2.41-5.39-2.25c1-4.26,5.8.23,5.8.23Z"/><path class="g" d="M345.2,598.78a2.34,2.34,0,1,0-1.55,2.92A2.34,2.34,0,0,0,345.2,598.78Z"/><path class="f" d="M323.78,592.32s-2.86-6.26-5.4-2.22c-2.33,3.7,4.27,3.94,4.27,3.94Z"/><path class="f" d="M325.74,592.8s4-5.57-.73-5.79c-4.36-.21-1.33,5.65-1.33,5.65Z"/><path class="f" d="M325.2,594.91s6.53,2.13,5.28-2.48c-1.15-4.21-5.79.48-5.79.48Z"/><path class="f" d="M325.69,594.12s4.69,5,0,5.84c-4.3.73-2-5.46-2-5.46Z"/><path class="f" d="M324,595.57s-3.36,6-5.57,1.77c-2-3.88,4.58-3.58,4.58-3.58Z"/><path class="g" d="M325,591.46a2.33,2.33,0,1,0,.71,3.22A2.34,2.34,0,0,0,325,591.46Z"/><path class="f" d="M282.41,427s-2.85-6.26-5.4-2.22c-2.33,3.7,4.27,3.95,4.27,3.95Z"/><path class="f" d="M284.38,427.51s4-5.57-.73-5.79c-4.36-.21-1.33,5.65-1.33,5.65Z"/><path class="f" d="M283.83,429.62s6.54,2.13,5.28-2.48c-1.14-4.21-5.78.48-5.78.48Z"/><path class="f" d="M284.33,428.84s4.68,5,0,5.83c-4.31.73-2-5.46-2-5.46Z"/><path class="f" d="M282.6,430.28s-3.35,6-5.56,1.77c-2-3.87,4.58-3.58,4.58-3.58Z"/><path class="g" d="M283.59,426.17a2.33,2.33,0,1,0,.71,3.23A2.35,2.35,0,0,0,283.59,426.17Z"/><path class="f" d="M560.14,313.26s-4.87-4.87-5.84-.19c-.89,4.28,5.38,2.2,5.38,2.2Z"/><path class="f" d="M562.14,313s1.85-6.63-2.7-5.17c-4.17,1.33.73,5.76.73,5.76Z"/><path class="f" d="M562.37,315.19s6.87-.29,4.08-4.17c-2.54-3.55-5.25,2.47-5.25,2.47Z"/><path class="f" d="M562.56,314.28s6.15,3.09,2,5.48c-3.78,2.18-3.78-4.42-3.78-4.42Z"/><path class="f" d="M561.45,316.24s-1,6.8-4.59,3.6c-3.25-2.92,3-4.95,3-4.95Z"/><path class="g" d="M560.94,312a2.34,2.34,0,1,0,1.79,2.78A2.35,2.35,0,0,0,560.94,312Z"/><path class="f" d="M356,307.33s-6.88-.14-4.33,3.91c2.32,3.69,5.4-2.15,5.4-2.15Z"/><path class="f" d="M357.25,305.76s-3.27-6.05-5.54-1.84c-2.07,3.84,4.53,3.64,4.53,3.64Z"/><path class="f" d="M358.92,307.16s4.75-5,0-5.83c-4.29-.79-2.06,5.43-2.06,5.43Z"/><path class="f" d="M358.43,306.37s6.57-2,5.24,2.55c-1.2,4.2-5.78-.56-5.78-.56Z"/><path class="f" d="M359,308.56s4,5.62-.81,5.78c-4.36.15-1.25-5.67-1.25-5.67Z"/><path class="g" d="M355.7,305.89a2.34,2.34,0,1,0,3.22.76A2.34,2.34,0,0,0,355.7,305.89Z"/><path class="f" d="M447.48,464.52s-1.92-6.61-5-3c-2.83,3.32,3.67,4.51,3.67,4.51Z"/><path class="f" d="M449.36,465.27s4.8-4.93.1-5.84c-4.28-.83-2.12,5.41-2.12,5.41Z"/><path class="f" d="M448.52,467.28s6.16,3.05,5.58-1.7c-.53-4.33-5.8-.35-5.8-.35Z"/><path class="f" d="M449.12,466.58s3.91,5.65-.86,5.77c-4.37.1-1.2-5.69-1.2-5.69Z"/><path class="f" d="M447.2,467.76s-4.18,5.46-5.76.95c-1.44-4.12,5.05-2.88,5.05-2.88Z"/><path class="g" d="M448.77,463.83a2.33,2.33,0,1,0,.24,3.29A2.34,2.34,0,0,0,448.77,463.83Z"/></svg>