<svg xmlns="http://www.w3.org/2000/svg" xmlns:xlink="http://www.w3.org/1999/xlink" viewBox="0 0 500 500"><defs><style>.a{isolation:isolate;}.b,.g,.v{fill:none;stroke-miterlimit:10;}.b{stroke:#b8ad97;}.b,.v{stroke-width:2px;}.c{fill:#fff;}.d{fill:#9c98a0;}.e{fill:url(#a);}.f{fill:url(#b);}.g{stroke:#fff;}.h{fill:#00a4e5;mix-blend-mode:overlay;}.h,.m,.p{opacity:0.5;}.i{fill:url(#c);}.j{opacity:0.6;fill:url(#d);}.k{fill:#b2b2b2;}.l,.o{opacity:0.8;}.l{fill:url(#e);}.m{fill:url(#f);}.n{opacity:0.7;}.o{fill:url(#g);}.p{fill:url(#h);}.q{fill:#5ab18d;}.r{fill:#f0cb46;}.s{fill:#ce95cc;}.t{fill:#c2f1f2;}.u{fill:#e08b44;}.v{stroke:#b2b2b2;}</style><linearGradient id="a" x1="196.55" y1="561.14" x2="307.45" y2="-67.81" gradientUnits="userSpaceOnUse"><stop offset="0" stop-color="#201600"/><stop offset="0.48" stop-color="#362f20" stop-opacity="0.6"/><stop offset="1" stop-color="#585551" stop-opacity="0"/></linearGradient><linearGradient id="b" x1="444.85" y1="580.69" x2="59.15" y2="-87.35" gradientUnits="userSpaceOnUse"><stop offset="0.28" stop-color="#291d10" stop-opacity="0.4"/><stop offset="0.39" stop-color="#4b463f" stop-opacity="0.11"/><stop offset="0.49" stop-color="#585551" stop-opacity="0"/><stop offset="0.64" stop-color="#241d37" stop-opacity="0.26"/><stop offset="0.79" stop-color="#09002a" stop-opacity="0.4"/></linearGradient><linearGradient id="c" x1="-58" y1="584.34" x2="558" y2="584.34" gradientUnits="userSpaceOnUse"><stop offset="0" stop-color="#1a1a25"/><stop offset="1" stop-color="#a8a7a7" stop-opacity="0"/></linearGradient><linearGradient id="d" x1="14.06" y1="386.37" x2="485.95" y2="782.33" gradientUnits="userSpaceOnUse"><stop offset="0" stop-color="#fff"/><stop offset="0.02" stop-color="#f5f5f5" stop-opacity="0.96"/><stop offset="0.18" stop-color="#b5b5b5" stop-opacity="0.71"/><stop offset="0.34" stop-color="#7e7e7e" stop-opacity="0.49"/><stop offset="0.49" stop-color="#515151" stop-opacity="0.32"/><stop offset="0.64" stop-color="#2e2e2e" stop-opacity="0.18"/><stop offset="0.78" stop-color="#141414" stop-opacity="0.08"/><stop offset="0.9" stop-color="#050505" stop-opacity="0.02"/><stop offset="1" stop-opacity="0"/></linearGradient><linearGradient id="e" x1="268.96" y1="373.68" x2="254.09" y2="365.09" gradientUnits="userSpaceOnUse"><stop offset="0" stop-color="#585551" stop-opacity="0"/><stop offset="0.15" stop-color="#5a5753" stop-opacity="0.01"/><stop offset="0.28" stop-color="#615e5b" stop-opacity="0.05"/><stop offset="0.4" stop-color="#6d6a67" stop-opacity="0.12"/><stop offset="0.52" stop-color="#7d7b78" stop-opacity="0.22"/><stop offset="0.63" stop-color="#92908e" stop-opacity="0.35"/><stop offset="0.74" stop-color="#acaba9" stop-opacity="0.51"/><stop offset="0.85" stop-color="#cbcac9" stop-opacity="0.69"/><stop offset="0.95" stop-color="#eeeeed" stop-opacity="0.9"/><stop offset="1" stop-color="#fff"/></linearGradient><linearGradient id="f" x1="267.42" y1="365.08" x2="252.6" y2="373.64" gradientUnits="userSpaceOnUse"><stop offset="0" stop-color="#fff"/><stop offset="0.24" stop-color="#d5d4d3" stop-opacity="0.75"/><stop offset="0.77" stop-color="#7c7976" stop-opacity="0.21"/><stop offset="1" stop-color="#585551" stop-opacity="0"/></linearGradient><linearGradient id="g" x1="258.71" y1="370.42" x2="254.55" y2="368.02" gradientTransform="matrix(0.98, -0.19, 0.19, 0.98, -64.42, 51.55)" gradientUnits="userSpaceOnUse"><stop offset="0" stop-color="#585551" stop-opacity="0"/><stop offset="0.37" stop-color="#524e48" stop-opacity="0.11"/><stop offset="0.69" stop-color="#403a2e" stop-opacity="0.44"/><stop offset="1" stop-color="#211701" stop-opacity="0.99"/><stop offset="1" stop-color="#201600"/></linearGradient><linearGradient id="h" x1="259.42" y1="367.78" x2="253.93" y2="370.95" gradientTransform="matrix(0.98, -0.19, 0.19, 0.98, -64.42, 51.55)" gradientUnits="userSpaceOnUse"><stop offset="0" stop-color="#201600"/><stop offset="1" stop-color="#585551" stop-opacity="0"/></linearGradient></defs><g class="a"><line class="b" x1="133.33" y1="384" x2="280" y2="384.33"/><path class="c" d="M311.38,94.24c-.12,9.37.93,8-5.38,8.76,5.69.56,7,.5,7.1,7.67.81-6.72,0-7,5.86-8C313,102.75,312,104.07,311.38,94.24Z"/><path class="c" d="M246.89,88c-.06,5,.5,4.32-2.9,4.72,3.06.3,3.77.27,3.83,4.13.43-3.62,0-3.74,3.15-4.3C247.75,92.61,247.2,93.32,246.89,88Z"/><path class="c" d="M413.38,27.24c-.12,9.37.93,8-5.38,8.76,5.69.56,7,.5,7.1,7.67.81-6.72,0-7,5.86-8C415,35.75,414,37.07,413.38,27.24Z"/><path class="c" d="M467.15,187.19c-2.1,9.13-.79,8-7.12,7.42,5.44,1.76,6.74,2,5.31,9,2.22-6.4,1.48-6.79,7.43-6.56C466.92,195.85,465.62,196.92,467.15,187.19Z"/><path class="c" d="M431.38,123.24c-.12,9.37.93,8-5.38,8.76,5.69.56,7,.5,7.1,7.67.81-6.72,0-6.95,5.86-8C433,131.75,432,133.07,431.38,123.24Z"/><path class="c" d="M299.41,179.54c1.84,3.6,2,2.87-.3,4.42,2.29-.92,2.78-1.2,4.26,1.52-1-2.74-1.39-2.66.63-4.23C301.74,182.47,301.6,183.18,299.41,179.54Z"/><path class="c" d="M378.67,74c-.88,4.44-.19,3.9-3.7,3.62,3,.84,3.77.94,3.2,4.36,1-3.11.61-3.3,3.9-3.21C378.8,78.15,378.12,78.68,378.67,74Z"/><path class="c" d="M268.58,28.76c1.35,5.56,1.77,4.6-1.86,6,3.46-.53,4.23-.76,5.37,3.47-.54-4.1-1-4.12,2.26-5.62C270.83,33.55,270.41,34.49,268.58,28.76Z"/><rect class="d" x="-50" y="-24.33" width="604" height="542"/><rect class="e" x="-50" y="-24.33" width="604" height="542"/><rect class="f" x="-50" y="-24.33" width="604" height="542"/><rect class="g" x="-50" y="-24.33" width="604" height="542"/><path class="h" d="M223.21,277.52Q225,257.5,225,237C225-13.37,22-216.33-228.33-216.33S-681.67-13.37-681.67,237s203,453.33,453.34,453.33A452,452,0,0,0-50.1,654,308.82,308.82,0,0,1-58,584.34C-58,423.27,65.65,291.09,223.21,277.52Z"/><path class="i" d="M250,276.34c-9,0-18,.41-26.79,1.18C65.65,291.09-58,423.27-58,584.34A308.82,308.82,0,0,0-50.1,654C-18.55,790.53,103.83,892.34,250,892.34c170.1,0,308-137.89,308-308S420.1,276.34,250,276.34Z"/><path class="j" d="M250,276.34c-9,0-18,.41-26.79,1.18C65.65,291.09-58,423.27-58,584.34A308.82,308.82,0,0,0-50.1,654C-18.55,790.53,103.83,892.34,250,892.34c170.1,0,308-137.89,308-308S420.1,276.34,250,276.34Z"/><path class="k" d="M350.33,500S333,469.67,289.67,460.33s-40.51-15.84-39.34-32.66,1.64-16.26-7.33-25.5c-5.5-5.67-14.67-10.67-14.67-10.67h3.92c9.8,3.38,29.75,13,31.75,20.75,2.17,8.42-1.67,24.08,7,25.42s48.13,5.13,64,8c15.26,2.75,46.78,11.29,58,22,6.28,6,28.25,32.33,28.25,32.33Z"/><path class="l" d="M270.25,371.45s-1.54-9.1-9.63-9.1c-7.83,0-9.29,9.1-9.29,9.1Z"/><path class="m" d="M270.25,371.45s-1.54-9.1-9.63-9.1c-7.83,0-9.29,9.1-9.29,9.1Z"/><g class="n"><path class="o" d="M259.9,365.14c.28-1.65-1.4-2.43-3.92-.47-2.91,2.26-1.62,3.74.34,3.49A4.15,4.15,0,0,0,259.9,365.14Z"/><path class="p" d="M259.9,365.14c.28-1.65-1.4-2.43-3.92-.47-2.91,2.26-1.62,3.74.34,3.49A4.15,4.15,0,0,0,259.9,365.14Z"/></g><path class="q" d="M274.7,380.77a3.48,3.48,0,0,0-3.47-3.47H250.35a3.47,3.47,0,0,0-3.46,3.47h0a3.46,3.46,0,0,0,3.46,3.47h20.88a3.47,3.47,0,0,0,3.47-3.47Z"/><path class="r" d="M277.17,375a3.91,3.91,0,0,0-4.09-3.69H248.5a3.91,3.91,0,0,0-4.08,3.69h0a3.9,3.9,0,0,0,4.08,3.69h24.58a3.9,3.9,0,0,0,4.09-3.69Z"/><path class="s" d="M181.69,384s.64.58,26.14.25c-.31-7.36,1.79-18.58,2.17-24.71-9,.13-35.26,9.4-58.25,9.75-6,4.32-9.58,14.79-9.58,14.79Z"/><path class="t" d="M138.17,383.9h9.33s1-1.63,24-32.88c-.2-2.32-33.33-7.46-33.33-7.46Z"/><path class="u" d="M149,353.21c-.91.19,0-1.56.63-2.19s1.4-.91,1.4-.31-.15.66-1.5,1.41C149,352.43,149.32,353.15,149,353.21Z"/><path class="u" d="M152.47,358.36a2.65,2.65,0,0,1,1.67-2.5,5.81,5.81,0,1,0,0,5A2.64,2.64,0,0,1,152.47,358.36Z"/><line class="v" x1="133.33" y1="384" x2="280" y2="384.33"/><path class="c" d="M311.38,94.24c-.12,9.37.93,8-5.38,8.76,5.69.56,7,.5,7.1,7.67.81-6.72,0-7,5.86-8C313,102.75,312,104.07,311.38,94.24Z"/><path class="c" d="M246.89,88c-.06,5,.5,4.32-2.9,4.72,3.06.3,3.77.27,3.83,4.13.43-3.62,0-3.74,3.15-4.3C247.75,92.61,247.2,93.32,246.89,88Z"/><path class="c" d="M413.38,27.24c-.12,9.37.93,8-5.38,8.76,5.69.56,7,.5,7.1,7.67.81-6.72,0-7,5.86-8C415,35.75,414,37.07,413.38,27.24Z"/><path class="c" d="M467.15,187.19c-2.1,9.13-.79,8-7.12,7.42,5.44,1.76,6.74,2,5.31,9,2.22-6.4,1.48-6.79,7.43-6.56C466.92,195.85,465.62,196.92,467.15,187.19Z"/><path class="c" d="M431.38,123.24c-.12,9.37.93,8-5.38,8.76,5.69.56,7,.5,7.1,7.67.81-6.72,0-6.95,5.86-8C433,131.75,432,133.07,431.38,123.24Z"/><path class="c" d="M299.41,179.54c1.84,3.6,2,2.87-.3,4.42,2.29-.92,2.78-1.2,4.26,1.52-1-2.74-1.39-2.66.63-4.23C301.74,182.47,301.6,183.18,299.41,179.54Z"/><path class="c" d="M378.67,74c-.88,4.44-.19,3.9-3.7,3.62,3,.84,3.77.94,3.2,4.36,1-3.11.61-3.3,3.9-3.21C378.8,78.15,378.12,78.68,378.67,74Z"/><path class="c" d="M268.58,28.76c1.35,5.56,1.77,4.6-1.86,6,3.46-.53,4.23-.76,5.37,3.47-.54-4.1-1-4.12,2.26-5.62C270.83,33.55,270.41,34.49,268.58,28.76Z"/></g></svg>