<svg xmlns="http://www.w3.org/2000/svg" xmlns:xlink="http://www.w3.org/1999/xlink" viewBox="0 0 700 700"><defs><style>.a{isolation:isolate;}.b{fill:url(#a);}.c{fill:url(#b);}.d{fill:#c35a3d;}.e{fill:url(#c);}.f,.n,.o{fill:#e79975;}.g,.h,.i,.m{fill:#e38163;}.g{opacity:0.71;}.h,.o{opacity:0.68;}.i{opacity:0.47;}.j{fill:#e17445;}.k{fill:#e38461;}.l{fill:#ecb8a3;opacity:0.42;}.m{opacity:0.56;}.n,.o{mix-blend-mode:multiply;}.n{opacity:0.33;}.p{fill:url(#d);}.q{fill:url(#e);}.r{fill:#6d4f49;}.s{fill:#fafca6;}.t{fill:#937c4a;}.u{fill:#1d1a18;}.v{fill:#151a1e;}.w{fill:#2e2c2e;}.x{fill:#3b3225;}.y{fill:#120600;}.z{fill:#151515;}.aa{fill:#695b5b;}.ab{fill:#6b4c3e;}.ac{fill:#704d40;}.ad{fill:#67442e;}.ae{fill:#bd8665;}.af{fill:#624843;}.ag{fill:#6c432a;}.ah{fill:#d59b58;}.ai{fill:#43341d;}.aj{fill:#393324;}.ak{fill:#563730;}.al{fill:#97603d;}.am{fill:#2b2219;}.an{fill:#9a847b;}.ao{fill:#402d26;}.ap{fill:#37291e;}.aq{fill:#070504;}.ar{fill:#453b3f;}.as{fill:#f4f691;}.at{fill:#fafabe;}.au{fill:#271c11;}.av{fill:#855b41;}.aw{fill:#15110b;}.ax{fill:#5d4233;}.ay{fill:#412d2e;}.az{fill:#25201f;}.ba{fill:#3f2f26;}.bb{fill:#221e1c;}.bc{fill:#633e2b;}.bd{fill:#36383f;}.be{fill:#151619;}.bf{fill:#303335;}.bg{fill:#444257;}.bh{fill:#aaae70;}.bi{fill:#e6e987;}.bj{fill:#4b3f37;}.bk{fill:#7c7880;}.bl{fill:#2d231f;}.bm{fill:#fef6b5;}.bn{fill:#393737;}.bo{fill:#76737c;}.bp{fill:#58332b;}.bq{fill:#9a713c;}.br{fill:#e7e386;}.bs{fill:#2c2528;}.bt{fill:#3d3025;}.bu{fill:#55515b;}.bv{fill:#464553;}.bw{fill:#67616f;}.bx{fill:#78777a;}.by{fill:#34343c;}.bz{fill:#2f2e34;}.ca{fill:#58382c;}.cb{fill:#444a48;}.cc{fill:#5f6061;}.cd{fill:#a9784e;}.ce{fill:#75482f;}.cf{fill:#f8eb92;}.cg{fill:#fde891;}.ch{fill:#3b2d2e;}.ci{fill:#695951;}.cj{fill:#a66f42;}.ck{fill:#cfa563;}.cl{fill:#77482a;}.cm{fill:#070707;}.cn{fill:#fffc9c;}.co{fill:#ff7900;}.cp{fill:#020202;}.cq{fill:#fffbae;}.cr{fill:#f8fbaf;}.cs{fill:#826b62;}.ct{fill:#917145;}.cu{fill:#131918;}.cv{fill:#3d3d49;}.cw{fill:#4a3739;}.cx{fill:#342125;}.cy{fill:#544756;}.cz{fill:#2f2b30;}.da{fill:#e4e592;}.db{fill:#3f3e39;}.dc{fill:#151919;}.dd{fill:#27282e;}.de{fill:#834f41;}.df{fill:#e4e48e;}.dg{fill:#c3c97b;}.dh{fill:#24231f;}.di{fill:#5a575f;}.dj{fill:#3c3531;}.dk{fill:#080301;}.dl{fill:#f8c48a;}.dm{fill:#524f62;}.dn{fill:#50505e;}.do{fill:#874c42;}.dp{fill:#232325;}.dq{fill:#814f47;}.dr{fill:#532a24;}.ds{fill:#404960;}.dt{fill:#7c5857;}.du{fill:#7a5a3e;}.dv{fill:#f5f5ad;}.dw{fill:#242424;}.dx{fill:#715153;}.dy{fill:#695357;}.dz{fill:#675457;}.ea{fill:#3b3b3b;}.eb{fill:#3d3d3f;}.ec{fill:#454448;}.ed{fill:#2b2c34;}.ee{fill:#556087;}.ef{fill:#4b454b;}.eg{fill:#2f2526;}.eh{fill:#4e4e59;}.ei{fill:#fffe9e;}.ej{fill:#46434c;}.ek{fill:#433f44;}.el{fill:#4a474e;}.em{fill:#6c6c79;}.en{fill:#3b2f30;}.eo{fill:#3e3c43;}.ep{fill:#ffffc5;}.eq{fill:#514d5a;}.er{fill:#1e2022;}.es{fill:#fdfec6;}.et{fill:#694238;}.eu{fill:#fffebb;}.ev{fill:#9d5e47;}.ew{fill:#a86043;}.ex{fill:#543029;}.ey{fill:#242630;}.ez{fill:#1a1b1f;}.fa{fill:#4e4e63;}.fb{fill:#6d7158;}.fc{fill:#6c684a;}.fd{fill:#805b52;}.fe{fill:#3d2f2b;}.ff{fill:#7a4e44;}.fg{fill:#59342c;}.fh{fill:#5b302f;}.fi{fill:#171714;}.fj{fill:#1d1f29;}.fk{fill:#23282b;}.fl{fill:#c1c17c;}.fm{fill:#464858;}.fn{fill:#fdffb2;}.fo{fill:#fef7ac;}.fp{fill:#bba39a;}.fq{fill:#453f46;}.fr{fill:#a17753;}.fs{fill:#fdff92;}.ft{fill:#423c41;}.fu{fill:#8c8584;}.fv{fill:#fffeb3;}.fw{fill:#fbe2ad;}.fx{fill:#fdfdf8;}.fy{fill:#f3b761;}.fz{fill:#79533d;}.ga{fill:#fcd6ae;}.gb{fill:#744733;}.gc{fill:#4a3334;}.gd{fill:#cda384;}.ge{fill:#bf8764;}.gf{fill:#533f33;}.gg{fill:#9a7e5d;}.gh{fill:#be8c9a;}.gi{fill:#7e748c;}.gj{fill:#9e96a6;}.gk{fill:#705f5c;}.gl{fill:#7c4c48;}.gm{fill:#cb6d1c;}.gn{fill:#7d4637;}.go{fill:#59362c;}.gp{fill:#5b3627;}.gq{fill:#806d64;}.gr{fill:#573f21;}.gs{fill:#694c32;}.gt{fill:#3b312e;}.gu{fill:#7e5628;}.gv,.gw{fill:none;}.gv,.gw,.gy{stroke:#000;stroke-miterlimit:10;}.gv{stroke-width:2px;}.gw,.gy{stroke-width:3px;}.gx{fill:#000105;}.gz{fill:#2b2522;}.ha{fill:#282828;}</style><linearGradient id="a" x1="349.09" y1="631.12" x2="351.99" y2="-555.01" gradientUnits="userSpaceOnUse"><stop offset="0" stop-color="#fdfffc"/><stop offset="0.25" stop-color="#f9ede0"/><stop offset="0.35" stop-color="#f7e6d4"/><stop offset="0.55" stop-color="#f3d3b3"/><stop offset="0.81" stop-color="#ecb57e"/><stop offset="0.84" stop-color="#ebb176"/></linearGradient><linearGradient id="b" x1="345.66" y1="453.52" x2="353.25" y2="250.08" gradientUnits="userSpaceOnUse"><stop offset="0.3" stop-color="#f1cba3"/><stop offset="0.5" stop-color="#f0c59c"/><stop offset="0.8" stop-color="#ecb487"/><stop offset="1" stop-color="#e9a576"/></linearGradient><linearGradient id="c" x1="362.07" y1="377.59" x2="332.25" y2="902.82" gradientUnits="userSpaceOnUse"><stop offset="0.1" stop-color="#e79975"/><stop offset="0.27" stop-color="#e1926e"/><stop offset="0.53" stop-color="#d17d5a"/><stop offset="0.84" stop-color="#b65c3a"/><stop offset="1" stop-color="#a64827"/></linearGradient><linearGradient id="d" x1="304.48" y1="525.11" x2="313.12" y2="525.11" gradientUnits="userSpaceOnUse"><stop offset="0" stop-color="#fdfffc"/><stop offset="0.89" stop-color="#ebb176"/></linearGradient><linearGradient id="e" x1="329.68" y1="485.56" x2="334.62" y2="485.56" xlink:href="#d"/></defs><g class="a"><rect class="b" x="-189.29" y="-562.34" width="1079.79" height="1149.32"/><path class="c" d="M-12.84,282.51l75.37-31.1L84.17,261l39.52-12.4,20.2,11s29.4,9.18,31.36,8,19.26,0,19.26,0l24.43,13.6s50.55-19.86,72.08-30.4S333,270.8,344.87,273.56s12.5-21.4,12.5-21.4l8.51-3.61,23.22-13.9,21.52-1.4h11l17.93,21.33s2.63,22.74,9.27,16.57,11.77-3.6,11.77-3.6h20.42l6.51-5.83c8.43-7.56,19.8-9.29,29.58-4.32a159.76,159.76,0,0,1,17.06,10.15l82.21,6,19.47-22.81H646.7L651,276l26-2.42,19.44,17.11L708,302.19l39.43-11.52L763.74,306l17.16-32.38,28.6-2.42,23.74,19.92,20.9-25.44,13.31,12.63,23.11-26.07V353.06L-189.35,338.42V289l45.72-34.8,24.75,18,23.73-4.76,26.4,18.24,19.91-11Z"/><path class="d" d="M670.66,324.87l-2.33,1.8-.91.71v-1.95Z"/><path class="d" d="M707.29,338.78l-2.37,6-2.87,6.07h-5l-3.6.66-5,3.91v-8.66l-3.69-2.13h-4.24v14.31H673.2l-3.62,4.62v-4.62l3.62-8.09V340.31l-4.32-5L666,325.69l.54-.1.92-.16,3.24-.56-2.33,1.8,2.8,1.38L674.7,331l3.13,4,5.37,3.33H694l3.53,5.11h5.37s.45-4.38,2.24-4.38A15.51,15.51,0,0,0,707.29,338.78Z"/><polygon class="e" points="889.99 433.69 889.99 736.74 -189.91 736.74 -189.91 442.33 889.99 433.69"/><polygon class="f" points="709.68 381.07 -11.54 383.22 33.84 338.03 61.97 336.46 111.73 349.15 135.53 338.03 191.79 336.46 220.19 327.75 230.72 312.94 246.49 312.94 273.24 289.71 284.64 289.71 295.18 292.83 303.65 292.83 314.06 303.79 326.64 303.79 335.79 313.87 349.07 320.51 354.53 323.23 364.44 313.87 373.32 313.87 381.85 303.79 385.05 299.82 385.08 299.79 390.69 292.83 399.3 292.83 409.7 289.71 442.3 300.24 446.6 301.63 462.23 312.94 465.09 313.63 465.1 313.63 493.38 320.39 503.66 313.09 511.2 320.44 529.29 338.03 583.38 357.79 605.02 366.43 659.11 366.43 709.68 381.07"/><path class="g" d="M511.2,320.44l-.05,1.22-2.41,5.76-2.89,4.29s-2.88,3.88-4.32,4.75-5.28,3.92-5.28,3.92l-6.74,3.51-6.25,8a15.69,15.69,0,0,0-4.81,0c-1.92.46-8.41,2.91-8.41,2.91l-3.59,3.73V339.9s1.9-3.84,3.59-5.28a1.84,1.84,0,0,0,0-2.91h-5l-3-5.73,3-4.79v-7.56h0l28.28,6.76,10.28-7.3Z"/><path class="h" d="M373.2,370.6l10.25-6.7,3.37-12,7.38-2.67s-4.26-4.66-4.26-5.3,4.26-2.8,4.26-2.8v-4.64l-4.26-4.74-.72-5.74s6.35-1.44,5,0-2.57,6.44.19,5.74a13.32,13.32,0,0,1,5.65,0V343.9l5,5.12s5.05,2.16,7.21,2.16c1.9,0,8.23,8.3,9.76,10.35a.3.3,0,0,0,.52-.09c.81-2.36,3.87-11.87,2-13.47a9.92,9.92,0,0,1-2.88-4.07l3.26-7.44s-6.15.28-6.15-4.74-.72-11.5-.72-11.5,5.8,5.76,6.87,7.2,3.23,4.3,3.23,4.3l3.6,4.74v9l4.66,5,4,1.53,6.22,13.1,2.43-14.54-6.49-6.56,6.49-3.52v-8.66l-3.6-11.5s7.21-6.83,3.6-3.42l5.05,14.92V343.9l9.38,8,14,3-2.22-15.45,15.63,15.36-4.33,11.36-6.39,11.6L418.07,387.9l-78.71,5.48Z"/><path class="i" d="M324.35,387.9l-20.19-4.68-4-8,5.89-4.66,1.68-8.86,7.93-5.76,8.66-19.52s-2.16,21.46-2.89,22.05,2.89,3.67,2.89,3.67h5l4.33,4.84,10-1.26,5.78-1.41,7.4,16.27-12.34,15.2Z"/><path class="i" d="M352.32,346.14l10.25,20-13.5-17.61-8.85-.95-4.33,2.16-5.77-.72.72-5.76.72-6.8a4.1,4.1,0,0,0,2.17-3.28v-8.64l-7.22,3.6v-9.36l-5.77-1.44s-6.49,2.85-6.49,5-1.44,7.21-1.44,7.21l-2.16,3.6-2.89,3.28h-3.6a52.27,52.27,0,0,0-5.77,9.44L291.67,353l0,9-7.34,4.49-13.59,4.13-51-16.54-7.21-17.6L227,330.3l5.05,3.08h6.49a6.07,6.07,0,0,0,4.33,0c2.16-.92,8.44,0,8.44,0V330.3l3.82-4.32h4.33l6.49,5.24,4.79-2.36,4.59-6.48v-4.32h13V312.3h9.37v-9.44l6-10,10.42,11h12.57l9.15,10.08,13.28,6.64v9.79L346,336.46l3.08,3.2Z"/><path class="j" d="M553,433.84H-11.54l-178.37,2.49V307.94l22.92,5.52L-148.27,324l24.48.72,9.84,8.4,9.35-2.16,16.8,3.12,14.88,1,25.44-3.12,24.24,5.28,11.7-4.16s6.77.7,9.93,0,5.78-4.24,7.35-5S11,330.73,11,330.73L15.2,328l2.63-7,2.11-5.65h4.19l3.16-7.06L32,302.68l5.79-4.24H53.05l4.2,4.94L63.56,302l4.73-.69h6.3l3.69,2.82,7.36-1.42,9.46,1.42,6.82,6.37,15.25,5.44,3.16,3,7.88,2.82,6.89-.7,4.14,7.77,5.38-1.12,1.46-.3,5.25-2.81,6.32-4.26,2.62-4.42h6.84l7.35-3.34,4.2-3.53,6.31-2.1,5.26-1.41,5.25,10.38h3.68l4.73,4.42,3.16,4.26,5.25,2.1,4.21,2.84,3.68,3.83,6.3,3.21h12.68l4.14,4.95h6.31s.53-4.23,2.62-4.23,4.21-.72,5.79,0,2.62,4.23,2.62,4.23,2.64,4.24,4.21,4.24h8.93v5.66h6.84l3.68,4.95V362s4.73,3.53,7.35,3.53,5.27,2.81,5.27,2.81l4.73,3.53s3.68,2.13,5.25,2.85,8.41,0,8.41,0l2.48-2,6.45-5.13h10l4.72,3,17.92,10,7.6,4.24s5.81.4,7.15,0l3.49-10.72,8.53-7.9h5.78l5.77-2.13,2.64-2.81,5.25,4.94,5.83.63.48.06,5.78,3.54L422,375h13.14s1.57,3.22,3.14,3.94S553,433.84,553,433.84Z"/><path class="k" d="M53.8,302l-.4,8.32-5.24,10.29L39,326.28l1.27,6.09-4.85,5.3.36,8.61-7.06,1.46-8.47,1.75L21.82,357l-8,4.08,2.45,11.83-8.43,9-19.39,51.95-83.22,1.29,20.88-13.68L-58.76,397l23-16.56,10.8-20.16,8.64-3.6,7.92-16.56s5.52-2.85,8.68-3.55,5.78-4.24,7.35-4.94,5.27,2.62,5.27,2.62l4.2-2.72,2.62-7,2.11-5.66h4.19l3.16-7.05L34,306.18,39.74,302H53.8Z"/><path class="k" d="M144.62,332.17l-.84,5.63s-4.78,1.86-8.25.23-4.47,5.43-4.47,5.43-4.33,2.68-5,5.06-9.37,10-9.37,10h-9.38l-5.05,4.19-7.93,3.44s-4.33,5.92-6.49,5.05-3.61,6.54-3.61,6.54H75.53L69,383l-6.49.25H51.87v12.6l-16,7.2,3.61-7.91,5-11.89v-5.49l7.36-2.79,2.74-4.34,10.1-4.46h9.37l6.5-7.63,10.81-6.64,7.27-.53s10.45-9.42,10.45-13.54,6.08-2.21,6.08-2.21L108,323.1,95.1,308.57l6.82,6.35,15.25,5.46,3.16,3,7.88,2.84,6.89-.71,4.14,7.76Z"/><path class="j" d="M890,344.9v93.59l-295.18-.2H368.45l-11.07-4.45-84.74-34.07L268.19,398l-16.9-6.79s7.17-3.39,8.51-3.8a7.18,7.18,0,0,0,2.69-2.35h11.17l5.82-2.71,4.91-2.13,5.39-.42,4.46-3,2.25,1.7,4.91,1.26h4.92l2,1.29,6.09,4,4.94-3.15h5.8l4-1.26,6.27-4.65,4.91.84,2.67,1.7s4.05,2.11,5.39,2.11h8.49l7.61,4.24s5.81.4,7.15,0,4.49-1.72,4.49-1.72l4-2.1a8.79,8.79,0,0,1,4.48-1.68c2.23,0,6.25-2.12,6.25-2.12v-3.37l3.14-3h5.82v-3.38h7.6a2.84,2.84,0,0,0,1.5-.65A12.68,12.68,0,0,0,411,365s.9-2.11,2.23-2.54,3.14,0,4.93,0S420.4,365,420.4,365h5.37l3.53-2.95h10.8l5.35-1.93,3.14-2.31,3.57-1.68,4.48-1.27,2.68-2.53,4-2.65h3.14l4.46-6.21,4.48.82,1.1.26,2.13.5v-9.47s.82.1,2,.2a22.57,22.57,0,0,0,6.45-.2c2.69-.72,4.92-4.36,6.26-5.11s4.48,2.73,4.48,2.73l3.57-2.83,2.23-7.2,1.8-5.85H509l2.7-7.3,4-5.84,4.92-4.39h13l3.59,5.11,5.37-1.46,4-.73H552l3.14,2.92,6.26-1.45,8,1.45,4.42,5h0l1.38,1.57,13,5.65L590.9,321l6.71,2.92,5.87-.73,3.53,8.05,5.82-1.49,4.47-2.92,5.36-4.38,2.23-4.57h5.83L637,314.4l3.57-3.66,5.37-2.19.31-.1,4.17-1.34,4.46,10.75H658l4,4.57,2.52,4.12.16.26.78.38.9.44,2.8,1.38,3.57,2.94,3.14,4,5.35,3.33h10.8l3.53,5.12H701s.45-4.39,2.23-4.39a12.75,12.75,0,0,0,2.16-.23,4.57,4.57,0,0,1,2.77.23,4.86,4.86,0,0,1,1.57,2.36l3.8,4,13.92-.48,16.66-6.19,4-1.48,10.63,2.52L768.2,343l19.21-7.67,17.64,3.77,1.67.36,20-12.3,1.27.62,24.91,12.14Z"/><path class="d" d="M545.19,356.13,538,371.38l-3.65,6.38-8.15,1.61-3.89,3.1-4.45,1-5.19,3-3.75-.21L503,390.7l-4,3.58-3.65,8.5-6.78,6.47s-7,4.65-8.94,4.82-6.55,4.94-6.55,4.94l-3.91,2.55-2.78,4.72-1.58,5.19.46,2.69-.83,3.77-.07.36h-25c.06-1.08.1-1.83.1-1.83l4.13-6.26,4.69-5,.29-4.85a49.32,49.32,0,0,1,5.93-5l1.94-1.13a30.4,30.4,0,0,0,7.65-2c4.66-1.75,8.52-6.46,8.52-6.46l.26-4.36,11.28-3.69.26-4.35,5.48-4.09,3.93-4,4.67-3.62,3.13.18.23-3.93,11.37-1.42,7.5.44,9.1-5.28s2.41-3.63,5.11-4.09S540.4,363,540.4,363l.32-5.24Z"/><path class="d" d="M475.43,344.3l1.1.26-.9,1.9L472,352.83l-8.15,1.63-3.89,3.08-4.44,1-5.21,3-3.74-.21-5.91,4.5-4,3.56L433,377.86l-6.78,6.48s-7.05,4.65-8.94,4.81-6.55,5-6.55,5l-3.91,2.55-2.78,4.71-1.57,5.18.46,2.7-.84,3.78-.91,4.78,4.19,3.44-.28,4.61.29,5.47,1.7,4.18-9.29-.55L393.56,428l-7.1,1.47-5.29.65-7-.42-3.84-4s6.34-6.94,6.48-9.35.29-4.82.29-4.82l4.12-6.25,4.69-5,.29-4.86a50.3,50.3,0,0,1,5.93-5l1.95-1.14a30,30,0,0,0,7.64-2c4.66-1.74,8.53-6.45,8.53-6.45l.26-4.36,11.28-3.69.26-4.36,5.48-4.09,2.29-2.35h10.24l5.37-1.93,3.13-2.3,3.57-1.69,4.48-1.26,2.68-2.54,4-2.65h3.13l4.47-6.22Z"/><path class="d" d="M568.36,442.61H709.69l123.55-3.88-22.32-14.4-40.31-3.6-19.44-11.51-29.52.72-7.2-18.72-5.26-18.72L709,347.6l-7,10.91V370.6H691.45l-5.77-4.46-3.84-7v12.1l12.5,6.54,1.09,10.16-1.09,7.92-12.26,10.07-8-1.59-4.57,21.84-6.17,2.79-13,2.16,9.38-19.2-7.21-3.84v-8.63l5-4.32,3.6-7.2,8.18-10.16h-6l.73-7.14.48-18.73-4.81,18.74v10.61l-4.81,2v4.68s-8.65-1-9.62,3.84l-1,4.8-4.81,9.59-4.8,5.76-4.81,6.24h-7.79a1.79,1.79,0,0,0-.11-.55l-1.57-4.16a1.88,1.88,0,0,1,.34-1.89l3.14-3.67a1.83,1.83,0,0,0,.46-1.22v-6.37a2.45,2.45,0,0,1,0-.27l.67-4.67a2.26,2.26,0,0,0,0-.45l-.66-6.52a1.81,1.81,0,0,0-.3-.85l-3.76-5.7a1.92,1.92,0,0,1-.31-1v-1.61a1.88,1.88,0,0,1,1.37-1.81l9.53-2.74a1.88,1.88,0,0,0,1.36-1.81v-8.95a2,2,0,0,1,.19-.82l2.68-5.54a1.87,1.87,0,0,0-.18-1.92l-2-2.73a1.89,1.89,0,0,1-.13-2,1.89,1.89,0,0,0-3-2.25l-2.8,2.75a1.89,1.89,0,0,0-.57,1.34v3.45a1.79,1.79,0,0,0,0,.23l.65,5.2a1.88,1.88,0,0,1-.09.85l-1.22,3.54a2.14,2.14,0,0,1-.2.4l-2.27,3.5a1.89,1.89,0,0,1-1.41.86l-5,.46a1.85,1.85,0,0,0-1,.43L613.07,374a1.91,1.91,0,0,0-.39.46l-2,3.26-2.87,4.36a1.88,1.88,0,0,0,.08,2.18l2.26,2.94a1.92,1.92,0,0,1,.36,1.52l-.44,2.2a2,2,0,0,1-.52,1l-2.77,2.77a1.86,1.86,0,0,1-1,.53l-2.22.36a1.89,1.89,0,0,0-1.59,1.86v2.2a1.88,1.88,0,0,1-1.13,1.73l-3.63,1.58a1.72,1.72,0,0,0-.37.22l-5.5,4.11-.2.13-4.78,2.73a2.52,2.52,0,0,1-.34.15l-2.86,1a1.87,1.87,0,0,0-1.29,1.78v3.24a1.89,1.89,0,0,1-1.89,1.88h-4a1.9,1.9,0,0,0-1.15.39l-8.9,6.82a1.89,1.89,0,0,0-.62,2.14l2.6,7.06a1.89,1.89,0,0,0,1.77,1.24h13.74a1.63,1.63,0,0,0,.45-.09l-3,2.6Z"/><path class="d" d="M567,391.66l1.88-5.64a3.58,3.58,0,0,1,.48-.93l.93-1.33a2.38,2.38,0,0,1,1.55-1.13l5.1.23a2.28,2.28,0,0,0,1.54-1.13l1.27-1.8,3.88-5.53a4.07,4.07,0,0,1,.54-.62l4.17-3.84a4,4,0,0,0,1-1.62l.83-2.75a3.81,3.81,0,0,1,1.11-1.68c1.48-1.29,1.64-3.46.19-2.62l-2.61,1.52a3.29,3.29,0,0,0-1,1l-1.79,2.55-.5.75-1.91,3.08a16,16,0,0,1-2.07,2.65l-1.07,1.11-1.44,1.32L576.93,377a1.11,1.11,0,0,1-1,.34l-2.11-.92a.75.75,0,0,0-.63.09l-2.48,1.24a2,2,0,0,0-.42.28l-2.61,2.15L564.1,383a3.82,3.82,0,0,0-1.22,1.81l-.85,3a3.84,3.84,0,0,1-.75,1.34l-1.43,1.69a2.93,2.93,0,0,1-.74.65L556.49,393a.91.91,0,0,1-.68.17l-1-.28a1.23,1.23,0,0,0-1,.38l0-.11c0-.14.09-.29.13-.44l1.54-6.34a3.67,3.67,0,0,0,.11-.85l0-5.95a3.83,3.83,0,0,1,.15-1l.46-1.55a2.26,2.26,0,0,1,1.1-1.57l4.89-1.43a2.26,2.26,0,0,0,1.1-1.56l.62-2.11,1.89-6.49a3.67,3.67,0,0,1,.31-.76l2.71-5a4,4,0,0,0,.46-1.87l-.1-2.87a3.92,3.92,0,0,1,.51-1.95c1-1.69.44-3.8-.66-2.54l-2,2.29a3.18,3.18,0,0,0-.62,1.22l-.88,3c-.07.29-.15.59-.22.88l-.82,3.52a15.54,15.54,0,0,1-1.1,3.18l-.66,1.41c-.31.57-.62,1.12-.92,1.68l-1.56,2.44c-.27.43-.58.66-.85.64l-2.29-.18a.72.72,0,0,0-.57.28l-1.95,2a1.54,1.54,0,0,0-.3.39l-1.78,2.87-2.47,3.83a3.78,3.78,0,0,0-.57,2.1l.16,3.11a3.91,3.91,0,0,1-.27,1.5l-.81,2.06a2.94,2.94,0,0,1-.49.86l-2,2.31a.91.91,0,0,1-.6.38l-1.06.06c-.44,0-1,.7-1.21,1.59l-.62,2.12a2.6,2.6,0,0,1-1,1.51l-2,1.06a1,1,0,0,0-.22.16l-3,2.75-1.29,1.05-.93.66-3,1.58h0a1,1,0,0,0-.4.28,9.13,9.13,0,0,1-2.8,2.19l-4.26,1.94a3.51,3.51,0,0,0-1.46,1.59l-2.73,5.68A3.88,3.88,0,0,0,519,416a2.85,2.85,0,0,0-.1.51l-.84,7.1c-.09.75.08,1.31.42,1.41l6,1.73a.44.44,0,0,0,.33,0l12.26-5.55a.51.51,0,0,1,.34,0l4.83,1.4a.58.58,0,0,0,.44-.11,2,2,0,0,0,1.23-.77l3.32-3.76a15.75,15.75,0,0,0,2.45-3.7l1.1-2.3a3.74,3.74,0,0,1,1.21-1.46l3.27-2.19a3.47,3.47,0,0,0,.87-.88l3.44-4.9c.21-.28.42-.55.62-.83l2.29-2.85a14.15,14.15,0,0,0,1-1.42l3.16-5A4.22,4.22,0,0,0,567,391.66Z"/><path class="k" d="M151.29,380.4l2.7-5.3a3.63,3.63,0,0,1,.61-.85l1.12-1.18a2.34,2.34,0,0,1,1.69-.89l5,1a2.3,2.3,0,0,0,1.7-.89l1.51-1.6,4.66-4.9a3.79,3.79,0,0,1,.62-.53l4.7-3.19a4,4,0,0,0,1.27-1.45l1.23-2.6a3.92,3.92,0,0,1,1.34-1.5c1.66-1.05,2.13-3.17.58-2.56l-2.81,1.13a3.26,3.26,0,0,0-1.11.8L174,358.12l-.6.68L171,361.56a16.23,16.23,0,0,1-2.44,2.32l-1.22.94-1.63,1.09-2.48,1.45c-.44.25-.82.32-1.05.18l-1.95-1.21a.74.74,0,0,0-.64,0l-2.64.86a3,3,0,0,0-.45.21l-2.9,1.75-3.94,2.27A3.82,3.82,0,0,0,148.2,373l-1.29,2.83a3.49,3.49,0,0,1-.93,1.21l-1.66,1.47a3,3,0,0,1-.83.53l-2.82,1.16a1,1,0,0,1-.7.06l-1-.43a1.23,1.23,0,0,0-1,.23l.05-.1c.07-.13.14-.27.2-.41l2.45-6.05a3,3,0,0,0,.23-.83l.84-5.88a4,4,0,0,1,.31-1l.68-1.47c.35-.77.89-1.33,1.31-1.39l5.06-.69c.43-.06,1-.63,1.32-1.39l.92-2,2.82-6.13a3.8,3.8,0,0,1,.42-.71L158,347.5a3.9,3.9,0,0,0,.74-1.78l.32-2.86a3.9,3.9,0,0,1,.79-1.85c1.23-1.53,1-3.69-.28-2.61l-2.29,2a3.26,3.26,0,0,0-.8,1.12l-1.3,2.82-.35.83-1.33,3.37a15.46,15.46,0,0,1-1.56,3l-.86,1.3c-.39.5-.77,1-1.16,1.52L148,356.5c-.33.39-.67.57-.93.51l-2.24-.52a.77.77,0,0,0-.61.2L142,358.36a1.86,1.86,0,0,0-.35.34l-2.19,2.58-3,3.42a3.93,3.93,0,0,0-.88,2l-.3,3.1a3.72,3.72,0,0,1-.49,1.45l-1.1,1.91a2.94,2.94,0,0,1-.61.78l-2.3,2a.92.92,0,0,1-.65.28l-1.06-.09c-.44,0-1,.55-1.43,1.39l-.92,2a2.56,2.56,0,0,1-1.19,1.36l-2.14.75a1,1,0,0,0-.25.13L119.8,384l-1.43.85-1,.52-3.18,1.12h0a1,1,0,0,0-.43.22,9,9,0,0,1-3.1,1.75l-4.5,1.3a3.48,3.48,0,0,0-1.68,1.36l-3.53,5.22a3.66,3.66,0,0,0-.7,1.08,2,2,0,0,0-.17.5l-1.89,6.89c-.19.73-.11,1.31.21,1.46l5.64,2.58a.49.49,0,0,0,.34,0l13-3.69a.47.47,0,0,1,.33,0l4.58,2.1a.57.57,0,0,0,.45-.05,2,2,0,0,0,1.32-.58l3.85-3.23a16.06,16.06,0,0,0,3-3.3l1.42-2.12a3.74,3.74,0,0,1,1.41-1.26l3.56-1.68a3.7,3.7,0,0,0,1-.75l4.13-4.35.73-.72,2.68-2.48a16.1,16.1,0,0,0,1.22-1.26l3.86-4.44A3.42,3.42,0,0,0,151.29,380.4Z"/><path class="f" d="M711.62,442.74l-901.53,9.19v-19.2l34.68-5.76,24-14.39,24.95,1,35.52,9.59,25,1,36.19-21.37s17.25-12.65,28.07-11.67,28.13-.95,28.13-.95a25.46,25.46,0,0,0,4.57,1.51c4,.95,9.8,1.5,14.9-1.51,3.94-2.32,12.83-3.26,22.36-3.16,11.38.1,23.69,1.67,29.57,4.11,10.82,4.48,31.59,16.51,40.25,21.25s27.4-3.57,33.17,0,10.2-4.82,28.89,0,31.26,4.78,32.92,5.94S270.75,417,270.75,417a16,16,0,0,1,15.07-1.37c10.57,4.45,28.52,11.76,32.53,11.81,5.77.07,18.75,0,18.75,0L351,421.7l23.6-9.44,13-9.54,10.1-5.54a16.81,16.81,0,0,1,11.54,0c5.77,2.33,41.8,6.32,50.49,5.54s8.65,8.26,15.86,9.54,15.87,0,15.87,0h9.72l14.8,7.07,13,1.17h20.2s63.47,17.72,83.66,17,39,0,39,0Z"/><path class="l" d="M438.31,447.05l3-7.09,3.46-2.16v-4.93l2.89-3.31h3.84l1.93-3.73h6.25l4.32-4.34,14.43-4.31-9.14,5.75-.94,2.4-1.58,5.18L464,432.87l-4.32,1.66v2.79H464v4.31h17.56s7.5-3.35,7-4.31-1.41-3.63,0-4.46,5.65-.76,5.65-.76l4.42-8.71,2.41,2.43-2.41,3.73-.48,4.4,2.89.57,2.4,2.8-2.4,4.31h-3.37l5.77,2.45,12.61-.09,3.92-2.35,16.17,5.4,6.55-1.57-2.23-3.83-4.32-4.32-2.24-2.8-3.53-2.42-3.85-2.55-2.4-3.73s3.84,5.08,5.77,3.73,7.69,4.88,7.69,4.88l5.11,2.88h8.83l3.37,4.32,2.33,2.1,2.48,0,2.88,0c1.91,0,4.53,3.35,4.53,3.35l3.28,3.21-26.55,1.14-42-1.81-26.74-1-42.05,4Z"/><polygon class="l" points="398.65 405.58 380.85 417.17 380.85 422.28 370.36 428.77 366.52 424.74 358.74 428.77 353.54 432.87 346.8 437.32 343.43 441.64 335.12 445.14 329.84 453.53 346.26 453.04 359.51 452.76 372.28 452.26 391.41 450.84 382.78 448.59 385.66 441.64 385.66 435.88 393.98 433.99 392.39 425.82 397.36 416.84 407.34 417.17 411.71 410.71 424.13 407.96 428.94 407.96 398.65 405.58"/><path class="l" d="M88.42,386.94c-9.53-.1-18.42.84-22.36,3.16-5.1,3-11,2.46-14.9,1.51a1.76,1.76,0,0,1-.5.13l4.61,8c-.16,0-13.07-6.47-4-.91h-5.6c-2.1.63-5.65-3.79-5.77-2.88v5.4c-.1.8-5.13-2.44-5.94-2.52-1.08-.12-2.78,1.21-4.33,1.63-2.81.72-7.16-4.87-7.58-3.91-.35.8-2.09,4.14-2.64,5.19a1.69,1.69,0,0,1-.49.54l-4.29,2.94a1.2,1.2,0,0,0-.36.35L13,407.35a1.51,1.51,0,0,1-1.22.62H7.83a1.5,1.5,0,0,0-1,.37l-2.6,2.33a1.53,1.53,0,0,1-1.77.18L2,410.57a1.51,1.51,0,0,1-.67-1.73l.77-2.44a1.49,1.49,0,0,1,1.44-1h.61a1.53,1.53,0,0,0,1.14-.52l2.41-2.75,0-.06c.32-.33,3.26-3.33,1.89-3.21S4.61,401.53,4,402l-.2.12-6.31,3.08a1.49,1.49,0,0,1-.66.16H-5.81a1.49,1.49,0,0,0-1.3.74l-2.27,4a1.45,1.45,0,0,0-.18.74l0,19.22a1.5,1.5,0,0,0,2.19,1.34c4.49-2.32,14.41-7.52,15.16-8.57l.51-.72a1.51,1.51,0,0,1,1.23-.63h4.11a1.49,1.49,0,0,0,1.31-.77l1.54-2.79a1.51,1.51,0,0,1,1.32-.76h3.83a1.48,1.48,0,0,1,.82.24,1.4,1.4,0,0,0,2.15-.24c.78-1.15.31-2.94.1-3.59a1.35,1.35,0,0,1-.07-.56l.29-3.69a1.51,1.51,0,0,1,2.53-1l3.95,3.69c.21.2,3.78-4.58,4.09-4.54,2.2.32,8.07,6.36,7.3,3.41-.88-3.37-2.88-6.38,0-5.58l2.58.69a1.46,1.46,0,0,0,.69,0l3.82-.81.32,0H61.1l.23,0c1.05-.17,9.58-1.58,12.28-3.15s4.92-3,5.25-3.21l.08-.06,4.65-3.48a1.51,1.51,0,0,0,.6-1.2v-1.41L80.8,394C87.28,390.59,88.8,388.34,88.42,386.94ZM71.69,398.81l-3.59-1.5c-.42-.17,9.63-1.84,10.05-2l-2.24,3.54S76,400.61,71.69,398.81Z"/><path class="l" d="M86.76,436.58c2.76,1.51,4.88-2,13.85,0s15,2,15.78,2.52,8.4-.49,8.4-.49l-.81-4.5-3.25-.72c0,.36-1.8-1.8-1.8-1.8h-1.44c-1.45,0-4.69-2.88-4.69-2.88l-1.44-1.08c-1.45-1.08,0-2.88,0-2.88a10,10,0,0,0-5.77-1.88c-3.61-.08-.73-3.5-.73-3.5l2.53-2.18-1.8-4.68,2.88-2.88,2.89-4.27h-2.89L106,407.93l-2.54,1.68-2.16-2.16-1-2.11L96.93,408h-1.8l-3,2.73c-.79.72-3.17,0-3.17,0l-4,1.8-.36,1.44a11,11,0,0,1-1.8,3.24l-5.41,3.24H74.57l-1.8,2.44-2.16,1.52s-4.33.36-5.75,1.46c-1,.76-2.68,4.06-3.64,6,3.79,1.82,7.49,3.69,9.63,4.72C75,438.59,84,435.07,86.76,436.58Z"/><path class="m" d="M459.71,342.29s-5.3,1.44-5.3,0-3.83-4.79-3.83-4.79v-4.81l-2.41-1.95-5.3-5.73V317.4h-3.36a74.72,74.72,0,0,1-7.69-4.87c-2.4-1.92,0-5.27,0-5.27L429.89,302l-5.28-.06-2.88-3.07h-6.26l-5.28-3.91h-2.41l-1.44,3.91,1,3.07,2.4.06,2.41,3.38.47,4.32,2.41,2.88,2.41,1.93,1,4.9.49,3.25,2.89,3.84-2.41,13.44-1.92-4.39v-4.76l-3.85-6.2-2.41-5.76v-4h-2.39l-5.3-5.61V306.3l-3.85,1L394.32,302l-10.5,9.38,8.57,8.4-5.38,11v-6.2L375.25,312.9l11.73-14,0,0,5.61-6.95h8.61l10.4-3.13,32.6,10.53L439.51,302v2.91l1,2.88,4.8,4.79s2.89.49,2.89,1.93.47,2.39.47,4.46,1,2.74,1,2.74l3.85,2.88,1.92,2.88v5.76l1,5.27Z"/><path class="n" d="M869.11,489.1l-18.89-2.57-28.88,1.15-20.62-2.13L782.27,482,755.13,483l-18.46-4.26H718.22l-13-3.56-22.1,1.28-25.66-3.42-29.31.75-27.46,7.05-40.55,5.68-50.24-7.3a43.42,43.42,0,0,0-7.4-.45l-73.84,8.44,80.17-1.41s24,7.64,39.45,9l15.69,4.79-8.5,8.21-20.3,5.76-16.65-4-50.66,4.92c-2.37-.26-32.18-7.49-39.18-8.78l-72.42,13.69L436,513.37s31.13,9,45.61,7.84S518.49,516,518.49,516l25,5,9.4,0,11,2.37,7-.39a72.55,72.55,0,0,1,11.42-.63c5.25.24,5.73,4,11.94,3.37s32.35-.48,36.63.27a20.2,20.2,0,0,0,8.31-.47l7-2.77,8.83-4.55,16.46-5,9.7-3s9.34-.56,13.49-.77c2.88-.15,16.19,2.2,24,3.65A18.48,18.48,0,0,0,729.51,512s11.29-1.64,12.55-1.21,10.29-.09,24,1.15,16.46-2.46,20.8-1.19,17.39-3,23.88-1.37,22.08,5.87,30.11,7.33,31.48.76,37.43-1.73c4.58-1.93,10.38-1.37,12.83-1V486.71Z"/><path class="n" d="M283,557a10.73,10.73,0,0,0-2.72,0L261.6,560l-12.19-4-.68-5.76-4.11,1.34a14.78,14.78,0,0,1-3.07.65L239.34,551c5.64-.76,14.4-5,14.4-5l29.25.77-26.94-4.63a11.91,11.91,0,0,0-2.7.23l-18.33,4-14.8-3.11-10-3.88L199.5,539l-9.36,1.88-8.06-.7-4.76,1.94h-6.74l-5.71,2-3.5.2-3.51-.2-5.71-2h-6.74l-4.76-1.94-8.06.7L123.23,539l-10.69.41-10,3.88-14.8,3.11-18.33-4a11.91,11.91,0,0,0-2.7-.23l-26.94,4.63L69,546s8.76,4.19,14.4,5l-2.21,1.21a14.78,14.78,0,0,1-3.07-.65L74,550.21,73.32,556l-12.19,4-18.67-2.94a10.73,10.73,0,0,0-2.72,0l-26.43,7.52,29.11-3.37s11.37,4.92,16.66,4.3,15.72-6.2,15.72-6.2l6.86,6.13,3.43,0,4,1.31,2.56-.22a17.52,17.52,0,0,1,4.17-.34c1.91.13,2.09,2.22,4.35,1.84s11.81-.26,13.37.16a5.07,5.07,0,0,0,3-.27l2.54-1.51,3.22-2.5,1.45-.66a30.06,30.06,0,0,0,8.76-.2c2.19-.59,5.9-2,8.63-3.1,1.52.38,3.15.83,4.41,1.17a4.73,4.73,0,0,0,3.94-.65,37.36,37.36,0,0,1,4.19-.7,11.57,11.57,0,0,0,6.14.67l1.5-.18,1.5.18a11.54,11.54,0,0,0,6.13-.67,37.36,37.36,0,0,1,4.19.7,4.73,4.73,0,0,0,3.94.65c1.26-.34,2.89-.79,4.42-1.17,2.72,1.07,6.43,2.51,8.61,3.1a30.13,30.13,0,0,0,8.77.2l1.45.66,3.22,2.5,2.54,1.51a5.07,5.07,0,0,0,3,.27c1.56-.42,11.11-.53,13.37-.16s2.44-1.71,4.36-1.84a17.47,17.47,0,0,1,4.16.34l2.56.22,4-1.31,3.44,0,6.85-6.13s10.44,5.58,15.72,6.2,16.66-4.3,16.66-4.3l29.11,3.37Zm-121.62-5.3-2.12-.33.36,0h3.52l.36,0Z"/><path class="n" d="M711.62,452.57v-1.06l-20.52-1.24c-1.41,0-2.82,0-4.14.13l-28.09,2.16-22.69-1.67-15.37-2.09-16.38-.21-14.35,1-12.37-.37-7.3,1H560.09l-8.76,1.07-5.36.1-5.39-.1-8.75-1.07H521.5l-7.3-1-12.36.37-14.35-1-16.39.21-15.36,2.09-22.69,1.67L405,450.4c-1.31-.1-2.72-.14-4.14-.13l-41.3,2.49,44.84-.42s13.43,2.25,22.07,2.67l-3.38.65c-1.66-.08-3.26-.19-4.72-.35l-6.3-.72-1,3.08-18.68,2.16-28.62-1.57c-1.32-.07-2.75-.08-4.17,0l-40.51,4,44.63-1.81s17.42,2.65,25.53,2.32,24.1-3.33,24.1-3.33l10.5,3.29,5.27,0,6.17.71,3.91-.12s3.45-.26,6.39-.19,3.22,1.2,6.68,1,18.11-.15,20.49.08a20.74,20.74,0,0,0,4.65-.15l3.89-.81,4.94-1.34,2.23-.35a129,129,0,0,0,13.42-.11c3.36-.32,9-1.1,13.22-1.66,2.34.2,4.85.44,6.77.62a19.53,19.53,0,0,0,6-.34s4.71-.36,6.44-.38a48.25,48.25,0,0,0,9.39.36l2.31-.1,2.29.1a48.3,48.3,0,0,0,9.39-.36c1.73,0,6.45.38,6.45.38a19.41,19.41,0,0,0,6,.34c1.91-.18,4.42-.42,6.76-.62,4.18.56,9.87,1.34,13.2,1.66a129.47,129.47,0,0,0,13.44.11l2.24.35,4.93,1.34,3.9.81a20.68,20.68,0,0,0,4.64.15c2.38-.23,17-.28,20.5-.08s3.73-.92,6.68-1,6.39.19,6.39.19l3.91.12,6.17-.71,5.27,0,10.5-3.29s16,3,24.1,3.33a77.75,77.75,0,0,0,8.86-.33v-3.27l-12,.66-18.67-2.16-1-3.08-6.31.72c-1.45.16-3.05.27-4.71.35L665.5,455c8.64-.42,22.07-2.67,22.07-2.67ZM546,455.38l-3.26-.17.56,0h5.39l.55,0Z"/><path class="d" d="M614.76,328.77l-2.87,6.06h-5l-3.61.67-5.05,3.91v-8.67l-3.69-2.13h-4.24v14.32H583l-3.62,4.62v-4.62l3.62-8.1V324.29l-4.33-5-2.93-9.57h0l1.38,1.57,13,5.64,2.68,3.13,6.71,2.92,5.87-.73,3.53,8Z"/><polygon class="d" points="656.8 316.89 659.49 316.89 659.49 330.89 652.27 330.89 648.65 335.51 648.65 330.89 652.27 322.8 652.27 312.26 648.18 307.49 652.33 306.14 656.8 316.89"/><path class="d" d="M557,304.67s-4.54,5.61-4.54,7.46v3.71l-2.89,5-3.36,4.05v3.74a37.73,37.73,0,0,1-4.32,4.08l-1.45,1a23.72,23.72,0,0,0-5.77,1.86c-3.49,1.56-6.24,5.34-6.24,5.34v3.36L520,347.55v3.35l-4,3.39-2.82,3.25-3.42,3h-2.41v3l-8.66,1.61h-5.77l-6.73,4.47s-1.69,2.89-3.74,3.37-4,3.75-4,3.75v4l-3.36,1.45,4.8-12,2.51-5.06,6.17-1.61,2.86-2.55,3.36-1,3.85-2.51h2.89l4.33-3.73,2.88-2.91,2.41-6.69,4.9-5.27s5.2-3.89,6.64-4.11,4.8-4.09,4.8-4.09l2.89-2.13,1.92-3.74,1-4.05-.47-2,.47-2.94.48-3.71-3.36-2.45v-3.54l-.48-4.19-1.5-3.13h7.16l3.57,5.11,5.38-1.45,4-.73h5.36Z"/><path class="d" d="M482.58,334.82l-2,4.23v-4.43S481.42,334.72,482.58,334.82Z"/><path class="k" d="M253.22,363.33c3.22-6.47-11.77-6.71-7.16-11.49l-3.68-.93-.45,4.26h-6.3L232,350.38l-6.42-2.83-3.43-10.69L218.44,333l-4.21-2.82L209,328.08l-3.16-4.25-4.73-4.42h-3.68L192.16,309v9.51s-5,8.33,0,8.85a14,14,0,0,1,7.91,3.36v4.09s1.44,6.11,3.6,5.71-1.44-3.29,2.17-.41,8.65,7.42,8.65,7.42l7.21,5.54v4.45h-7.21s-1.44-3.47-3.61,0-5.06,7.63-5.06,7.63l-3.59,4.47h-6.49l-5.81,7.12H179.87v5.49l-3.6,6.26v6.34s-2.89,4.32-5.05,4a45.76,45.76,0,0,0-7.21,0v3.24h12.26l5-3.24,5.05-10.3,6.49-1.58s1.45-4.32,5.05-4.68a64.36,64.36,0,0,0,10.1-2.52l6.49-3,7.21-7.12h10.82Z"/><path class="n" d="M890,553.63,874,557.8l-13.85-3.23-9.18,3.23-23.33,5.76H814l-10.55-6.11-11.65,6.11H759.91l-17.28,4.68H717l-11.84,4s-26.58,1-27.94-1-12.5-4.08-13.84-3-5.68,2.76-7.54,0S642.41,552.35,639,553.63s-9.33,4.17-9.33,4.17l-16.34,4.09H574.88l-8.6,6.35H548.7l-7.6,4.2s2.94-3.6,6,0,11-.72,11.09,0l.08.72,10.5.73h19.45L603,578h34.85l7,6.4s13-.64,15.65-3.52l16.68,4.8-7.11,6.72-6.73,4.8H639L629.63,587l-14,10.16H588.27l-19.45-3.84s-15.57-6.89-21.67-6.32-16.48,15.92-16.48,15.92H507.9s-8.22-3.84-10.58-3.84-16.05,3.84-16.05,3.84h-22.8l-16.33,3.84s-11.33-1-16.69,0-17.21-3.84-17.21-3.84l-2.6.68c-2.9.75-2.54,4.26.46,4.6h0l5.95,6.24H398.57c-5,0-19.68,4.8-19.68,4.8L361,623.07,344.73,620a22.62,22.62,0,0,1-9.57,6c-6.08,1.92-26.07,0-26.07,0s-20-3.84-21.33-3.84H272.64c-5.76,0-17.83,4.69-17.83,4.69l23.59-.37s18,7.2,22.26,7.2h8.43l10.2,3.84s-24.76-4.8-36.28,1,17.65,7.68,17.65,7.68l-12.9,5.68H243.84l-15.49-7.6-21.32-1-18.48-1.92-17.28-1L148,643.23l-46-6.72L72.41,650.63,5.72,664.07l-48.3-9.6L-71.32,641l-61,4.8-57.64-25.64V736.74H890Z"/><ellipse class="o" cx="330.29" cy="528.38" rx="22.1" ry="3.27"/><ellipse class="o" cx="340.71" cy="487.71" rx="11.05" ry="1.64"/><path class="n" d="M318.83,453.81S299,443.1,289.34,443.39s-29.46,8.82-29.46,8.82L248.42,440l-6.22-.5-7.09-3h-4.66a32.26,32.26,0,0,1-7.61,0c-3.45-.55-3.44-4.37-7.6-4s-21.43-1.37-24.19-2.36a9.09,9.09,0,0,0-5.53,0l-4.84,2.36-6.22,4-11.31,4L156.48,443s-6.22,0-9,0c-1.92,0-10.52-3.12-15.59-5a8.63,8.63,0,0,0-7.23.58s-7.6,1-8.39.5-6.81-.5-15.78-2.52-11.08,1.53-13.84,0-11.76,2-15.9,0c-2.15-1-5.84-2.91-9.63-4.73-3.54-1.7-7.16-3.37-9.66-4.28-5.18-1.9-20.74-2.56-24.88-.41s-9.34,0-9.34,0a98,98,0,0,1-13.47.41C-1.4,427.1-71.72,451-71.72,451l62.05-3.62,8.82-4.77a28,28,0,0,1,15.83-.7l13.57,3.44A45.12,45.12,0,0,0,39,446.63l18.89,7.58,21.63-4,12.55,2.9,19.18-1.3,13.69,2.4,12.26,4,18-1.2,12.25,4.81h12.26l8.65,4,14.68-1.45,17,3.85,19.46-.85,18.25-8L284.76,453l33.37,8.24a18.48,18.48,0,0,0,4.92.5l49-9.54Z"/><path class="f" d="M99.89,294.12c.6,0,1.62-.19,1.91-.81s-.24-.92-.81-.92-1.62.19-1.91.81.24.92.81.92Z"/><polyline class="p" points="305.89 524.41 306.73 523.42 308.5 521.35 310.71 522.13 313.12 524.41 312.32 528.87 310.01 528.87 308.7 528.87 305.89 528.87 304.49 526.44"/><polyline class="q" points="330.4 485.2 330.83 484.69 331.74 483.63 332.87 484.03 334.11 484.42 334.11 485.2 334.62 486.24 333.69 487.48 332.51 487.48 331.84 487.48 330.4 487.48 329.68 486.24 329.89 485.2"/><path class="d" d="M317.08,373.7l2.48-2-5.43,5L310.05,380,302,386.63l-4,.25-5.77,2.86-2.88-1.28-2.89,5.62h-7v3.3l-5.08,1.36L265.55,402l4.42-5,2.53-2.88,4.58-5.62,7.93-1.83v-4.45l6.53-3.42,1.89-14.25c2.63,0,5.27,2.81,5.27,2.81l4.73,3.53s3.67,2.13,5.25,2.85S317.08,373.7,317.08,373.7Z"/><path class="d" d="M373.38,383.84l-1.29,3h-7.77l-10.25-1.65-1.67,3.25-.64,5.62-11,7.91s-3.8,3.6-6.1,3.29-4.93,0-5,3.92-5-1.3-5-1.3l5-2.62,7.95-6.54,3.08-6.14.53-5.74,12.46-7.25h4.92l11.69,3S372,384.24,373.38,383.84Z"/><polygon class="r" points="457.4 505.66 460.09 504.72 472.78 520.31 473.43 536.64 469.88 529.08 464.51 515.52 457.4 505.66"/><path class="s" d="M410.89,383.13s-.27-2.62,2.07-1.43,4,6.95,4,6.95l10.43,35.46,36.27,72s-2.39,14.29-9.79,8.48-22-42-22-42l-19.36-60.25Z"/><path class="t" d="M445.51,471.8s16.39,22.91,16.39,23.71,3.48,5.22-1.09,1-15.19-19.22-15.19-19.22l10,20.74,8.93,12.83,8,11.49.43-18.63L475,504.8l.78-.63-5.29-7.89L458,478l.68-2,.29-1.06-13.86-17.13-.51-.7-2.46.95Z"/><path class="u" d="M413.72,555.76l6.63,12.4,8.6,6.12H440l10,2.63,8.74-4.62,5.5-19.9,11.31-6.2-3.42-15.06s-5.71-14.9-8.1-17.84-7.55-10.24-7.55-10.24l-28-1.45-13.87,22.89Z"/><path class="v" d="M408.75,381.1l4.43-.44,1.16,1s-2.9.12-2.79,1.28,5.61,26.61,6.63,31.32,6.6,22.59,6.6,22.59l-12.24-28.11-3.06-17.68-.73-10"/><path class="w" d="M414.84,383.13s1.39,10.44,1.75,12.69,6.57,24.14,7.78,26.39,9.4,22.69,9.4,22.69l4,9.8,7.7,17.1L442,456.07l.08-2.14-4.43-5.19-5.36-15.93-14.23-45Z"/><path class="x" d="M422.31,421.75s13.05,46.35,30.45,73.69c3.69,5.79,32.56,44.95,3,1.27C452,491.14,422.31,421.75,422.31,421.75Z"/><path class="y" d="M403.37,569.6l2.68-14.82,4.95,3.43,10.25,7s6,3.79,6.77,4.42,4.73,5.14,5.71,5.14,1.93,1.16,1.93,1.16l-5.52,1-6.52-2.11,1.08-1.74-9-6.55-6.7-2.59h-2.54l-3.06,5.68"/><path class="z" d="M403.1,463.68l26.95-11.06s11.73,28.9,12.77,30.49,13.71,19.94,13.71,19.94-6.3,1.31-7.25,1.67S433.91,512,431.74,514s-11.6,20.66-12.26,22.4-2.46,4.14-1.3,12.76a92.38,92.38,0,0,0,3.7,15.88c.29,1.16-12.18-4-13.2-3.91s-7.47-13.31-7.47-13.31l-1.51-15.14-1-7.08-3.44-1.81.92-13.2,1.59-13.88,3.8-15.18,1.52-17.85"/><path class="aa" d="M395.27,524.51s.22-.41,1.05-.17a4.32,4.32,0,0,1,2.39,2.06c.18.72,1.85,12.25,1.85,12.25l-.29,4.79-1,.79-7.71-2.65,3.72-17.07"/><path class="ab" d="M427.68,570.48s2.68.64,3.33-.51-1.16-6.45,0-7.17,3.64-1.24,4.65,0,3.55,3.19,4.71,4.49,1.45,1.67,1.52,4,7,2,8.55.87,3.56-2.47,5.66-.8a52,52,0,0,1,4.94,4.86l-5.38-.19-1.3,1.24,2,1.64-2.08,1.74,13.49,12.89v1.38l-2.1-.33L459,591.16l-3.1-1.68L450.85,584l-2.57-2.35-6.77-3.49-2.45-2-1.74-.33-4.26.36Z"/><path class="ac" d="M458,549l2.66-1.15s-3.49-8-1.91-8.81a18.23,18.23,0,0,1,4.25-1.25V531s1.47.54,1.47-.66-1-13.92-1-13.92,8.32,19.52,9.35,23.28,2.64,9,2.65,9.3.79,5.65.7,6.28,2.54,5.35,2.55,5.73-.43,7.29-.43,7.29-.65.76-.88.83-.93-.5-.93-.5l.35-2.75-3.67-2.94H472L470.82,564l-2.44.14-.25,1.74,3.1,4.94,3.65,5.2-3-2.12-4.09-4.52-4.8-7.3-.76,4.59,1.56,3.62-4,.24-4.13-20.45Z"/><path class="ad" d="M459.8,576.06s-4.72-4.35-4.72-5.58-.07-5.07-1.59-5.94-4.86-2.4-3.84-3,2.82.87,2.1-1.81-2.61-6.53-1.31-7.54,4.86-3.63,7.91-3.7,1.81,6.34,1.81,6.34-.74,12.58.25,14,3.07,1,3.07,1l4.65,5.73-.76.93L463.59,575l-.82,1.17-3-.15"/><path class="ae" d="M401.54,552.72s1.52-4.3,3-4.54c1.85-.3,3.45.55,2.8,3.81s-4.59,20.12-4.59,20.12l-3.11,5.21-4.12,2.8L400,558.23Z"/><polygon class="af" points="366.57 539.5 368.58 561.47 383.57 562.18 390.83 540.64 366.57 539.5"/><polyline class="ag" points="390.01 541.27 401.21 545.43 399.58 556.63 397.27 566.51 382.72 562.18 390.01 541.27"/><path class="ah" d="M302.9,557.58s1.59,7.28,2.17,7.34,18.13-.38,18.13-.38-2.43-7.73-2.57-8-17.73,1.05-17.73,1.05"/><polyline class="ah" points="307.16 573.53 311.38 583.29 326.88 579.06 325.08 571.79 315.46 573.16 307.16 573.53"/><polyline class="ah" points="330.52 569.02 338.06 566.86 340.38 576.21 333.86 579.18 330.52 569.02"/><polygon class="ah" points="326.88 555.18 328.83 562.89 337.01 560.26 335.01 553.32 326.88 555.18"/><polygon class="ai" points="305.07 564.92 305.02 569.25 307.4 574.03 318.85 573.02 325.19 572.38 332.77 568.31 338.06 566.86 336.42 561.02 328.75 563.73 318.99 565.61 305.07 564.92"/><polyline class="ai" points="311.09 582.19 315.11 592.81 316.56 592.09 314.67 582.08 311.09 582.19"/><path class="aj" d="M317.94,582.12l8.84,30.43s8,1,8.38-1.47-1.23-27.92-1.23-27.92l-7.05-4.1-7.1.12-1.84,2.94"/><path class="ak" d="M333.63,581.09l1.53,30s6.53,1.38,7.32-.5,8.11-35.46,8.11-35.46,2-2.25,1.9-4.2a21,21,0,0,0-1.6-5.18l-9.49-.82-1.93,7.16.86,5.26s-7,2.2-6.69,2.78a2.47,2.47,0,0,0,.71.87"/><polyline class="al" points="349.85 566.86 355.45 565.23 355.45 572.38 351.17 586.71 350.59 592.41 349.72 599.54 347.98 612.48 347.32 624.66 347.54 630.71 343.84 634.45 339.97 634.45 335.69 631.08 332.24 630.91 326.59 612.05 337.01 608.35 341.83 608.35 345.47 591.27 349.85 566.86"/><path class="am" d="M336.42,557.34l4.47-17.46,10.87.8-1.56,25.75s-8.13-1.43-8.22,0-2.22,5.07-2.22,5.07L336.42,559v-1.66"/><polyline class="an" points="371.41 485.94 365.6 485.37 347.65 501.65 350.6 506.53 362.5 510.03 361.73 504.19 370.4 498.23 372.21 493.77 371.41 485.94"/><polygon class="ao" points="361.01 504.39 361.92 510.01 370.07 510.01 382.62 510.01 392.77 512.01 392.77 508.89 390.01 506.02 380.95 501.02 367.9 498.91 361.01 504.39"/><path class="ap" d="M327.68,515.56l12.08-3.41s-8.18,29.19-8.4,31.58-16.65-1-16.65-1l2.53-4.57Z"/><path class="aq" d="M328.83,554.46l5.86-2.06,1.73,4.94s5-13.92,5.9-14,5.58-.91,6.44,1.37,1.34.65,1.34.65L342,504.48,336.87,513l-8,41.49"/><polyline class="ar" points="357.42 482.19 365.11 484.85 355.45 493.23 357.42 482.19"/><polyline points="281.58 425.37 281.9 432.76 286.73 433.57 290.68 441.73 290.68 447.82 296.79 441.39 294.86 428.62 291.86 428.16 287.4 428.3 281.58 425.37"/><polygon class="as" points="313.7 533.43 314.17 528.57 313.7 525.6 303.69 535.39 304.49 547.06 304.49 554.6 310.58 555.18 325.81 549.76 330.01 545.61 318.48 543.8 314.71 541.7 314.17 536.33 313.7 533.43"/><polygon class="at" points="307.17 424.14 304.49 445.63 315.08 535.53 317.24 537.49 320.63 529.5 311.04 460.81 323.69 420.51 307.17 424.14"/><path class="au" d="M302.57,431.78l1.09,46.33,5.34,1.11s-2.08-16-2-22.32.54-28.33.54-28.33Z"/><path class="av" d="M302,482.19s1.59-4.32,2.89-4.9c.92-.41,3.95.82,3.95.82l3.39,31.14-7.13-6.6Z"/><path class="aw" d="M304.94,501.43l6.74,2.56,3,22.19L304.94,536s4,10.44,3.61,12.9a5,5,0,0,1-2.68,3.53S306,554,307.14,554s2.69,3,2.69,3l-7.81.58-1.19-3.83,2.94-1.3-2.29-18.77,2-.43,6-7.31,1.84-2.63-.18-2.35-6.22-19.53"/><polygon class="ax" points="310.02 475.1 312.44 494.59 318.39 493.55 313.55 475.1 310.02 475.1"/><polygon class="ay" points="309.42 426.96 309 432.73 318.04 424.52 309.42 426.96"/><polygon class="az" points="340.36 499.21 345.96 486.7 344.27 434.9 338.93 436.42 340.36 499.21"/><path class="ba" d="M316.53,438.3,318,504.58H340.9s-2.29-65.56-.54-65.7c4.12-.32,4.19.8,3.89-3.19-.82-3.36-12.57-6.2-12.57-6.2l-17.51,4.25Z"/><path class="bb" d="M344.25,435.69s-4.92-3.68-10.41-3-13.11,5.72-13.25,7.24-1.53,29.29-1.38,35,.87,22,.87,22a11,11,0,0,1-3.48-5.43c-.94-3.49-.65-11.77-3.26-12.38s-3.12-1.93-3.12-1.93-1.13-11.94-1.22-18.18,0-24.36,0-24.36l9.53-8.88,3.22-1.28,8.33,1.75,9,2.83,4.39,4.2.75,2.32"/><path class="bc" d="M335.74,504.19c-.16.06-13,1.33-14.63-2.26s-1-4.9-1-4.9a13.15,13.15,0,0,1-2.61-3.25c-.64-1.45-5.22-.84-5.22-.84l2,17.09s4.24-.92,5.22.27.38,4.95,1.95,5.22,17.35-.92,18.49-2.17,0-5.93,1.36-6.75a20.61,20.61,0,0,0,2.4-1.68l.62-10.71-1-.37-5.9,11.64Z"/><path class="bd" d="M369.24,411.48l-2.39,3.75,4.67,1.1s6.89-.32,8.23-.32,7.24.32,7.24.32l7.26,1.56,5.88,2.19,4.67,3.32.44,3.48-.66,12-1.19,21.69s-.88,4.28-.11,4.18,28.64-7.2,26.68-12.5c-1.17-3.16-12-31.66-20.18-52.49-2.49-6.32,1-16.45-.63-20.43-.82-2-4.62,2.32-5.6,3.59a26.82,26.82,0,0,0-1.9,2.78l-13.92,2.71-12.1,17.95-3.46,5.33-2.93-.18"/><polygon class="be" points="313.34 408.12 369.24 411.48 372.79 416.01 345.96 427.33 309 416.01 313.34 408.12"/><path class="bf" d="M307.17,370.22l-3,.09L303,431.18l3.1-1.36,8.19-5.37,5.27-.79,12.56,3.47,12.08,6,.8,33.71v14.66h5.61V425.87s-14.64-8.36-20-9.86c-3.24-.91-13.41-1.2-13.41-1.2s-2.9-21.79-2-22.35,4.4-.42,4.4-.42l1.68-4.56-.79-1H307.17V370.22"/><path class="bg" d="M318.53,389.58l2,19.24s49,3.24,50,2.8,6.11-7.67,6.11-7.67l6.65-14.68Z"/><path class="bh" d="M316.38,408.58s-2.82-15.76-1.23-16.12,3.7-.8,4.06-.43,2.17,16.84,2.17,16.84Z"/><path class="bi" d="M323.69,408.74s-2.38-16.33-1.07-16.55,3.11-.58,3.4,0,1.85,16.8,1.85,16.8Z"/><path class="bj" d="M399.65,350.86s-1.36,7.32-1.34,8.53,0,12.52,0,12.52,12.36,5.33,13.94,7S408.4,362,408.4,362l-3.51-10.55-4.76-1.25Z"/><polygon class="bk" points="398.31 373.16 398.46 385.3 402.92 384.39 406.07 379.5 400.63 373.59 398.31 373.16"/><path class="bl" d="M398,371.49l14.25,6.38.34,3.37s-7-.54-7.77.76-.73,4.5-1.53,4.46l-4.93-.14v-2.47s3.83-.25,4.9-1.12,2.5-2.76,1.27-3.7-6.53-5.47-6.53-5.47Z"/><path class="bm" d="M307.17,365.58v20.88l15.08.2v-3H311l-.15-14.63,11.09.42-.5-1.74-.89-1.89-1.36-1-11.89.08Z"/><polygon class="bn" points="319.1 383.63 310.86 383.63 310.86 369.5 319.55 369.5 322.06 367.86 324.78 367.34 325.41 370.41 325.17 388.68 321.36 388.85 320.92 384.03 319.1 383.63"/><polygon class="bn" points="324.83 386.75 324.83 389.27 358.87 389.27 358.87 369.7 333.84 366.03 326.12 366.12 325.06 366.8 324.83 386.75"/><polygon class="bo" points="357.09 389.07 365.32 389.07 365.11 370.11 357.09 369.94 357.09 389.07"/><polyline class="bn" points="367.72 369.52 368.8 389.07 382.72 388.38 398.89 385.1 398.89 369.94 367.72 369.52"/><path class="bp" d="M291.29,335.85s2.15,5.52,3.56,9.34S299,361.52,299,361.52l.8,7.26,1.3.53-1.52,2.61,5-.36.32-.94,2.54.11-.22-6.2-3.33-9.79-3.52-7.83-5.65-11.27Z"/><path class="bq" d="M290.06,388.13s4.64,3.55,7.9,1.74,5.88-3.41,5.88-3.41l.65-16.24-5.57,1.7Z"/><path class="br" d="M303.82,391.16v9L303,432.59l.11,16.23.54,13.79s.51,13.8.6,14.47c.65,4.65-1.74,5.77-1.74,5.77l-1.27-3.63-2.63-22.71-1.65-29.84-1.85-26.47"/><path class="bs" d="M290.42,387.48l7.15,2.15,6.63-4-.76,7.39s-3.43-.21-3.7,3.87-.35,65.69-.35,65.69l-3.21-26.84-3.79-20.54-1-5.2-.26-14.58-1.46-6.38.79-1.59"/><path class="bt" d="M314,508.05l1.59,14.6,1.9,11.36-1.65.38-1.11-8.21-1.58,1.59a8.11,8.11,0,0,1,0,3.58c-.5,1.19-2.95,5.16-2.95,5.16s3.59,10.33,3.65,11.48-.6,1.46,1.25.7c0,0,7-3.37,8-3.59s2.94-.43,3.43-.05,2.39,1,.54,1.63-20.61,7.67-20.61,7.67l3.26,3,11.48-.85,10.33,40.82L334.35,581l-8-25.34,3.32-1.63,2-12.5L317,541.43l12.25-26.28-11.41-7.84Z"/><path class="aw" d="M315.4,517.3s1.42-3.19,2.25-3.3,2.1-.19,1.7,1.64-2.9,4.12-2.61,5.43-.67,1.36-1.17,1.58l-.23-2L315,518Z"/><polyline class="aw" points="315.56 522.65 315.34 520.54 315.04 518.02"/><polyline class="bu" points="375.63 416.44 383.01 416.01 390.41 417.17 397.08 419.05 398.45 419.46 403.97 422.35 405.2 424.59 405.2 433.55 403.92 450.9 402.63 476.09 399.85 484.2 393.71 486.21 382.29 486.75 370.65 485.88 360.37 482.84 356.68 481.92 357.27 480.39 358.94 480.15 368.37 481.05 375.63 416.44"/><polygon class="bv" points="353.21 423.51 353.21 477.21 357.09 479.92 370.04 481.53 387.58 480.71 378.17 476.09 376.65 467.05 375.54 465.38 375.22 450.92 376.14 415.74 367.39 416.93 353.21 423.51"/><path class="bw" d="M374.89,450.16l.82,18.95,2.46,7,5.13,2.52s6.82-55.53,8.34-54.55,4.16,6.2,6.81,5.43,5.05-3,3.2-4.9-18.35-8.45-18.35-8.45-7,2.7-7.1,5S374.89,450.16,374.89,450.16Z"/><polygon class="bx" points="368.37 481.05 364.74 484.06 368.91 485.37 371.41 481.37 368.37 481.05"/><path class="by" d="M371.41,485.94s-6.16,6.82-5.8,7.29,6.6.54,6.6.54-3.64,4.28-3.31,4.86,13.68,3.26,13.68,3.26l9.86,6.16.83-7.17,3-11.68,1.52-3.83s-9.13,1.19-10.79,1.39-13.4-.6-13.4-.6Z"/><path class="bz" d="M392.51,509.25l.76,3.15,2.29,1a5.57,5.57,0,0,0,1.09-3.32A81.34,81.34,0,0,1,398,497a119.28,119.28,0,0,0,2.54-12.18c0-.79-1.88-.2-2.25.52s-2.39,4.34-2.39,4.34-2.32,7-2.25,8.05-.87,6.67-.87,7.25S392.51,509.25,392.51,509.25Z"/><polygon class="ca" points="360.34 539.61 370.67 538.9 374.1 510.03 366.54 510.03 360.97 510.33 360.34 539.61"/><path class="cb" d="M366.05,532.84,365.6,520l29.67,4.53-4.4,16.76L378.17,539l-6.19-.22A6.16,6.16,0,0,1,366.05,532.84Z"/><path class="cc" d="M395,514s-2.15-2.63-4.79-3c-1.84-.25-13.07-.59-19.79-.78a4.82,4.82,0,0,0-4.95,4.93l.11,5.23s8.21,4.18,11.61,4.84,10.18,2.38,13.63,1.08a23.71,23.71,0,0,0,4.72-2.17V515L395,514"/><polyline class="cd" points="350.1 541.03 349.85 566.86 355.18 566.51 353.58 541.27 352.38 541.03"/><polygon class="ce" points="359.72 540.39 358.63 562.89 369.38 561.77 366.57 539.02 359.72 540.39"/><path class="cf" d="M430.09,525.69s-.65,1.74.38,2.29,5.27.92,5.71,1.08,1.09,1.42,1.74,1.53,9.84-2.56,9.62-3.43a2,2,0,0,0-1.92-1.47c-1-.11-3.4-.54-4.6.27s-1.74.82-3.81.33-5.16-2.07-6-1.58A3.65,3.65,0,0,0,430.09,525.69Z"/><path class="cg" d="M421.66,498.83s5.11-5.71,7-5.77a9.35,9.35,0,0,0,3.65-.59c.43-.28,3.15-.06,3.59.48a2.91,2.91,0,0,0,2.55.77c1.2-.11,4.08-2,4.08-2l5.87,7.89,1.8,22.35-6-19.14-8.64,4-.06-3L431,501.06l2.45-1.8s-1.8-2.34-3.21-2.34S421.66,498.83,421.66,498.83Z"/><path class="cg" d="M428.44,483.76s-.58.66,0,1.09a18,18,0,0,0,3.88.94s3.19-1.16,3.22-1.52-.68-2.14-2.1-2.14S428.44,483.76,428.44,483.76Z"/><path class="cg" d="M436.16,486.77s-1.23,1.13,0,1.56,2.72.11,2.5-.54-.81-1.92-1.51-1.63A2.91,2.91,0,0,0,436.16,486.77Z"/><path class="cg" d="M454.07,506.82s-.65,1.23.29,1.34,1.74-.07,1.78-.4.14-1.3-.33-1.7-1.56.25-1.56.25Z"/><path class="ch" d="M410.13,473.54l-1.52,15.95s5.8.22,6.23,1.67,4.21-12,3.05-14.36S410.13,473.54,410.13,473.54Z"/><path class="ci" d="M394.32,571.5s-15.73-1.82-17,.88S362.77,627,362.77,627h-4.88l10.7-64.78h11.76l9.32,2.07,7.6,2.26-1.21,5Z"/><path class="cj" d="M390.42,592.63l6.32-18.35v-3.36s-20-2.82-21.11-.44S362.1,627,362.1,627l6.49,2,17.18-33.08,4.65-3.28"/><path class="ck" d="M366.27,631s12.65-36.44,15.15-37.53,9.41-2.28,9.41-2.28h0l-10.1,26.63-2.88,7.95L374.4,634Z"/><polygon class="cl" points="361.32 563.63 355.91 627.94 358.04 626.75 369.38 561.77 361.32 563.63"/><polyline class="cm" points="354.77 578.48 353.77 578.97 352.97 580.43 351 589.58 348.99 607.41 347.57 619.59 348.55 630.76"/><path class="cg" d="M359.41,541s-2,24.76-1.34,33c.12,1.54.92,4.55,1,6.09.51,11.08-3,44.27-3,44.27h1.87l.25-4.35s1.09-9,1.42-11.75c2-17.11,5.55-44.17,3.09-68-.09-.82-3.24.79-3.24.79"/><circle class="cn" cx="316.51" cy="154.06" r="114.22"/><path class="co" d="M209.59,108.43l10.33.94,5.66-.43,5.43-3.59,8.81,3.37c2.54-.4,3-5,6.09-4.79a11.86,11.86,0,0,0,6.2-1.08,4.24,4.24,0,0,1,3.7.49l2.07-.93,3.29.25,8.31,2.94,4.89,1.8s4.57,0,6.6,0c1.41,0,7.72-2.29,11.44-3.68a6.33,6.33,0,0,1,5.31.42s5.58.73,6.17.37,5-.37,11.58-1.85,8.14,1.12,10.17,0,8.63,1.47,11.67,0c1.58-.76,4.29-2.13,7.08-3.47,2.59-1.25,5.25-2.47,7.09-3.15,3.8-1.39,15.23-1.87,18.27-.29s6.85,0,6.85,0a71.26,71.26,0,0,0,9.9.29c3.81-.3,55.45,17.23,55.45,17.23l-45.57-2.66-6.48-3.5a20.53,20.53,0,0,0-11.62-.52l-10,2.53a32.63,32.63,0,0,1-7.68,1l-13.88,5.57-15.88-2.94-9.21,2.13-14.09-1-10.06,1.77-9,2.94-13.23-.88-9,3.53h-9l-6.35,3-10.78-1.07-10.55-.63-9-3.34-12.29-.87-25.92-17.4Z"/><path d="M324.31,367.91s0,19.2.34,19.42,1.37.44,1.37-1.16V365.58l-1.71.36Z"/><polygon points="320.66 387.02 320.66 388.2 314.64 388.2 314.64 390.31 379.75 390.31 379.75 387.84 321.96 388.13 321.96 386.46 320.44 386.46 320.66 387.02"/><polygon points="326.42 365.58 332.25 365.29 345.31 367.53 341.05 367.38 330.45 366.41 328.63 366.41 325.17 366.41 326.42 365.58"/><polygon points="327.84 388.85 329.36 388.85 329 365.87 327.84 365.87 327.84 388.85"/><polygon points="328.6 367.53 344.19 367.34 361.39 370.11 352.85 370.22 328.6 369.5 328.6 367.53"/><polygon points="353.5 369.5 352.85 370.22 398.31 370.95 398.31 369.57 353.5 369.5"/><path d="M379.75,387.84s17.84-2.39,18.56-3.12,1.16,3.12,1.16,3.12l-19.72,2.46Z"/><path d="M409,346.48l-4.71,4.11-3.59-1.74-.59,2s3.1.93,3.64,1.85,2.34,3.32,2.66,4.79,4.73,21.42,4.84,22.24a3.72,3.72,0,0,0,1.91,2.44c.87.33,2.24,2.54,2.75,3.56S437,449.47,437,449.47l4.68,4.46v-1.16s-2.49-3.37-3.79-5.6-16.42-53.57-18-57.37-4.35-6.91-5.11-9-2.5-4.51-3.59-10.55-4.13-17.46-4.9-17.84,3.54-3.48,3.54-3.48Z"/><path d="M314.64,408v1.15l58.73,3.94,20.88-7.1s1-.58,0-1.16-13.34,0-13.34,0l18-9.14v-1.45l-17.83,7,2.61-3.77,13.77-4.64s-.58-1.16-1.16-1.3-7.39,1.74-7.39,1.74l5.65-5.87-12.9,1.37L372.94,408s-1.16,2.34-5.37,2.48S314.64,408,314.64,408Z"/><path d="M304.06,365.87l1.3-.29s-.58,40.49-.65,42.54-.65,21-.65,21,5.36-4.49,7.1-4.92,3.19-1.16,5.8-1.16,5.78-.33,7,.11,10,2.93,11.21,3.69,9.19,5.28,9.78,5.71,1,47.33,1,47.33h-1.59l-.73-44.81s-.29-1.23-.87-1.59-7.68-4.86-10.37-5.58-6.88-2.16-11.89-1.84-8.12.07-10,1-6.16,5.95-6.45,6.24,0,38.87,0,38.87-2.69-30.17-2.65-34.3,1.41-46.11,1.41-46.11Z"/><path d="M398.31,387.48s8.74,26.46,10.23,31.57S422.88,461,424.7,462.67s-13.12-37.56-14.32-41.15-11.12-35.06-11.12-35.06Z"/><path d="M408.54,382.62s-.58,11.42.61,15.88,5.77,19.76,6.31,21.93S422.64,435,423.51,436s1.27.87,1.27.87l-2.25-6a30,30,0,0,1-5-9.14c-2.18-6-5-15-6-20.88s-2-19.79-2-19.79Z"/><path d="M402.63,386.46s.11-1.67.76-.69,16.33,58.94,20.88,68.16c.33.66-.22,1.23-.91.22-1.5-2.23-8.08-22.66-8.08-22.66Z"/><path d="M354.16,422.28s12.61-6,14.72-6.31a75,75,0,0,1,14.57-.58,99.85,99.85,0,0,1,15.44,3.36c2.25.7,6.09,3.6,6.75,4s.43,2.57.43,2.57-2,40.1-2.17,42.06-.84,17.15-2.47,17.69a99.71,99.71,0,0,1-10.6,2.31,157.71,157.71,0,0,1-17.68-.35c-1.83-.23-14.35-3.48-15-3.7h-2.5l2.29-2.21s3.46,1.39,4.49,1.72a34.2,34.2,0,0,0,4.64,1.36,80.7,80.7,0,0,0,11.31,1.52c3.81.11,12.4,0,14.47-.43s4.86-.33,5.47-1.2,1.92-3.26,2.47-8.37,4.67-50.13,3.7-51.11-1.85-2.95-5-4.14-8.26-3-11.31-3.17-16.64-1.1-18.81,0-13.82,5.67-14.47,6.21,1.31,38.29,1.31,38.29l-9-.33s.5-36.31,1.26-36.86A57.36,57.36,0,0,1,354.16,422.28Z"/><path d="M355.45,566.86c-1.85,0-6.15-22-6.88-23.28s-4.64-18.85-5.22-21.31-1.46-17.13-1.36-17.79,2.38-18.05,2.38-18.05v-7.21l14.51,2.31L357,490.07l7.76-6,4.17.86s-16.13,13.5-14.68,13.43,4.06-.65,4.35-.15-5.66,9.07-5.15,8.63,12-6.31,12.26-6.16,3.33-.58,1,1.52-13.49,7.25-13.49,7.25l.26,30.13S357.3,566.86,355.45,566.86Z"/><path d="M347.2,461.47,346,479.92l12.91,1.61s.36-14.19-.51-16.53a9.62,9.62,0,0,0-2.19-3.53l-9-.93Z"/><path d="M354.44,565.45s.44,5.76-.1,8.58a106.5,106.5,0,0,1-2.94,10.34c-.32.76-2,3.15-2,3.59s.22,8,0,9.57-1.52,12-1.85,12.94-1.52,11-1.3,12.51,1,10.76,1,11.31-.16-2.26-.16-2.26,1.34.66,1.23-3-.31-1.88,0-4.06-.22-8.7.32-12.5,2.18-16.64,2.4-18.71.54-7.72,1.52-9.35,3.59-9.14,3.48-10.66-.17-10.44-.17-10.44Z"/><path d="M381.74,564.75s-7-.73-7.52-.64-6.3,1.46-7.31,2.09a35.12,35.12,0,0,0-4.35,3.43c-.08.25.19,1,.5.92a43.9,43.9,0,0,1,4.5-.71,32.27,32.27,0,0,1,4.26.34,3.9,3.9,0,0,1,1.36.83c.14.12,1.28.16,1-.31a3.7,3.7,0,0,0-2.58-1.61,22.86,22.86,0,0,0-4,0c-1.36.19-3.75.79-3.93.82s.1-.55.65-.93a27.07,27.07,0,0,1,4.05-2.28,22.17,22.17,0,0,1,3.81-1.28c1.09-.11,2.9-.36,4.47-.41s3.38.12,3.82.06A8.07,8.07,0,0,0,381.74,564.75Z"/><path d="M359.56,579.18s0,.53.62.39,2.41-2.19,3.25-2.72a12.45,12.45,0,0,1,4.3-1.65c1.35-.11,4.2.14,4.79.14s1.59-.28,1.15-.75a2.66,2.66,0,0,0-2.52-1c-1.6.08-6.58.62-7.64,1.23a31.22,31.22,0,0,0-3.1,2.66c-.59.45-.4.33-.63.7A2.2,2.2,0,0,0,359.56,579.18Z"/><path d="M367.86,581.11a14.07,14.07,0,0,0,2.3-1.08,41.19,41.19,0,0,1,6.46-2.46c1.07-.25,4.22-.59,4.85-.63a16.15,16.15,0,0,1,2.87.07c1.15.14,2.12.38,3.4.65s1.81.55,1.68.7-4.71-.44-5.14-.34-4.74,0-6,.4-6.21,2.06-6.87,2.48-2.07,1.54-2.55,1.45-1.2.17-1.22-.23A3.56,3.56,0,0,1,367.86,581.11Z"/><path d="M363,585.43a14.58,14.58,0,0,1,5.11-1.72,69,69,0,0,1,9.57-.25,47.44,47.44,0,0,1,7.12,1.55c1.23.55,7.69,4.09,7.69,4.09l-1.6,3.53a15.25,15.25,0,0,0-2.57-3.37,13.77,13.77,0,0,0-4.59-2.83c-1.78-.47-4.82-1.56-7-1.56s-6.36-.1-7.63.11-7.35,2.21-7.62,2S363,585.43,363,585.43Z"/><path d="M394.31,581.65a58.26,58.26,0,0,1,0-6.42s1.36-6,1.81-7.49,3.08-11.43,3.3-14.15.43-8.38.43-8.38a14.51,14.51,0,0,0-2.82-1c-2.56-.76-7.24-2.5-9.85-2.82s-9.57-1.63-14.24-1.31-9.9.44-11.64.65a13.86,13.86,0,0,0-1.89.29l.09-2.06v-.13L356,511.79l-1.14-4.24.61-1s3.71,3,6.46,2.83,6.11-.25,10.75-.11,10.44,0,12.78.24a50.51,50.51,0,0,1,6.42,1.08c.71.28-.11-2.44-.11-2.44s-8.05-5.55-12.18-6.53-12.4-1.2-13.27-1.74,2.94-2.39,2.94-2.39,6.41,1.09,8.05,1.63a41.84,41.84,0,0,1,6.3,2.39c1.2.76,8.38,5.55,8.38,5.55s.32-6.31.54-7.18,3.92-14.46,3.92-14.46l2.61-.66s-3.59,8.92-3.81,10-1.09,5.11-1.41,6.85-.22,9.46-.22,9.46,1.3,1.85,1.63.76.55-8.48,1-11.09,3.64-16.53,3.64-16.53l2.32-.49s-3.71,14.63-3.86,15.93-1.56,12-1.45,12.84-1.85,2.93-2.5,2.17a16.24,16.24,0,0,0-5.87-2.93,129.83,129.83,0,0,0-15.34-1.09c-4.24,0-11.53-.44-11.42.11s-1.41,27.73-.54,27.3,15.55-.33,17.18-.22,10.77,2.17,11.75,2.39S404.58,545,404.58,545s-2.61,6.74-2.93,8.15-3.7,19.31-4,21.13-1.62,6.17-1.62,6.17Z"/><path d="M390.23,541l2.35,1.09s2.87-11.75,3-13.49.76-16.42.76-16.42L395,513s.11,8.05-.21,9.79S390.23,541,390.23,541Z"/><path d="M358.57,561.79a35,35,0,0,0,3.85-.59c5.22-.94,18.52-.22,20.23,0,4.5.58,19.82,7.57,20.45,8s0,1.3,0,1.3-16.61-6.74-21-7.39c-3.87-.58-14.5-.73-19.29.5s-4.32,1-4.32,1Z"/><path d="M332.91,643.31s-.81,1.42-.65,1.42,2.9-3.92,3.41-4.5,4.93-5.11,6.34-5.11,4,.2,4.25,0a10.48,10.48,0,0,0,1.44-2.83c0-.43-.59-4.94-.59-4.94s-.91,5.8-1.73,5.8a18.57,18.57,0,0,0-4.17.25,44.73,44.73,0,0,0-3.91,2.9c-.42.33-3,3.53-3,3.53Z"/><path d="M332.91,630.21l.36,1.69s2.4-.12,3.61.86c1.47,1.2,2.92,2.61,2.92,2.61l1.09-.79s-4.2-4.36-5.15-4.37Z"/><path d="M306.71,572.61s9.51.12,9.29-.42-2.28-6.15-2.28-6.15l-9-.16-.62-1.84s4.81-.23,6.23.21a20.47,20.47,0,0,0,4.62.32l3,9.46H307.4l-.69-1.42"/><path d="M301.68,556.49h11.55l1.85,8.43H313s-.52-6.72-1.06-6.77-7.54,0-7.54,0l1.74,6.41h-2l-2.44-8.08"/><path d="M317.33,581.6a2.22,2.22,0,0,0,1.19-2.78,45.33,45.33,0,0,0-3.06-5.66h2.22s3.05,5.22,2.94,5.93-2.5,3.81-2.5,3.81Z"/><path d="M311.92,556.49s8.54-.51,9.19-1.22,1.25,3.05,1.25,3.05l2.07,8-9.35.49-.87-2.61,7.56-.26s-.71-5.16-1.47-5.73c-.26-.18-7.4.6-7.4.6Z"/><polygon points="322.25 566.17 324.03 571.68 316.85 572.58 317.96 574.54 326.39 572.77 324.27 565.75 322.25 566.17"/><path d="M319.9,578.78l-.51,1.71s8.05,0,8.27-.55-.94-7.29-1.38-7.52-1.85.6-1.85.6,1.7,4.16,1.7,5.2S319.9,578.78,319.9,578.78Z"/><path d="M326.39,579.74s1.6,8.51,2.2,8.43,1.06,0,1.11-.51-2.16-9.52-2.16-9.52Z"/><path d="M325.52,554.53s8.92,31.69,9.71,32.05,1.11-.06,1.16-.73c.08-1-8.49-29.58-8.71-29.72-.61-.42,5.12-2,6-2.29a9.24,9.24,0,0,1,2.78-.11s-.1-2.32-.9-2.39S325.52,554.53,325.52,554.53Z"/><path d="M334.35,553.31s7.35,32.91,7.63,33.12,1.08.22,1.08-.36-6.83-33.67-6.83-33.67Z"/><path d="M328.49,561.49s7.47.29,7.47-1.88.46,2.24.46,2.24-6,3.75-7.28,2.4A2.69,2.69,0,0,1,328.49,561.49Z"/><path d="M330.52,568.16s5.37-2.1,7.32-1.67.51,1.67.51,1.67-7.15,1.63-7.38,1.32A5.19,5.19,0,0,1,330.52,568.16Z"/><path d="M333.64,578v2.09s6.67-1,6.74-2.09a4.28,4.28,0,0,0-.72-2.26S335.12,578.63,333.64,578Z"/><path d="M326.21,449.9s-.48,1.16.18,1,6.34-9.46,6.41-9.6-.5-1.35-1-.77S326.21,449.9,326.21,449.9Z"/><path d="M333.71,450.12s.47-1.74-.4-1.19a28.58,28.58,0,0,0-4.68,6.45,6.81,6.81,0,0,0-.21,2.25c.11.4.82.36,1,0s2-4.75,2.39-5.26S333.71,450.12,333.71,450.12Z"/><path d="M329.36,464.91s.22,12.11.43,13.78,5.15,24.65,5.15,25.38a45.64,45.64,0,0,0,0,5.36c.22.73,1.09,1.31,2.18-1.45s6.74-14,6.74-14,1.45-5.59-1.09-1.16-5.95,11.67-5.95,11.67-1.59-6.81-1.95-7.68-3.63-16.83-3.7-18.64S330,465.35,330,464.91,329.36,464.91,329.36,464.91Z"/><path d="M375.63,416.44s-1.39,35.13-1.17,36.93,1.17,2,1.17,2l1-39.37Z"/><path d="M375.54,465.38s.19,11.35,2.14,12a63.7,63.7,0,0,0,9,2.54c2.17.26-6.42-2.43-7.58-3.88-.76-.94-1.74-11.33-2.41-11.32A1.55,1.55,0,0,0,375.54,465.38Z"/><path d="M358.36,479.22s12.47,1.71,15.45,1.49,16-.79,16-.79l.51,1.61s-13.34.66-16.62.66a143.52,143.52,0,0,1-15.36-1.42C357.35,480.43,358.36,479.22,358.36,479.22Z"/><path d="M388.74,480.36s1.67-19.87,3.05-27.19,4-23.28,4-23.28h1.3s-2,12.76-2.47,15.23-3.19,20.23-3.4,22.55-.87,13.86-.87,13.86Z"/><path d="M398,526.18a3.5,3.5,0,0,0-2.26-1.31c-.4,0,0-1.79,0-1.79a2,2,0,0,1,2,.54,10.44,10.44,0,0,1,2.17,4.08c.16.87,1.14,7.83,1.3,9.25s.66,7.67.66,7.67l-2.29-1a19.6,19.6,0,0,0,.33-3.21"/><polygon points="310.35 368.81 310.35 384.47 322.25 384.47 322.25 383.33 311.38 383.22 311.21 369.89 321.96 369.89 321.96 368.81 310.35 368.81"/><polygon points="318.52 369.5 318.52 383.71 320.57 383.71 320.35 369.5 318.52 369.5"/><path d="M394.74,458.53c-.05-.7.22-1.25,1.14,0s2.29,3.27,1.8,3.21a2,2,0,0,1-1.42-.76C395.83,460.44,394.74,458.53,394.74,458.53Z"/><path d="M395.67,462s-1.09-1.8-1.42-1.47.38,1.64.71,1.91S395.83,463,395.67,462Z"/><path d="M359.81,494.59s.15-1,2.32-1.36,8.7-1.37,11.17-.42,9.13,3.35,9.57,4.22,1.52,4.06-1.23,2.18-7-4.45-10-4.62S358.58,496.64,359.81,494.59Z"/><path d="M393.27,537.2s6.2-5.07,6.42-4-6.6,5.95-6.92,5.8S393.27,537.2,393.27,537.2Z"/><path d="M373.51,539.14c-.47-.4-3.15-.87-1.2-2.54s15.3-1,15.3-1,1.53.8-1.45.8-12.69.21-12.72.49-.73.53-.44.82,1.78.58,1.69,1S373.51,539.14,373.51,539.14Z"/><path d="M389.88,529.52s-1.22-.78-.47-1.33,1.88,0,1.86.27.16.82-.26,1.06A1.76,1.76,0,0,1,389.88,529.52Z"/><path class="cp" d="M464.57,544.61s5.78,13.07,8,17.43c1.6,3.21-3.79-5.43-4.05-6.18C467.6,553.33,464.57,544.61,464.57,544.61Z"/><path d="M466.32,530.5a14,14,0,0,1,4.72,4.86,13.52,13.52,0,0,0,2.17,3.58l-1.08-2.64a19.26,19.26,0,0,0-3.22-4.72A9.64,9.64,0,0,0,466.32,530.5Z"/><polygon points="465.14 591.35 466.88 595.02 468.97 595.53 466 591.18 465.14 591.35"/><path class="cq" d="M331.6,635a20.94,20.94,0,0,1,2.69,1.06c2.39,1,7.69-.58,8.34.36a2.8,2.8,0,0,1-.58,3.77c-1.38,1.09-7.47-.65-7.18.94s2.68,2.76,2,5-8.74,11-10.31,10.65-2.42-1-2-1.68,4.11-10.82,4.11-10.82,1.94-1.62,1.09-2.87-.42-2.29,0-3.28A27.46,27.46,0,0,1,331.6,635"/><path class="cr" d="M346.31,657.32a33.77,33.77,0,0,0,4-11c.18-1.15-.15-6.56-.06-7.12a30.61,30.61,0,0,1,3-5.36c1.73-1.72,2.38-4.5,4.07-5.86,2.11-1.69,1.65-1.41,3.17-.9s2.68,3,2.32,5-1.51,5.79-1.51,5.79l-5.86,20.68-2.33.77C352.66,659.42,346.31,657.32,346.31,657.32Z"/><path class="cs" d="M453.43,407l1.29,22.89h9.67a12.94,12.94,0,0,0,1.57-3.06c.18-1-1.82-16.23-1.82-16.23l.21-2s.38.64.74-.49a3.38,3.38,0,0,0-.14-2.21l-7.55.29-4,.82"/><polygon class="ct" points="438.41 426.19 446.84 426.23 442.98 437.29 439.83 440.91 438.84 439.1 438.41 426.19"/><polygon class="ct" points="449.11 433.45 452.07 446.5 444.64 457.08 441.71 458.17 441.71 451.06 444.79 439.83 448.56 434.39 449.11 433.45"/><path class="cu" d="M443,426.41a24.64,24.64,0,0,0,0,5.37,6.18,6.18,0,0,0,1.19,2.61l2.67-8.16s3-1.12,3.1.55a22.65,22.65,0,0,1-.73,5.72c-.29,1.16-.74,9.81.15,12.91a16.7,16.7,0,0,0,1.54,2.71l12.74-17.57-9-.29-.8-12.77-9.68,7.4Z"/><polygon class="cv" points="388.65 343.74 346.78 342.87 335.69 366.41 355.64 370 375.9 370.22 397.9 370.22 400.9 347.31 388.65 343.74"/><polygon class="cw" points="452.73 407.11 459.36 406.04 449.21 347.45 442.98 350.35 452.73 407.11"/><path class="cx" d="M439.83,350.81l10.32,56.39,3.28-.76s-8.78-50.87-9-52.18c-.23-1.48,3.86-3.4,4.84-1.12s7.41,53.19,9.67,52.7c2.18.29,6-.89,6-.89l-2.66-10.37,1.72-2.3,1.59-3-2.12-1.73L457.09,355l-1-10.94-2.54-.29-13.75,7.07"/><path class="cy" d="M428.57,358.86l12.12,45.57,2.29,3.42,7.66-.74s-7.52-54.71-9.4-55.37S428.57,358.86,428.57,358.86Z"/><path class="cz" d="M418.69,366.92s23.17,40.93,22.53,36.8-7-46.7-12.67-44.23a30.66,30.66,0,0,0-9.86,7.43"/><path class="da" d="M420.3,369.08s1.31-1,2.23,0,20.23,31.81,20.23,31.81,1.69,2.28,0,2.28a9.81,9.81,0,0,1-2.83-.38Z"/><polygon class="db" points="431.77 298.55 434.66 310.46 440.08 318.13 446.46 330.58 445.53 340.96 453.36 342.38 458.75 345.04 462.44 345.04 464.36 342.29 468.16 340.31 472.4 340.16 474.64 341.59 476.15 344.34 477.02 346.48 478.65 346.37 480.12 347.07 481.57 348.75 484.25 348.43 486.21 347.71 487.61 348.75 488.39 349.94 490.67 349.94 493 350.86 494.75 352.42 495.07 354.31 497.39 356.47 498.2 360.54 497.38 365.01 495.64 368.3 489.86 379.42 487.77 384.83 487.26 389.25 487.07 391.59 488.93 390.96 489.56 390.03 490.53 387.46 494.85 382.41 498.81 377.93 501.68 375.42 505.25 370.05 506.13 367.82 506.72 359.06 507.92 353.17 509.32 348.36 505.88 344.63 504.8 335.21 504.4 331.01 502.19 324.65 501.05 321.93 495.68 320.5 485.89 314.01 470.75 304.96 454.23 297.35 439.44 290.34 437.9 294.9 431.77 298.55"/><path class="dc" d="M325.65,364.93v1.16l12.21.54.44-4,17.56-1.79-12.34-8,6.06-9.08s27.27.69,32.22.53,7.34,1.84,5.6,3-5.44,3.66-8,4.41-17.83,2.87-19.9,4-2.18,2.82-1.85,3.53,6.58,1.41,7.51,1.31,7.34.21,12.56-1.47S397.35,349,397.35,349l4.3-2.48,4.78-5.84-62.25-2.1Z"/><path class="dd" d="M398.66,359.83s-38.78,3.65-41.87,3.43-4.08,2.33-3.49,3.15,4.68,1,7.62,1.12,29.15-.46,32.57-1.44a20.52,20.52,0,0,0,5.17-2.12Z"/><polyline class="de" points="292.57 235.55 281.65 243.08 301.08 245.33 314.61 246.92 315.33 249.82 328.85 251.35 328.2 248.88 297.48 232.68 297.29 234.93 292.57 235.55"/><polyline class="df" points="299.47 251.51 298.17 260.74 297.24 281.15 297.22 298.3 300.71 303.86 301.97 251.51 299.47 251.51"/><path class="dg" d="M309.23,254.83s-3.07-.44-3.67.81S302,267.17,302,267.17l-1.09,27.9.76,1.11,2.83-18.49,4.76-22.86"/><path class="dh" d="M301.67,267.12l4.76-11.59s2.5-.16,2.8-.7,1.71-8.34,1.71-8.34L297.46,245l-3.65,21.42-4.67,16.64-5.77-.27v4.65l5.55,1.77-.27,11.15s3.8,2.55,4,4.62-.05,5.44.6,6.36,1.9,2.61,2.5,2.72a5.27,5.27,0,0,0,1.39,0l.64-46.87,1.67-15.72H302V256l-.3,11.1"/><path class="di" d="M261.38,290.28l1.42,2.44,1.76-.32,1.09.82,5.92-4.41a5.5,5.5,0,0,1,2.81-1h8l1-1.68v-3.57L278,283.81s-15.46,5.06-15.59,5.44S261.38,290.28,261.38,290.28Z"/><path class="dj" d="M267.82,294.69s.25-2.72,5.57-2.12,16.45,8.73,16.45,8.73l-.54-12.92-12.4-.5-6.69,1-3.91,4.3Z"/><path class="dk" d="M413.87,231,412,234.92l12.5,9s5.7,6.3,7.15,8.77,3.15,5.29,3.48,6.2.18.61.38,3.44,1.36,24.22,1.14,25.16-3.41-1.75-3.41-1.75l4.64,8.13,2.18-3L438,285.74l-1-26.83-1.54-4.85-9.77-12.93-7.58-6.24v-3.2l-1.55-1-1.74,2Z"/><polygon class="dl" points="425.73 245.97 425.57 242.79 435.53 258.14 436.61 275.17 437.1 288.92 432.64 288 431.09 264.79 425.73 245.97"/><polyline class="dm" points="353.5 298.04 350.21 304.58 356.42 308.09 359.65 301.93 353.5 298.04"/><polyline class="dm" points="347.42 311.38 336.25 326.9 342.94 331.35 352.14 314.1 347.42 311.38"/><polyline class="dn" points="346.86 295.91 353.5 298.04 362.69 304.58 388.87 257.33 386.64 255.44 387.78 249.79 376.19 244.2 353.98 283.57 346.86 295.91"/><polyline class="do" points="314.4 227.67 336.56 245.75 339.01 237.92 319.81 224.1 314.86 227.67"/><polyline class="dp" points="356.07 252.98 355.55 255.08 363.69 254.03 380.49 239.55 375.29 237.89 356.07 252.98"/><polyline class="dq" points="298.32 232.24 311.7 239.63 318.18 231.17 310.45 225.95 298.32 232.24"/><polygon class="dr" points="339.01 253.59 347.32 254.61 346.34 252.98 317.63 230.79 310.94 239.55 339.01 253.59"/><path class="ds" d="M358.87,388.38s.43-3.9,2.52-3.87,2.41,3.87,2.41,3.87h5.44V370.29h-5.55s-.62,3.56-2.21,3.56-2-3.34-2.05-3.63-10.93-.72-10.93-.72v4.13l6.09.14-.22,10.86H348.5v3.75Z"/><polygon class="dt" points="365.36 236.3 374.24 238.46 392.22 224.13 391.28 222.63 384.85 221.4 365.36 236.3"/><path class="du" d="M381.42,191.6s-3.19,11.48-3.34,13.32-1.94,7.93-1.76,11.73,0,12.73,0,12.73l8.53-7.29c-.88,0-1.44-29.07-1.44-29.07l-1.91-2.84-.07,1.42"/><polygon class="dv" points="349.2 235.09 342.07 241.78 345.04 244.69 363.69 242.51 359.44 238.64 354.34 234.57 349.2 235.09"/><polyline class="dw" points="359.99 239.17 361.44 241.99 359.62 241.99 352.96 235.25 350.68 235.25 345.09 242.57 342.99 242.57 343.39 240.83 338.31 237.92 334.8 243.91 345.96 252.98 354.99 253.59 360.36 250.01 374.68 238.55 365.11 235.9 359.99 239.17"/><polygon class="dx" points="389.69 226.37 374.68 238.55 379.62 240 393.24 227.68 389.69 226.37"/><polyline class="dy" points="379.44 240.57 389.19 246.49 396.86 230.25 409.86 238.37 411.76 235.25 398.49 227.09 394.01 227.34 379.44 240.57"/><path class="dz" d="M388.87,245.85l-1.8,6.2-.43,3.39s.13,3.14,1.72,1.45,4.32-5.49,4.32-5.49l3,4.08,2.74.76-2.74,17.91s4.77,5.8,5.93,2.9,3.22-41.8,3.22-41.8l-8-5-8,15.6"/><polygon class="ea" points="403.32 234.63 410.35 238.46 403.06 269.18 403.32 234.63"/><polygon class="eb" points="364.2 253.59 369.99 255.1 376.19 244.2 387.78 249.79 388.87 246.29 379.44 240.57 364.2 253.59"/><polygon class="ec" points="349.06 260.81 351.86 272.3 355.37 281.15 369.99 255.1 361.73 254.06 347.92 256.12 349.06 260.81"/><polygon class="ed" points="337.93 289.23 344.51 286.77 345.91 301.55 355.66 307.68 362.86 311.55 362.35 320.7 382.56 318.61 381.47 324.3 353.21 337.01 346.51 338.54 344.66 337.74 348.13 332.32 356.52 319.76 355.88 317.5 341.18 306.87 338.79 306.11 337.93 289.23"/><polygon class="ee" points="346.86 265.67 345 265.95 338.35 279.9 345.75 297.84 355.37 281.15 349.88 264.72 346.86 265.67"/><polygon class="ef" points="345.82 254.61 327.33 252.25 338.35 279.9 346.86 263.22 345.82 254.61"/><polygon class="eg" points="311.6 256.57 308.25 258.54 304.96 282.02 304.96 312.22 304.8 314.81 334.25 316.28 340.31 307.18 340.02 288.51 311.6 256.57"/><path class="eh" d="M308.55,257.44l4.21,24.76S307,285,307.3,287.85s4.08,15.23,4.08,15.23l15.33,5.29s11.59-3.4,11.21-5.43-8-5.1-8-5.1-2.76-3.46,1.52-4.26,10.39-5.19,10.39-5.19l-3.5-8.49s-6.74-27-11.38-28-16.57-1.58-16.57-1.58l-1.85,7.11"/><path class="ei" d="M332.25,321.12a5,5,0,0,1-.75,1.32l4.75,4.46,11.45-15.84-7.79-4.19-3.29,4-4.37,10.23"/><path class="ei" d="M352.38,314.44l-9.64,16.81,4.2,2.1s7.33-8.48,7.51-9.1,2.18-5.88,1.95-6.16S352.38,314.44,352.38,314.44Z"/><path class="ei" d="M346.86,295.91s-1.67,2.75-1.51,3.33.23,2.3,1.09,3a36.87,36.87,0,0,0,3.77,2.3L353.5,298l-6.64-2.13"/><path class="ei" d="M359.46,302.28l-3.34,5.7s6,3.8,6.08,3.8a10.71,10.71,0,0,0,2-1.78c.34-.49,1.49-2.93.95-3.73s-5.65-4-5.65-4"/><polygon class="ej" points="392.38 250.9 399.01 256.2 393.24 292.78 390.28 294.42 363.15 320.63 360.99 320.63 362.86 311.55 365.25 306.85 363.09 304.31 392.38 250.9"/><polygon class="ek" points="403.06 276.69 395.72 274.15 391.53 298.98 402.08 293.27 403.06 276.69"/><polygon class="ea" points="412.42 236.79 414.48 237.92 410.35 290.39 425.03 293.27 431.67 292.89 435.53 293.65 432.1 296.1 416.01 297.35 402.08 291.48 403.55 277.45 410.73 238.46 412.42 236.79"/><polygon class="el" points="411.73 267.07 426.95 267.6 419.63 247.47 413.49 249.72 411.73 267.07"/><polygon class="em" points="414.99 237.89 413.49 250.48 420.14 249.06 415.21 236.79 414.99 237.89"/><path class="en" d="M411.76,266.46l13.52.61s-7.39-24.89-10.73-28.3,1.36-2.29,1.36-2.29,8.21,6.06,9.37,7.94a84.66,84.66,0,0,1,5.37,14.12c.94,3.79,1.74,4.23,2,7.92s1.09,13.13,1.05,16.25,4.24,10.56,4.24,10.56l-27.55-2.17Z"/><polyline class="eo" points="280.87 243.13 267.17 252.25 267.77 253.96 289.48 244.42 280.87 243.13"/><polygon class="ep" points="262.03 266.07 265.21 264.72 270.81 257.27 285.06 248.54 287.61 248.3 277.44 283.92 256.57 291.23 262.03 266.07"/><polyline class="eq" points="266.73 253.85 262.03 267.05 267.17 266.07 270.16 259.72 274.62 259.61 262.45 289.25 274.38 283.87 282.5 251.19 285.66 250.33 277.44 283.54 283.1 283.05 290.44 244.42 266.73 253.85"/><polygon class="eq" points="273.96 279.35 279.68 278.7 278.04 283.81 272.82 285.23 273.96 279.35"/><polygon class="er" points="290.44 244.1 297.95 244.88 294.57 264.34 289.48 283.11 283.37 282.83 290.44 244.1"/><path class="ep" d="M289.74,250h4.07s-3.22,18.65-4.33,19.47a10,10,0,0,1-3.61,1.14Z"/><polygon class="es" points="263.16 292.38 264.73 299.03 261.42 304.53 257 314 255.84 318.1 255.15 327.64 250.96 327.64 253.25 331.45 250.96 333.02 254.01 337.59 253.63 342.49 253.08 344.36 253.45 346.15 261.49 342.38 267.88 342.38 271.57 342.31 288.47 308.37 264.32 291.99 263.16 292.38"/><polygon class="et" points="267.22 294.27 270.74 291.01 289.7 297.91 294.59 303.86 297.22 313.45 294.85 326.46 293.06 328.67 293.47 333.89 290.64 335.63 287.81 340.86 284.51 347.89 277.15 343.63 267.22 342.16 261.49 342.38 261.49 337.08 257 328.97 258.16 328.31 264.32 330.83 269.83 328.67 265.05 325.63 264.74 323.19 258.59 319.25 260.77 317.68 259.21 316.28 262.45 314.44 270.27 314.44 279.62 318.23 278.07 315.84 272.76 311.55 267.95 305.76 265.34 302.06 268.24 303.01 281.29 309.82 277.11 304.17 277.74 303.06 267.22 294.27"/><polyline class="eu" points="250.49 345.19 241.94 351.24 253.86 390.3 258.7 383.2 250.49 345.19"/><polyline class="ev" points="258.7 383.45 262.07 381.48 258.23 360.94 256.59 344.24 253.34 345.75 252.87 343.06 250.47 344.55 258.7 383.45"/><path class="ew" d="M256.75,344.36,258,358.87l4.35,23,2.68-1.81,3.55.1s-3.3-37.59-4.75-37.81S256.75,344.36,256.75,344.36Z"/><path class="ex" d="M262.33,343s3,13.67,3.73,18.28,2,18.64,2,18.64H279.4l3.77-32.83-6.81-3.79-9.65-1.38Z"/><polygon class="ey" points="364.24 320.46 383.44 318.34 391.91 292.57 364.24 320 364.24 320.46"/><polygon class="ez" points="390.59 306.11 393.78 306.11 399.01 340.28 408.18 339.63 401.35 293.27 392.4 296.81 390.59 306.11"/><polygon class="fa" points="352.76 337.27 381.85 323.9 391.23 296.18 390.59 305.81 396.32 305.56 399.65 340.28 350.21 338.54 352.76 337.27"/><polyline class="fb" points="297.16 298.88 297.22 313.45 301.97 312.74 300.88 303.06 297.16 297.84 297.16 298.88"/><polyline class="fc" points="303.24 287.88 300 312.74 304.93 312.87 305.43 286.42 303.24 287.88"/><polygon class="fd" points="297.22 313.12 304.18 308.15 305.11 320.78 318.99 331 317.5 335.45 293.69 334.77 292.85 329.47 295.5 324.4 297.22 313.12"/><polygon class="fe" points="305.43 314.44 305.11 320.78 325.48 334.77 331.86 322.95 333.13 316.88 305.43 314.44"/><polygon class="ff" points="302.53 351.73 307.32 341.28 316.3 339.57 321.16 342.83 309.64 364.93 307.32 364.93 302.53 351.73"/><path class="fg" d="M303.69,352.89s2-12.21,9.21-11.61,6.65,4.58,6.65,4.58l6.1-11.43-7-3.66-2.05,4-4.85,3-12.18,6.62Z"/><polyline class="fh" points="293.69 334.77 299.27 344.36 314.67 335.94 293.69 334.77"/><polygon class="dn" points="332.25 322.76 347.27 333.35 337.93 349.01 322.25 368.24 320.57 367.18 320.44 364.93 309.64 364.93 310.65 361.88 322.4 340.71 331.25 324.16 332.25 322.76"/><polyline class="fi" points="408.54 339.95 403.52 344.19 400.13 349.74 405.31 352.17 408.72 348.4 409.66 345.75 408.54 339.95"/><path class="fj" d="M401.65,292.13v10.93L409,341.94l.82,7,8.32,17.24.62,1.2,14.71-11.72,12.62-7.15-2.72-7.29-.49-12.37s-7.88-17.38-8.1-20.72-2.39-9.11-2.39-9.11l-19.85-3.07-10.5-4.43Z"/><path d="M431.52,325.41s-3,3.27-1.15,2.69,6.59-2.69,7.39-2.33,3.55,1.24,4,3,1.38,11.89,1.16,12.69,9.28,1.08,10,1.37,3.62,1.38,3.62,1.38l.87-.65a23.18,23.18,0,0,0-4.71-2.39c-2-.58-5.07-.22-4.86-.87s2.9-.51,3.34-.66.07-1.88,1.16-2.68,1.23-.43,2.32-1,.43-5,1.3-5.44,3.12,1.45,3.78-.66-2.91-4.27-1-4.42,2.68,1,3.7,0,.58-2.83,1.81-2.75,18.56,10,20,9.64,4-1.74,2.25-2.83-11.6-7.83-14.07-8.48-19.36-2.39-22.84-2.25-5.72-4-5.8-5.07-4.2-3.7-5.22-1-3.07-4.25-3.57-4-2.72,1.72-2.59,2.16,2.54.5,2.83,1.37,1.57,5.66,1.11,7.4S431.52,325.41,431.52,325.41Z"/><path class="fk" d="M483.65,330.78s10.66,0,13.27,1.16,8.41,7.1,8.41,7.1l.59,5.64s3.58,2.55,3.4,2.92-1.9,7.12-1.9,7.12l-.93,7.58-.81,7L501.1,376l-7.85,8.27s-3.24,5.07-3.71,5.83-1.77,1.92-2.05,1.48-.86-3.8-.42-4.38a38.47,38.47,0,0,0,1.63-5l6-12.08,3.42-7,.05-5.12-2.88-3.39-1.16-2.86L491.69,350,489,350l-1.36-.68-.52-1.19-2.94.42-1.42,1-2.12-1.63-1.87-1.37h-1.59L475,342.12l-2.17-2.28-5,.59-3.25,1.64-1.83,2.57-2.27.59-2.85-1-4.71-2.39-5.73-.58-2.17-.51,4.42-8.77,6.38-8.49,5.73-2.17,7.76.36Z"/><path class="fl" d="M417.15,363.21c1.52.32,4.18,1.36,3.15-1.15s-7.29-9.68-7.23-10.36.06-13.19-.33-14.92-4.68-19.69-5.27-17.78.94,10.11,1.07,11.25,2.73,9.62,2.41,12.94-1,5.77-.76,6.48S417.15,363.21,417.15,363.21Z"/><path class="fm" d="M437.81,420.52s0,6.26,2,6.69,6.52-.38,7-1,7-6.2,7-8.32-.42-10.91-.42-10.91l-10.89,1.12Z"/><polygon class="fn" points="257.16 391.37 259.21 388.48 263.31 406.06 260.23 410.03 257.16 391.37"/><polygon class="fo" points="265.01 380.05 268.56 380.15 272.75 392.46 263.31 406.06 259.03 386.66 265.01 380.05"/><polyline class="fp" points="272.75 391.54 275.38 387.95 270.49 379.29 267.38 379.94 272.75 391.54"/><polygon class="fq" points="259.88 411.66 260.23 415.25 261.51 417.3 266.79 418.78 267.77 416.82 270.05 414.12 271.79 409.81 273.8 407.47 275.38 406.06 277.93 407.58 279.13 409.1 280.49 405.19 283.17 398.23 284.91 396.77 286.8 397.25 288.97 398.33 291.1 400.2 290.82 391.54 286.64 387.79 279.95 381.48 277.28 379.95 270.97 380.15 275.06 388.38 266.84 399.42 261.84 409.05 259.88 411.66"/><path class="fr" d="M267.82,418.21l10.71,6.44,3,1.12-5-5.49-7-5.82s-2.34,2.61-2.2,3A1.87,1.87,0,0,0,267.82,418.21Z"/><path class="fr" d="M270.68,413.21l.35,2.66,10.06,9.22,4.24,2.39,2.83,1.09,1.9-.35,2.67,0,1.11.38h.65v-2.8l-3.2-16-.2-7.26-.21-2.34-3.16-2.72-3-.49-2.1,2.5s-2.58,6-2.58,6l-1.14,3.23-2.4-2.13-3,0Z"/><path d="M381.28,517.67c.1.13,4.84.76,5.66.22s-2.1-.23-2.8-.21A24.34,24.34,0,0,0,381.28,517.67Z"/><polygon class="fs" points="341.4 157.76 345.89 146.25 335.69 149.18 329.01 153.32 323.75 160.42 321.88 165.07 320.43 171.52 320.02 173.18 317.31 175.97 313.23 180.44 312.95 192.18 317.96 196.6 319.48 197.95 321.17 195.95 323.81 197.86 329.71 204.67 331.33 207.26 335.31 214.8 337.45 223.61 338.24 228.51 337.92 230.57 343.35 240.46 346.62 236.81 349.55 234.63 355 234.56 356.07 195.05 374.68 188.22 375.29 168.15 341.4 157.76"/><path class="ft" d="M356.08,196.24,355,234.92l5,4.25L376.9,228l-.34-14,2.09-11.41,2.77-11,.38-2.25,1.73,4,.93-.16-.58-16.75-3.91.29-.2-2.32-6.22,2.45s1,.11,1,1.59-1.25,1.69-2.41,1.82-3.18-.06-2.54-2.65l-13.54,18.65"/><path class="fu" d="M356.08,197.19l-.14,4a25.82,25.82,0,0,1,4.56,0c1.18.28,3.61,1.78,3.84,3s-1.92,3.66-2.46,4.93a11.64,11.64,0,0,0-.36,4.13c.19,2.48,1.37,9.86,1.37,9.86l5.51-18.24-.14-6.48,4.64-4.65s1.65-3.69-2.25-2.15-14.57,5.64-14.57,5.64"/><polygon class="fv" points="317.03 176.53 313.23 181.07 313.5 186.17 317.96 181.07 317.82 176.07 317.03 176.53"/><path class="fw" d="M345.24,146.25c-.16,0-10.66,3.26-11.08,3.95s-.67,8.48.46,9.17,2.72,1,2.72,1.78-.44,3-.08,3.44,4.68-.72,6.56-4.93,1.42-13.41,1.42-13.41"/><path class="fx" d="M319.81,180.11s.65,1.69,1.85.6,4.73-1.79,5-2.44,4.57-8.63,5.38-9.22a11,11,0,0,0,2.78-3.19c.09-.56-6.2-.11-6.58-1s-.6-6.58,0-7.83-1.15-1.6-1.15-1.6l-4.3,6.76-2.36,9.2-.95,3.37Z"/><path class="fy" d="M336.8,196s-4,5.69-4.24,5.53-.76-3.11-2-2.76-2.95,3-3.26,2.64-4.19-4.09-4.08-4.5,5.12-6.87,5.36-7.92.78-7.17,1-7.23,5.55,1.64,5.55,1.64Z"/><path class="fz" d="M333.54,200.07s2.83-3.42,2.88-3.94-1.5-1.2-1.44-1.64-.13-1.29.46-1.46,12.71,3.39,12.71,3.39l.59,38.5-.82,1Z"/><path class="ga" d="M332.56,201.48s1.71,3.37,2.36,5.22,3.54,9.57,4,11.26,2.56,12.34,3.05,15.39a24.33,24.33,0,0,0,2.12,6.2l4.09-3.7A44,44,0,0,0,346.4,228c-1.25-3.65-5.4-14.74-6.45-16.86s-5.84-11-6.17-11.31S332.56,201.48,332.56,201.48Z"/><polygon class="gb" points="427.75 154.66 433.66 172.34 406.7 226.59 404.87 231.01 399.98 227.53 403.35 223.29 406.49 214.17 408.49 213.83 427.21 154.66 427.75 154.66"/><polygon class="gc" points="433.08 171.05 454.36 183.17 438.02 197.27 420.97 216.65 412.31 234.93 404.17 230.45 433.08 171.05"/><path class="gd" d="M427.75,154.66c.15,5,3.22,12.69,5.22,16.53a31.53,31.53,0,0,0,7.83,8.65c2.78,1.85,9.84,4.42,13.05,2.83s23.55-18.44,23.55-18.44-8.33,6.82-27.63,5.66c-1.68-.1-6.31-2.34-6.31-2.34A40.61,40.61,0,0,0,440,164c-4.41-3.28-3.19-10.8-3.65-14.86-.17-1.52,1.38-10.08,1.42-11.6A72.76,72.76,0,0,1,439.5,127l-6.9,15.32-5.21,11.75A2,2,0,0,1,427.75,154.66Z"/><path class="ge" d="M341.87,158.5s-2.21-.69-2.4-2.21-.14-4.35.77-5.11,4.93-4.53,5.65-4.75a54.83,54.83,0,0,1,6.45-1.08c1.06,0,3.77.32,3.77.32l-.08,5.84Z"/><path class="gf" d="M357.74,152.59l6.12-5,5.34,4,3.73,4.51,5.12,9.64,1.72,8.61s-3.46,3.34-5.64,2.68-4.52-.55-5.44,2.28S357.74,152.59,357.74,152.59Z"/><path class="gg" d="M356.11,145.85l-.08,5.66,2.39,1a5.31,5.31,0,0,1,2.73-2.05,10.5,10.5,0,0,0,3.59-2s-4.38-2.4-5.61-2.62A12.24,12.24,0,0,0,356.11,145.85Z"/><path class="ge" d="M331.43,169.49s-5,.54-5.8,2.54a10.3,10.3,0,0,0-.19,5.32c.19,1,.33,2,1.09,2.18s2.58.33,2.65.65.14,2.38.58,2.81a2.25,2.25,0,0,0,2,.94c1.23,0,1.66-.45,2.24,0s.68,4.18,1.16,4.63S340,190,340,190l-1.06-6-4.73-6.9s-1.07,1.78-1.9,1.74a2.53,2.53,0,0,1-2-1.52c-.34-3.2,3.51-3.23,3.51-3.23Z"/><path class="gh" d="M346.83,177.39s-10.33-.76-11.63.65-1-4.35-2.83-5.33-1.42-5.43.65-6.52,5.13-2,4.9-3.81,1.53-3.82,4.93-4.78,10.91-7.4,12-7.4,4.24,2.24,4,3.48a29.78,29.78,0,0,1-2.63,9.57,95.21,95.21,0,0,1-9.45,14.14"/><path class="gi" d="M358.42,152.47a51.19,51.19,0,0,1,4.52,7c1.88,3.62,5.57,10.44,5.61,14.5s1.12,9.71,0,9.86-4.6,1.88-7.21,1-4.36-2.32-5.59-.43,0,4.48-4.33,3.19-4.33-1.3-4.38-3-1.49-19.86.17-21.6,8.22.86,8.54-1S358.42,152.47,358.42,152.47Z"/><path class="gj" d="M359.74,169.16c-.9-.51-2.44.88-2.83,3.05s-1.45,8.12-.83,9,3.8,2,4.67,2.35a5.56,5.56,0,0,0,4.36,0c1.59-.76,3.23.43,3.58-1.77s-.47-7-2.54-6.82-5.83.15-5.83-1.3S360.72,169.72,359.74,169.16Z"/><path class="gk" d="M358.2,185.6l-1.8,4.84.69,1.74,17.8-4.89a8.36,8.36,0,0,0,2.18-1.69c.43-.7,1-2.17.65-2.55s-3.67,1.11-4.19,1.63a12.2,12.2,0,0,1-4.33,1.52c-1.41.22-8.61-.49-8.61-.49Z"/><path class="gl" d="M334.16,177s.46,3,.67,3.77a90.4,90.4,0,0,0,4.5,8.34,9,9,0,0,0,1.16,1.05l6.06,1.61,10.76.27s.42-5.25,1.61-6,8.65,1.12,9.59.43.26-3.62.26-3.62l-21.89-7.47Z"/><polygon class="gm" points="319.81 197.44 319.75 219.19 320.22 220.71 321.45 217.52 324.67 205.97 327.62 201.97 321.64 195.95 319.81 197.44"/><path class="fv" d="M323.37,209.67s-4.16,14-3.56,14.43l15,11.15,1.21-7.18s-6.63-12.12-6.58-13.86-1.57-4.4-2.83-4.54a22.78,22.78,0,0,0-3.23,0"/><path class="gn" d="M323.68,210.7a15.15,15.15,0,0,1,.4-3.31c.32-.82,3.11-4.81,3.11-4.81s1.64-.09,2.08.51,4.34,8.11,4.34,8.11,2.32,5.9,2.53,6.75,1.88,10.07,2.1,10.56-.77,1.94-.6,2.26l4,7.47-.51,1.2-9.05-6.5-7.7-5.54a1.24,1.24,0,0,1,1.73-.31c1.19.6,9.15,6.64,8.68,5.6s-6.12-4.29-7-6.52c-1.28-3.27,1.63-13,.71-14S324.89,210,323.68,210.7Z"/><path class="fx" d="M331.2,175.94a1.31,1.31,0,0,0,0,1.51c.41.56,1.46.9,1.77.59a3.25,3.25,0,0,0,.63-2c-.08-.3-1.07-1.25-1.6-.85A3.84,3.84,0,0,0,331.2,175.94Z"/><path class="fx" d="M371.14,178.27s-.54.54,0,.75,2.36,0,2.11-.38S371.14,178.27,371.14,178.27Z"/><path class="go" d="M296.18,436.42s-5.62,10.11-5.5,12.4,1.16,21.68,1.16,21.68l8.94,3.39-4.6-37.47"/><polyline class="go" points="291.93 472.07 292.18 474.41 301.19 478.11 300.5 474.19 291.87 471.04 291.93 472.07"/><polygon class="gp" points="291.71 474.25 301.13 477.79 301.41 481.12 297.89 486.7 289.14 480.58 289.84 478.65 291.04 478.65 292.13 475.82 291.71 474.25"/><polygon class="gq" points="289.14 479.92 287.89 484.42 297.73 488.14 298.18 486.7 289.14 479.92"/><polygon class="gr" points="287.71 483.71 286.36 489.67 295.28 492.37 297.4 488.08 287.71 483.71"/><polygon class="gs" points="286.04 489.02 285.19 493.99 292.72 498.53 295.28 492.37 286.04 489.02"/><polygon class="gt" points="284.89 493.77 284.24 496.71 292.67 503.12 292.67 498.18 284.89 493.77"/><polygon class="gu" points="284.24 497.03 271.39 510.54 255.01 550.13 244.51 585.52 243.59 589.26 244.06 590.78 245.53 589.74 257.69 561.77 278.32 515.96 283.25 520.02 281.31 525.48 273.48 544.6 266.25 561.02 261.85 570.14 256.14 583.37 252.27 593.18 252 594.81 253.36 594.46 259 586.57 266.91 575.3 272.71 564.92 282.75 546.42 288.46 531.8 290.64 525.53 292.67 503.12 284.24 497.03"/><path class="gd" d="M272.19,509.69s.92,4.83,1.41,6.12c.73,1.92,4.44-.45,4.44-.45-.37.9-32.71,74.79-32.71,74.79s-2,.55-1.87-.62,12-40.58,12-40.58l15.87-38.27,1.6-1.43"/><path class="gv" d="M301.41,481.12s-5.05-43.69-5.23-44.7"/><path d="M300.36,369.64l-12,19,1.66,4s.27,15.47.79,18.65,5,25.73,5,25.73.84.54.86-.22-4.41-25.59-4.41-27.84-.85-18.06-.85-18.06-.75-1.9-.47-2.74,10.74-19.06,10.74-19.06l-2.37-1.55-.05,1.55Z"/><path d="M278.53,407.71s2.4-8.41,3.67-9.47,1.84-3,3.55-2.28a35.21,35.21,0,0,1,4.67,2.72v2.21s-3.66-3.66-4.64-3.26a1.46,1.46,0,0,0-.4,2.21c.44.47,5.37,7.68,5.37,7.68l.54,4.57s-6.92-12.94-7.83-11.89a24.15,24.15,0,0,0-2.79,6.09c-.32,1.31-.94,3.88-.94,3.88Z"/><path d="M269,413.51s3.05-7.51,4.28-7.65,3.08-.87,4.21,0,4.49,6.23,4.49,6.23,9.18,12.87,11.35,16.17c.14.21,1.47-.27,1.55-.14s-.14.71-.14.74c.07.47-2.44.34-2.77,0s-14.41-20.7-15-21-2.54-.94-3.15.4-2.4,7.15-3,6.82A14.83,14.83,0,0,1,269,413.51Z"/><path d="M322.25,367s-1.09.6-1.09-.27,0-2.78,0-2.78l-14.46.33V387h15.55v-.92l-14.46-.22V365.65l12.29,0,.16,1.74,2.72,1.74,2.1-1.82Z"/><path d="M441.24,409.23,437,421.34a44.78,44.78,0,0,1,1.09,9.57c.05,4.12.26,7.89.37,9.57a1.11,1.11,0,0,0,1.43,1,3.93,3.93,0,0,0,1.32-.79c1.66-1.45,4.62-6.43,5.08-7.83s.66-4.69,1.08-5.37a1,1,0,0,1,1.67.22c.07.58-.31,4.71-.38,5.15s-2.38,2.39-3.32,4.2-4.09,10.73-4.15,12.69.23,8.05.38,8.85,3.48-1.31,3.48-1.31l.22-1s-2.61,1.54-2.69.3a46.5,46.5,0,0,1,.47-8.77,42.24,42.24,0,0,1,3.38-9.5c.79-1.16,2.66-3.55,2.66-3.55s2.07-3.35,2.18-5.36-1.15-6.37-3.48-5.12-3.05,5.39-3.1,6.75-3.16,8.15-4.08,8-1.34-2.62-1.09-5c.33-3.16-.76-12.67-.76-12.67l4.62-13.22h-1.74l-.43,1.11"/><path class="gw" d="M295.72,324.24s1.36-7.15,1.3-10.41.69-44.9.8-47.18.78-14.92,1.65-15.14,2.34-.6,2.5,0-1,42.9-1.37,56.52a.16.16,0,0,0,.31,0l3.49-32"/><path d="M304.25,312.74s29.56,2.83,29.56,3.37a6.08,6.08,0,0,1-.4,1.57s-27.69-2.38-28.61-2.87S304.25,312.74,304.25,312.74Z"/><path d="M305.94,320h-2.07l-.18-43.5s1.38-10.62,2.25-13.94a70.43,70.43,0,0,1,2.3-6.94l1.69-5.36.16-1h.85s-3.21,19.31-3.37,20.56-1.09,19.5-1.19,21.39S305.94,320,305.94,320Z"/><path d="M299.31,369.08s-1.47-11.31-2.12-14-3.57-12.54-4.13-13.77-2-4.94-2.24-4.61-5.54,11.25-5.54,11.25l-.77-.43s5.39-14.08,5.93-14.33,4.8.57,6.13.68,17.46.42,20.6.48a1.48,1.48,0,0,1,1.19.62.77.77,0,0,1,.09.8c-.38.77-6.09,2.23-8.37,3.27a104.21,104.21,0,0,0-9.41,5.35c-.17.25,3.53,8.46,3.75,9.22a57.67,57.67,0,0,1,1.19,6.25c-.05.55-1-1.74-1.14-2.12S298.3,344,298.3,344s4.83-3.06,6.17-3.7c2.72-1.31,7-3.08,6.91-3.4s-1.91-.33-3.43-.22-15-.38-14.89.22,3.05,8.43,3.51,9.63,2.57,11.9,2.79,13.64.33,6.8.33,7.35A5.88,5.88,0,0,1,299.31,369.08Z"/><polygon points="250.07 345.64 257.94 384.72 259.03 382.55 251.56 344.04 250.07 345.64"/><path d="M253.52,388.78s1.74-4.2,4.42-6.09,5.8-3.48,6.82-3.48,15.44.22,15.95.36,0,1.82,0,1.82l8.41,7.9.94,2.75-11.6-10.73-13-.65L258,391.39l2.9,17.62s3.85-8.55,5.3-10.73,8.63-11.53,9.06-11.82,1.31-.58,1.6-.14-.66,2.24-1.45,3.26-6.31,8.34-7,9.5-8,14.32-8.59,15c-2.72-4.06-3.73-21.35-4-22-1.36-.53-2.39-3.3-2.39-3.3"/><path d="M245.36,360.7s4.5-6.14,4.86-6.18,1.23,0,.65.91-4.91,8.73-4.91,8.73Z"/><path d="M252.46,343.85l.22,3.57s5-3.37,7.58-3.85a52.19,52.19,0,0,1,9.06-.5,26,26,0,0,1,6.68,1.16,93.82,93.82,0,0,1,9.28,4.93c1.08.83,6.81,5.87,7.14,6.12s1-.39.43-1-6.41-5.95-7.5-6.67a64.55,64.55,0,0,0-8.48-4.57,39.9,39.9,0,0,0-7.4-1.74,54.73,54.73,0,0,0-8.27.47c-.83.33-7.54,2.87-7.54,2.87l0-2.14Z"/><path d="M256.09,344.63s1,13.25,1.62,17.05,3.48,19.8,3.48,19.8l1.14-.71s-3.43-18.55-3.7-21.43-1.25-15.71-1.25-15.71Z"/><path d="M282.5,347.11s-1.95,10.77-2.12,12.56S278.91,380,278.91,380l1.25.71s2.07-19.74,2.34-22.14,1.09-11.14,1.09-11.14Z"/><polygon points="293.47 335.56 294.7 335.13 300 343.25 298.49 344.36 293.47 335.56"/><path d="M303.93,320.83s19.19,13.95,20.57,13.94,1.09-.95.44-1.31-18.42-14.21-19.65-14.21S303.69,318.08,303.93,320.83Z"/><path d="M331.53,322.76s-6,11.21-6.46,11.93-15.9,28.48-16.05,29.5.53.69,1.33.18a70.5,70.5,0,0,1,4-7.85c1.88-3,17.89-33.17,17.89-33.17Z"/><path d="M346.51,333s-6.71,12.89-11.71,18.84S322.06,367,322.06,367s-.1,1.51,1.64,1.15,4.28-5.22,5.51-6.82,11.81-14.73,13.2-17,5.71-11.23,5.71-11.23l-1.61-.09"/><path d="M292.78,334.49s-1-5.38-.82-5.82,3.1-5.81,3.38-5.48,1.57.81,1.14,1.73-2.5,3.27-2.56,4.52,1.09,5.27.65,5.33A9.19,9.19,0,0,1,292.78,334.49Z"/><path d="M378.81,241.18s9.52,5.49,9.73,5.6.33-.93.33-.93l-8.38-6.3Z"/><path d="M375.29,244.88s12,5.49,12.16,5.6.33-1.25.33-1.25-11.15-6.09-11.53-6.06-1,1.71-1,1.71h0"/><polyline points="374.47 245.63 354.89 279.81 356.08 281.42 377.41 243.7 374.89 243.7 374.47 245.63"/><path class="gw" d="M374.73,254.66s-5.82,11.42-5.93,11.8-.16,1.91.33,2.07,8.37,2.28,8.7,2.34,5.44-11.64,5.44-11.64S375.06,254,374.73,254.66Z"/><path d="M376,258.58s-3.55,6.53-3.23,7,4.39,2.5,4.64,1.85,3.68-6.91,2.7-7.18S376.18,258.25,376,258.58Z"/><path d="M395.72,255.48a9.93,9.93,0,0,0,1.15-1c-.81-.7-4.09-5.26-5.45-3.58s-16.69,30.51-16.69,30.51l-13,23.16,1.58,1,12.07-21.1,16.37-30.72a1.11,1.11,0,0,1,1.8-.38C394.22,253.92,395.72,255.48,395.72,255.48Z"/><path class="gw" d="M364.9,306.36c-2.14-2.07-11.7-8.3-12.36-8.52s-5.08-2.19-5.91-1.53a5.21,5.21,0,0,0-.72,5.24c.92,1.78,4.4,3,5.44,3.52s5.56,3.38,6.11,3.81,4.46,2.92,5.06,2.65a6.09,6.09,0,0,0,2.29-2.65C365,308.42,365.26,306.71,364.9,306.36Z"/><line class="gv" x1="354.66" y1="295.72" x2="349.06" y2="306.87"/><line class="gv" x1="360.86" y1="299.74" x2="354.99" y2="310.33"/><path d="M399.65,257.15s-.54-1.45-1.19-.91-1,2.72-1.13,3.3-9.39,55.29-8.95,55.58,1,.36,1.16,0,7.32-36.62,7.61-39.37S399.65,257.15,399.65,257.15Z"/><path d="M392.57,291.1s-28.17,28.85-30.46,29c-1.86.15-1.19,1-.38,1s24.67-1.53,24.76-3.16-20.74,2.18-20.93,2,26.63-26.75,27-27.46A1.6,1.6,0,0,0,392.57,291.1Z"/><polygon points="391.04 293.27 382.94 318.34 384.68 318.02 392.4 293.27 391.04 293.27"/><path d="M382.56,318.61l-2.2,6.3.69-.12a1.62,1.62,0,0,0,1.28-1.08l1.9-5.61Z"/><path d="M381.47,323.45l-27.72,12.73a3.53,3.53,0,0,1-1.87.31,6.23,6.23,0,0,0-2.82.12c-.81.49-2.55,1.25-2.55,1.25l6.12.35a2.33,2.33,0,0,0,2-1,1.27,1.27,0,0,1,.5-.4c.81-.35,23.14-10.69,26.06-12a.56.56,0,0,0,.31-.5v-.85Z"/><path class="gw" d="M331.86,323c.22.61,14,10.84,15.37,10.18s10.41-13.16,9.17-15-15.34-11.79-16.27-11.22C335.56,309.64,331.64,322.33,331.86,323Z"/><line class="gv" x1="336.68" y1="311.53" x2="354.59" y2="323.19"/><line class="gv" x1="333.81" y1="316.66" x2="351" y2="328.67"/><line class="gv" x1="336.25" y1="326.46" x2="347.42" y2="311.06"/><line class="gv" x1="352.14" y1="314.44" x2="342.94" y2="331.08"/><path d="M257.33,313.23a62.82,62.82,0,0,1,6.92,0,57.61,57.61,0,0,1,7.5,2.68c1.35.69,5.7,2.29,6.57,2.72s2.53,1.63,3.29,2.11-1.26-3.3-2.13-4.25-9.39-7.54-10.37-8.26-6.53-4.64-7.14-4.57-1,1.3-1,1.3,4.83,2.47,5.52,3,3.52,2.39,4.35,3,3.58,2.9,4.24,3.51c0,0,3.12,2.29,2.94,2.47s-9.93-3.88-11.17-4.35-8.82-1-8.82-1l-.67,1.63"/><path d="M263.74,301a16.83,16.83,0,0,1,3.48-.22,20.86,20.86,0,0,1,4.57,1.49c1.93,1,6.58,3.57,8.21,4.68a24.73,24.73,0,0,1,4.24,4c.9,1,1.93,1.14,2.07.89s-2.64-3.48-3.62-4.48-9.24-9.11-9.92-9.71-7.78-6-8.65-6.31a1.59,1.59,0,0,0-1.66.28,8.56,8.56,0,0,0,.68,1.85s1.15-.79,1.61-.5,13,10,12.59,10.39-1.2.06-1.55-.13a42.25,42.25,0,0,0-4-2.32c-.73-.21-6.09-2.42-6.58-2.42S263.74,301,263.74,301Z"/><path d="M261.38,289.44s8-4.16,9.43-4.6,6.66-1.79,7.29-1.87,4.32-.08,4.4-.46,6.47-36.71,6.69-37.63,2.83-1.8,2.5,0-7,37-7,37.14,3.48.32,3.69,0,4.5-14.66,5.21-18.3,3.26-18.33,3.26-18.87,1.58-.55,1.68,0-2.22,16.15-2.5,17.4-5.82,20.93-6,21.53-5.71-.65-5.77-.27-.11,3.7-.11,3.86,6.53.87,6.53.87a9.15,9.15,0,0,0-1.31,1.17c-.16.3-6.63-.9-7.28-.84s-6.8-.87-9.14.32a44.33,44.33,0,0,0-6,4.3,12.09,12.09,0,0,0-1.48-.87,34.34,34.34,0,0,1,4.62-3.81,14.35,14.35,0,0,1,3.43-1.19c.59-.11,9-.17,9-.17s.49-3.75.11-3.75-7.51,1.74-8.59,2.07-12.12,5.24-12.12,5.24Z"/><path class="gx" d="M280.13,244.13l30.31,3.05-.51,3.08,10.19,1.45,19.46,3,5.35.91.65.43v10.44h5.17V256.3l19.58-1.22-5.28-1.56,5.55-4.67L395.72,228l-2.39-.87L378,240.57,363,253l-6.09.38,32.69-26.27,2.77,1.58,1.41-1.58-2.88-1.74,1.69-2.06s-5.33,3.21-6,3.8-30.94,25.56-30.94,25.56-9.79-.43-10.55-.87-29.92-24-30.18-24.11-1.2.46-1,.78,32.31,25.07,32.28,25.24-6-.71-6.67-.71-39.59-20.71-40-20.74a7.72,7.72,0,0,0-1.9.89S327.86,249.66,327.8,250s-1,.7-1.68.65-10.23-2.23-10.55-2.34.59-1.63-.22-2.17-16-2.23-16.7-2.34-15.82-1.52-15.82-1.52Z"/><path d="M400.13,227.09a7.3,7.3,0,0,1-1.82.8c-.43,0,1.6,2,2.9,2.47a87.35,87.35,0,0,1,8.49,4.93c.21.29-.37,2-.37,2s-12.1-8.62-12.83-7.9-5.66,9.5-6.24,10.8-3.55,10.16-3.62,11.46a13.62,13.62,0,0,0,0,3.84c.29.87.87-2.82,1.38-4.35s8.19-19.5,8.63-19.43a18.32,18.32,0,0,1,3.26,1.89c.8.58,8.41,4.78,8.84,5.07s-4.35,18.35-4.64,20-3,16-3.11,18.2-.37,3.34-.15,3.56,1-.33,1.45,0-1,7.83-1.09,9.35-.43,26-.32,27.08,1,.54,1,.54,1.84-36.54,1.95-37.08,1-.33,1.09-1.42,2.72-17.07,3.59-21,4.57-18.6,4.79-19.25-.55,6-.69,7.54-1.38,18.2-1.53,19.51-1.45,27.19-1.23,27.62,1.09-2.17,1.23-4.57,1.6-21.1,2-25.59,1.74-20.95,2-23a10.83,10.83,0,0,1,.94-3.55c.22-.29-13.05-7.32-13.7-7.83l-2.17-1.67h0"/><path d="M439.35,290.61s-1.23,2-2,2-16.29-.71-21.61-1.74c-2.16-.42-7.75-2.39-8.55-2.18s-1.45.29-1.38.95,1.74,1.74,2.1,1.81,6.07,1.42,8.13,1.74,5.92.61,7.9.65c2.19.05,8-.14,8.77-.29s.87.87.87.87-3.41.8-4.49.94a68.5,68.5,0,0,1-7.62.37,90,90,0,0,1-12.11-2.11c-1.52-.5-9.78-5.25-10.22-4.94s-.94.3-.87.88a4.72,4.72,0,0,0,1.6,2c.36.22,8,4.28,9.13,4.79s6.84,3.45,9.32,4,7.76.14,10.33-.07a38.53,38.53,0,0,0,7.25-1.3,17.7,17.7,0,0,0,4.21-2.32c.29-.44.72-5.44,0-5.73Z"/><polygon class="gw" points="346.24 263.37 338.35 279.9 345.75 297.84 355.37 281.15 348.85 262.77 346.24 263.37"/><path d="M256.11,323.4s3.35-.12,4.12,0a31.61,31.61,0,0,1,7.84,3.17,14.67,14.67,0,0,1,4.21,3.39c1.48,1.81,1.62,2.17-.62.6a42.6,42.6,0,0,0-5.18-3.3,27.66,27.66,0,0,0-3.66-1.52,11.67,11.67,0,0,0-3.66-.8c-.51-.05-3.05,0-3.05,0Z"/><path d="M409,301.59a43.83,43.83,0,0,1,5.87.55c2.07.43,9.25,2.23,10.88,2.66s9.08,3.32,9.57,4.08-18.82,12.56-18.82,12.56a25.14,25.14,0,0,0,6.37.87c3.42,0,12.5.22,13.37.38s-4.51,4.68-5.6,5.28-13.59,5.87-13.86,6.63,4.66.6,5.89.71,8.24,1,8.62,1.9-5.43,5.88-6.74,7-8.59,7.34-9,7.5-.27-2,1.68-3.86,11.42-8.81,10.39-9.19-12.18-1.63-13.92-2.07-2.39-2.61,1.52-4.56,15.88-6.75,13.16-7-19.36.43-18.38-1.31,22.3-13.7,20.78-14.3-22.79-5.55-22.95-6.91S409,301.59,409,301.59Z"/><path d="M453.88,343.19c-.14-.06-22.16,11.86-25.37,14.36s-9.95,7.61-10.33,8.59a2,2,0,0,0,.54,1.91s10.44-8.05,12.56-9.47S456.12,344,456.12,344Z"/><path d="M465,405,441.74,407a8.26,8.26,0,0,0-.5,2.21c.1.43,17.8-2.61,19-2.61s5.25.36,5.25.36l-.25-.65.43-.87L465,405"/><path d="M402.3,308.88S409,346.8,409.48,349s9.87,20.1,9.87,20.1L441.74,407l1.67.09-25.32-42.62-7.6-15.95-7.9-48.22-.94,7.15Z"/><path d="M345.64,337.74s61.71,2.46,62.19,1.3.71,1.45.71,1.45-7.54,7.41-8,10.61S399,362.61,399,363.91s0,11.24-.15,11.75a.69.69,0,0,1-1.3-.44c.07-1.16.14-15.15.43-17.54s1-8.05,1.38-9.14,5.8-7.1,5-7.25-60.32-.87-60.21-2.1A1.74,1.74,0,0,1,345.64,337.74Z"/><path d="M265.81,418.57s2.14-5.21,3.3-5.35,9.42,8.36,9.42,8.36l3.78,3.89-.43.63s-9.29-8.1-10.09-8.82-2.83-1.89-3.19-.37,1.81,2.52,2.73,3,4.16,2.58,4.16,2.58l-9.68-3.93"/><path d="M281.69,425.85s5.9,3.62,6.71,3.29,4.05,0,3.46-1-1.28-.41-5-.22c-.6-.49-5.36-2.85-5.36-2.85l.17.76"/><path d="M292.16,470.06l8.55,3.27v2.53s-7.53-4-8.55-4.2S292.16,470.06,292.16,470.06Z"/><polyline points="292.07 474.78 292.07 472.96 300.94 477.04 301.19 479.22 292.07 474.78"/><polygon points="289.63 479.92 298.18 486.3 297.66 487.51 289.14 480.58 289.63 479.92"/><path d="M288.06,483.71s9.13,3.75,9.34,4.37-9.69-3.31-9.69-3.31l.35-1.06"/><path d="M286.53,489s8.39,1.71,8.75,2.14-.28,1.78-.28,1.78-7.66-3.23-8.76-2.83.29-1.09.29-1.09"/><polyline points="285.47 492.94 285.47 494.79 292.56 499.28 292.92 497.57 285.47 492.94"/><polyline points="283.83 497.26 292.42 504.58 292.67 501.2 284.62 496.11 283.83 497.26"/><polygon points="267.17 252.25 266.73 254.83 290.44 244.88 286.31 244.42 267.17 252.25"/><polygon points="452.49 407.2 454.23 431.18 463.64 430.55 464.95 429.1 455.38 429.38 454.72 406.93 452.49 407.2"/><polygon points="259.03 389.25 262.65 406.06 263.31 404.86 259.45 387.48 259.03 389.25"/><polygon points="267.38 380.23 272.17 392.46 273.1 390.31 268.56 380.15 267.38 380.23"/><path d="M270.24,380.15,277.06,393s1.31,1.08.71-.55S271.35,380,271.35,380Z"/><path d="M275.38,406.06s.92-4.73,2.12-5.5,2.28-.77,2.12-.36-3,4.66-2.61,5.86S275.38,406.06,275.38,406.06Z"/><path d="M492.1,350.14a5.22,5.22,0,0,1,6.72-1.07c4.14,2.23,4.41,4.08,4.41,4.08s-3.54-3.87-6.8-3.27a16.79,16.79,0,0,0-3.62.84l-.71-.58"/><path d="M500.07,377.22s-.65,6.63.19,8l.83,1.34s-1.15-2.9-.63-4.65,1.5-6.29,1.5-6.29Z"/><polygon points="466.74 595.68 477.34 599.27 468.4 593.31 466.74 595.68"/><path class="cp" d="M337.34,265.16s-3.19,0-3.41,1.3-.43,4.75,2.32,4.41,4-.49,3.33-1.65-2.39,1.3-3.33.65-2-2.32,0-2.61.87,1.08.87,1.26,1.3.69,1.81,0S338.92,265,337.34,265.16Z"/><path class="cp" d="M382,421.65s-.11-2.1-1.81-1.06-1.24,2.35-1,2.51.59-.2.38-1,.82-1.35,1.16-.77-.14,1.3-.41,1.05-.81.47-.3.67,1.33.31,1.53-.08A7.66,7.66,0,0,0,382,421.65Z"/><path d="M486.54,390.92l.67,10.19s3.31-11.69,2.84-10.52c0,0-2.16,1.22-2.16,1.22Z"/><path class="gw" d="M345.89,146.25s1.6,45.32,1.45,45.82"/><line class="gw" x1="356.91" y1="192.51" x2="355.89" y2="145.01"/><path class="gy" d="M324.08,184.13a19,19,0,0,1,2.71,1.16c1,.58,6.13,2.71,8.19,3.48A58.87,58.87,0,0,0,347.53,192a50.93,50.93,0,0,0,9.56.22c2.9-.36,7.51-1.62,10-2.23,2-.5,6.2-1.5,8.09-2.07,1.08-.34,1.54,0,.83.82-1.62,1.83-14.65,6.7-19.9,7.54a38,38,0,0,1-9.28-.29A70.05,70.05,0,0,1,333,191.6a89.51,89.51,0,0,1-9.71-6.31C322.66,184.68,322.34,183.45,324.08,184.13Z"/><polygon class="gw" points="348.32 196.13 349.01 234.93 354.99 234.93 356.07 196.24 348.32 196.13"/><path class="ak" d="M363.9,643.45s9.06,14.42,12.79,15.82c.73.28-2.12-4.88-2.48-6.66s1.17-4.36.93-5.55a3.64,3.64,0,0,1,1.44-3.53c1.12-.7.24-3.23.22-4.51s-2.46-3.42-2.1-4.36.47-1.25.47-1.25l-6.92-3.15-4.35,3Z"/><path class="gz" d="M357.34,629.79a18.63,18.63,0,0,1,.88,6.37c-.08,3.82-2.77,13.55-3.23,13.9s4.25-.81,7.11-.44a32.17,32.17,0,0,0,6.27.22s-2.05-17,1-18.73-1.2-2-1.2-2-8.48-1.57-9.48-1.06A3.1,3.1,0,0,0,357.34,629.79Z"/><path class="gw" d="M319.81,224.1s20.61,14.85,22,15.83,2.07.54,2.07.54l5.11-5.55h6s4.68,3.81,5,4.25S376.62,228.73,376.9,228s-1.46-11.63.49-20.12S381.85,190,381.85,190l1.45,3.43"/><path class="gw" d="M342.85,240.46s-5.15-9.56-5.37-10,.54-.87.76-2-2.17-11.2-2.93-13.71-5.44-10.11-7.07-12.29a53.14,53.14,0,0,0-6.09-6.16c-1.42-1.26-2.34.84-2.34.84"/><path class="gw" d="M319.81,223.61s1.14-3.77,2.12-8.08,2.06-9,3.48-10.84A20.8,20.8,0,0,1,327.8,202"/><path d="M374.24,192.07s-7,5.88-7,6.31a44.2,44.2,0,0,0,0,5.34c.22,1-2.9,9.28-3.22,11.54s-1.39,7.51-1.63,8.9c-.66,3.7,0,13.76,0,13.76l3.82-2.42s-.27-3.89-.23-6.94a35.86,35.86,0,0,1,1.19-9.3c.87-2.82,3.44-12.18,2.92-16.29-.13-1.06-.87-2.92-.65-4s5.85-6.89,5.85-6.89Z"/><path class="gw" d="M355.26,631.29c6.4.14,15.48,1.23,19.38,3.68,0,0,5.08-14.58,5.71-16.13s13.58-35.67,14.45-37.08,5.87-5,6.52-6,4.13-11.74,5.11-11.85a11.41,11.41,0,0,1,4.24.33,36.25,36.25,0,0,1,6.64,3.26c1.63,1.2,7.07,5.11,7.39,5.55s-1.74,1.41-1.08,1.74,5.22,1.74,6.09,2.06,4-1.09,5.22-1,2.42-.3,4.13.3,1.09,1.61,3.7,2.59a31.26,31.26,0,0,1,6.52,3.58c.55.49,5.33,5.8,6.64,7.13s4.77,2.06,6.09,3.1a19.63,19.63,0,0,0,4.87,2.44c.24,0,1.33.09,1.36-.73s-6.63-7.13-6.63-7.13-7.4-6.65-7.78-6.93,1.16-.08,1.52-.27,1.14-.43,1-1.06-2.58-1.82-2.58-2.15,1.41-.73,2.34-.79,6,.41,6.63.25.52-.92.82-1.17-.11-.62,1.08.19a4.92,4.92,0,0,0,2.7,1.12c.4-.11.95-.49.76-.93s-2.31-1.93-3.16-3.18a23.46,23.46,0,0,1-2.2-5.09c-.19-1-.68-5.29.22-5.1s3.34,5.43,3.72,6,4.87,5.57,5.17,5.84c10.9,9.84,1.39-.35,1.28-.76s-3.48-3.83-4-5.06-1.39-3.75-1.11-3.89,2.39,0,2.77-.19.54-.89,1.14-1.06.56-.57,1.21,0,2.16,1.06,2.54,1.69,1.47.71,1.17,2.31-.68,2.26-.32,2.31a1.71,1.71,0,0,0,1.74-1,47.45,47.45,0,0,0,.4-7.61c-.11-.47-2.09-3.81-2.61-5.71s-.76-9.46-.87-10.55-1.66-8.13-1.71-9.17-.88-13.83-.95-15.32,0-10.59.11-11.49.29-4.43.36-4.68,1.09,1,1.56,1.05,1.63.07.94-1.09-16.38-23.6-17.33-25.3a1.88,1.88,0,0,1,1.36-2.77c.4.19-3.86-4.23-5.6-6.19s-4.11-5-5.62-6.85-3.44-4.67-3.26-5.29a2.46,2.46,0,0,1,.58-1.6c.62-.68,16.42-24,18-25.15a5.75,5.75,0,0,0,2.2-3.22,12.8,12.8,0,0,0,.34-4.91c-.36-1.92-2.43-13.19-2.18-13.48a3.48,3.48,0,0,1,1.09-.84c.44-.18.11-1,.36-1.12s0-1.41-.47-2-3-10.77-2.64-10.8,2.28-2.58,2.5-3a4.91,4.91,0,0,0,.54-1.74c0-.4-1.67-1-1.81-1.52s-5.51-28.83-6.2-31.58A60.8,60.8,0,0,1,456.24,346c0-1.52,0-2,.73-1.92s3,1.23,3.84,1.12a4.24,4.24,0,0,0,2.29-.9,6,6,0,0,1,3-3.3,13.72,13.72,0,0,1,3.81-1.13c.69,0,3.33.15,4,.84a10.42,10.42,0,0,1,2.21,3.59c.36,1.3.69,2.1,1.27,2.1s1.95-.26,2.39.22,1,1.7,1.3,1.88,1.74.76,2.29.44,1.63-1.24,2.46-1,1.45-.08,1.67.18-.11,1.41.18,1.67,4.06-.08,4.39.29,2.61,1.88,2.65,2.28.14,2,.54,2.18a13.31,13.31,0,0,1,2.46,2.32c.15.32.44.32.44,1.63a33.22,33.22,0,0,1-.18,5.22c-.26.65-8.19,15.33-8.88,17.25s-1.6,4.1-1.6,5-.25,2.86-.33,3.77-.07,1.59.29,1.77,1.71-.72,1.93-1.05.21-2,.76-2.64,9-10.66,9.46-10.74a13,13,0,0,0,3.15-3c.29-.62,3.27-5.18,3.3-5.66s.73-11.78.91-12.39,2.28-7,2.32-7.69-3.77-3.26-3.88-4.68-.87-8.3-.58-8.95a7.15,7.15,0,0,0-1.45-5.4c-1.49-1.63-1.38-5.59-1.89-6.49s-5-1.56-6.41-2.68S474.73,306.52,470.75,305s-25.11-11.53-25.49-11.7c0,0-4.73-2.3-5.17-2.73s-1.45-3.07-1.79-3.47-.54-5.34-.62-5.92-.07-20.63-.43-21.5c0,0-1-4.24-1.38-4.93s-9.24-13.38-12.29-15.84-5.36-3.52-5.4-4,.08-2.41,0-3.2-1.22-1.25-1.55-1-1.5,2-1.74,2a1.69,1.69,0,0,1-.33-2.12c.6-.85,5.9-13.21,6.41-13.9s5-6.74,6.73-8.48,10.87-12,16.53-16.8,15.28-12.24,18.87-14.85,14.59-11.93,14.3-12.29c-.49-.61-22.93,12.51-36.24,1.45-10.73-8.92-.23-39.35-1-39.62s-13.34,30-13.34,30l-17.69,57.28a9.25,9.25,0,0,1-2.4.43c-.36-.14-1.45,6.17-2.1,7.33s-2.46,4.49-3.7,5.43A7.32,7.32,0,0,1,397,227.6c-.29-.07-5.95-1.45-5.73-2s1.23-1.52,1-2.1-2.61-1.45-4.49-1.52c0,0-4-.22-4.06-1s-.87-27.4-.44-27.62,1.16.29,1.16-.22-.14-16.53-.58-16.75a20.32,20.32,0,0,0-3.91.29c-.07-1.16-.58-7.18-1.23-9.06s-1.95-5.11-2.76-6.74a48.48,48.48,0,0,0-6.25-8.74,22,22,0,0,0-9-5.91c-3.14-1.06-6.79-.9-9.43-.89-3.2,0-9.66,1.58-12.68,2.63a39.5,39.5,0,0,0-8.12,4,31.3,31.3,0,0,0-5.44,6,34.67,34.67,0,0,0-3.41,7.75c-.65,2.32-1.16,5.51-1.3,6.38a2.8,2.8,0,0,1-1.09,1.89c-.58.43-4.68,4.79-5.07,5.22a13.08,13.08,0,0,0-1,1.2v12l6.25,5.55.33,26.15L314,227.91l-3.59-2-13.43,7,1.09,1.91-5.71.76-24.58,16.09s-.76,1.47-1.09,2.18-5,13.65-5.33,15.17-4.67,20.39-4.78,21.37a4,4,0,0,0,0,1.36s4.29-2.17,4.78-1.74,3.76,7.89,3.65,8.38a45.73,45.73,0,0,1-3.43,5.32c-1,1.31-5.27,11.91-5.6,12.62s-.33,9.9-.33,9.9-.11,1.19-.54,1.41-4.19-.27-4.19,0,2.29,3.54,2.29,3.81S251,332.26,251,333s2.61,3.27,2.94,4,.16,5.11.16,5.11l-12.12,9.08,11.42,36.65a24.59,24.59,0,0,0,.59,2.67c.22.49,1.91,1,2,1.52,0,0,1.42,13.16,1.69,14.52S261,416.82,261,416.82s1.8.6,2.61.82,18.06,8.21,18.06,8.21l.21,6.91s3.43.21,4.25.87a9.55,9.55,0,0,1,2.72,2.93,27.38,27.38,0,0,1,1.46,5.88c.06.92,1.8,33.39,1.8,33.39L291,478.65h-1.2s-1.77,4.79-2.39,7-2.94,10.84-2.94,10.84l-10.65,12a15.84,15.84,0,0,1-2.11,1.6c-.58.25-3,6.89-3,6.89s-12.8,30.63-13.52,32.66-7.62,24.8-8.2,27-3.4,12-3.4,12.69.14.76.38.89a1.83,1.83,0,0,0,1.36,0c.25-.22,3.49-8.85,3.49-8.85s29.6-65.13,29.5-65.34a39.64,39.64,0,0,1,4.93,4.06c0,.29-4.05,11.25-4.05,11.25s-12.52,29.33-13.5,30.86-5.17,10.93-5.76,12.34-4.14,9.68-4.36,10.22-3.15,7.94-3.31,8.49-.44,1.46-.27,1.63c0,0,.24.5.87.16s4.48-6.23,4.67-6.42,1.32-1.82,2.19-3,7.18-10.26,7.18-10.26,4.8-8.32,5.11-9,3.94-7.43,4.47-8.3,6-11,6.26-11.55,7.6-19.15,7.89-20.89,2-23.81,2-24.33,0-2.14,0-2.36a6.91,6.91,0,0,1,.38-1.73c.23-.6,3.4-7.31,3.73-7.87a32.65,32.65,0,0,0,1.55-3.35,12.44,12.44,0,0,1,.92-1.93c.36-.58,1.63-2.95,2.14-2.84s1,1.16,1.16,2.43,2,17.29,2.45,18.76,6.09,18,6.14,18.65.38,2.28.06,2.77-7.07,9-7.73,9.52-1.9-.22-2,.43,2.56,18.39,2.29,18.77-3,.76-2.94,1.3,3.64,11.42,3.91,12.13,0,3,.28,3.37,4.18,8.74,4.45,9.52,1.42,2.94,1.62,3.42,3.8,10.62,4,10.62,1.05.29,1.16-.25a21.18,21.18,0,0,0-.72-3.84c-.22-.69-1.38-6.35-.8-6.42s3.15-.54,3.19-.18,2.72,10.66,2.9,11.16,5.51,17.91,5.51,17.91l5.73,18,.66,2.06a44.73,44.73,0,0,1,8.15,3.28c4.15-1.45,3.93-.51,6.81-2.67l.61-.11"/><path d="M356,625.56s1.08-.17,1.89-.22c2-.12,2.26,1.09,4.28,1.38a36.27,36.27,0,0,1,8.05,2.56c1.9.93,5.81,3.51,5.81,3.51L374.28,635a25.61,25.61,0,0,0-4.77-4,32,32,0,0,0-7.83-2.39c-2.08-.26-5.94-.78-5.94-.78"/><polygon points="317.8 195.95 317.31 176.53 318.23 175.71 318.61 196.64 317.8 195.95"/><polygon points="319.1 174.78 319.1 198.98 320.43 197.4 320.02 173.18 319.1 174.78"/><path d="M348.14,196v2.27h2.23l-.22,36.28H354l-.08-36.33a11.1,11.1,0,0,0,1.6-.31,38.18,38.18,0,0,0,4.14-2.25Z"/><polygon points="380.58 176.66 381.35 190.84 382.45 190.84 381.31 176.53 380.58 176.66"/><path class="gw" d="M376.8,629.94c-9.51-8.54-10.47-4.57-20.78-5"/><path class="gw" d="M377.58,627c-8.9-9.57-16.82-5.36-21.22-5.83"/><path class="ak" d="M332.24,635.65s-.68-.66,0-1.2,1-2.47,1.56-2.55a11,11,0,0,1,3.37,1.1,7.06,7.06,0,0,0,4.09,1.45c2-.05,4.1,0,5-.73s2.58-2.45,1.88-1.32c-1.49,2.39.92,2.42.73,4.29-.05.52.13,1.57.08,2-.1.87.87,2.06.83,2.36-.42,3-3.06,12.57-5.63,14.52-1.45,1.11-2,1.53-3.26.22s-1.67-.54-1.67-3.81,1.58-4.53.54-8.46S332.24,635.65,332.24,635.65Z"/><path class="gz" d="M331,654c-.43-.34,2.14-3.86,2.62-4.79s2.49-4,2.49-5.48-3.09-2.46-1.79-4,4.38-1.66,5.64-1.44,2.24-.43,3.14-.08-.74,5.3-1.22,6.17-2.47,4.67-1.92,5.87.07,3.21-.31,3.21S332.31,655.06,331,654Z"/><path d="M324.76,653a4.9,4.9,0,0,0-2.73,1.89c-1,1.49-.43,3,.23,4.56s.46,2.91,2.77,2.63,9.92.13,10.93,0c1.38-.12,5.84.6,6.9.49a4.57,4.57,0,0,0,3.52-2.64c.36-.78,1.14-5.69-1.41-6.89-.91-.43-12.39,1.07-14.83.71Z"/><path class="ha" d="M344.83,660.05s-1.08,7.53.12,8.67c.58.55,28.23.12,29.47.2s3.32.08,3.81-.76c1.06-1.83-1.8-8.27-1.8-8.27s-5.23-6.06-7.91-9.73c-1-1.35-2.19-1.57-7.63-1.57-3.49,0-7.19-.21-8.67,2.75"/><path d="M345.46,659.44s-1.08,7.53.12,8.67c.58.55,3.86-1.05,5.48-1.63a31.11,31.11,0,0,1,11-1.68,20.66,20.66,0,0,1,9.25,1.84c1.19.58,2.47,1.59,3.7,1.67s3.33.08,3.81-.76c1.06-1.83-1.8-8.28-1.8-8.28s-5.23-6-7.9-9.72c-1-1.35-2.2-1.58-7.64-1.57-3.49,0-7.19-.21-8.66,2.75"/><path class="gw" d="M356.48,627.33c-.57,4.18-2.18,4.47-3.07,6.21-.43.84-3.08,4.76-3.33,6.34s.07,3,0,5a16.86,16.86,0,0,1-1.15,6.51c-1,2.24-3.77,8.24-4.17,10.23s-.64,4.76.09,6.1c.27.49,2,.79,3.4.4s3.82-2.18,6.14-2.75c2.83-.7,12.17-.39,14.36,0,2,.35,5.07,2.86,7,3.06,1.19.12,4.1-.88,4-2.62-.09-1.56-1.54-3.37-2-4.65s-2.1-6.16-3.16-7.45.18-2.9.36-4.07.09-3.79.81-4.28,1.35-2,1.47-4.21-2.29-7-2.29-7"/><path class="gw" d="M333.62,631.32a8.1,8.1,0,0,1-2,3.65c-1.82,2.14-2.84,3.47-2.11,5.14s.09,2.79-1.07,4.6-2.43,7.31-3.05,7.78-4.42.79-4.28,3.33,1.24,6,2.61,6.12a72.31,72.31,0,0,0,8.24.06c2.64-.21,9-.06,10.11-.66s1.92.78,3.64-.69c2.32-2,1.11-4.74.49-6.26s.65-1.44,1.17-4.47c.43-2.51,1.65-7.35,2.26-8.29s-1.07-2.45-.71-4.19-2.55-3.55-1.2-4.65c.88-.73.44-2,.44-5.46"/><path class="co" d="M225.51,148.3l10,3.06,2.55-.64c.49-.12,1-.49,1.62-.63s1.07,0,1.64-.15c4.33-1,7.23.33,8.05.89.61.41,4.48-.94,6.31.07.34.19.7.37,1.06.55.74.37,1.53.73,2.32,1a10.79,10.79,0,0,0,4.77.82,77.27,77.27,0,0,0,8.86-2c.49-.13.79-.71,1.27-.84s1.14.2,1.61.07c4.22-1.16,7.84-2.24,7.84-2.24s-12.33,6-15.7,7.91S252.36,153,252.36,153l-6.37.52-.77.5a2.33,2.33,0,0,1-1.94.24l-1.27-.41-6.63.54Z"/></g></svg>